<?xml version="1.0" encoding="UTF-8" standalone="no"?><!DOCTYPE svg PUBLIC "-//W3C//DTD SVG 1.1//EN" "http://www.w3.org/Graphics/SVG/1.1/DTD/svg11.dtd"><svg width="100%" height="100%" viewBox="0 0 750 473" version="1.1" xmlns="http://www.w3.org/2000/svg" xmlns:xlink="http://www.w3.org/1999/xlink" xml:space="preserve" xmlns:serif="http://www.serif.com/" style="fill-rule:evenodd;clip-rule:evenodd;stroke-miterlimit:10;"><g><rect x="0" y="0.279" width="150" height="472.442" style="fill:#fff;stroke:#1d1d1b;stroke-width:4.17px;"/><rect x="150" y="0.279" width="150" height="472.442" style="fill:#fff;stroke:#1d1d1b;stroke-width:4.17px;"/><rect x="300" y="0.279" width="150" height="472.442" style="fill:#fff;stroke:#1d1d1b;stroke-width:4.17px;"/><rect x="450" y="0.279" width="150" height="472.442" style="fill:#009fe3;stroke:#1d1d1b;stroke-width:4.17px;"/><rect x="600" y="0.279" width="150" height="472.442" style="fill:#71b62f;stroke:#1d1d1b;stroke-width:4.17px;"/><text x="40.099px" y="257.3px" style="font-family:'ArialMT', 'Arial', sans-serif;font-size:70.866px;fill:#1d1d1b;">L<tspan x="74.364px 108.629px 193.026px 227.291px 261.556px 341.213px 375.478px 409.744px 502.005px 548.035px 639.057px 681.177px " y="257.3px 257.3px 257.3px 257.3px 257.3px 257.3px 257.3px 257.3px 257.3px 257.3px 257.3px 257.3px ">1 L2 L3 N PE</tspan></text><path d="M113.008,65.248c0,-20.977 -17.031,-38.008 -38.008,-38.008c-20.977,0 -38.008,17.031 -38.008,38.008c0,20.977 17.031,38.008 38.008,38.008c20.977,0 38.008,-17.031 38.008,-38.008Z" style="fill:url(#_Radial1);stroke:#1d1d1b;stroke-width:4.17px;"/><path d="M263.008,65.248c0,-20.977 -17.031,-38.008 -38.008,-38.008c-20.977,0 -38.008,17.031 -38.008,38.008c0,20.977 17.031,38.008 38.008,38.008c20.977,0 38.008,-17.031 38.008,-38.008Z" style="fill:url(#_Radial2);stroke:#1d1d1b;stroke-width:4.17px;"/><path d="M413.008,65.248c0,-20.977 -17.031,-38.008 -38.008,-38.008c-20.977,0 -38.008,17.031 -38.008,38.008c0,20.977 17.031,38.008 38.008,38.008c20.977,0 38.008,-17.031 38.008,-38.008Z" style="fill:url(#_Radial3);stroke:#1d1d1b;stroke-width:4.17px;"/><path d="M563.008,65.248c0,-20.977 -17.031,-38.008 -38.008,-38.008c-20.977,0 -38.008,17.031 -38.008,38.008c0,20.977 17.031,38.008 38.008,38.008c20.977,0 38.008,-17.031 38.008,-38.008Z" style="fill:url(#_Radial4);stroke:#1d1d1b;stroke-width:4.17px;"/><path d="M713.008,65.248c0,-20.977 -17.031,-38.008 -38.008,-38.008c-20.977,0 -38.008,17.031 -38.008,38.008c0,20.977 17.031,38.008 38.008,38.008c20.977,0 38.008,-17.031 38.008,-38.008Z" style="fill:url(#_Radial5);stroke:#1d1d1b;stroke-width:4.17px;"/><path d="M113.008,401.778c0,-20.977 -17.031,-38.008 -38.008,-38.008c-20.977,0 -38.008,17.031 -38.008,38.008c0,20.977 17.031,38.008 38.008,38.008c20.977,0 38.008,-17.031 38.008,-38.008Z" style="fill:url(#_Radial6);stroke:#1d1d1b;stroke-width:4.17px;"/><path d="M263.008,401.778c0,-20.977 -17.031,-38.008 -38.008,-38.008c-20.977,0 -38.008,17.031 -38.008,38.008c0,20.977 17.031,38.008 38.008,38.008c20.977,0 38.008,-17.031 38.008,-38.008Z" style="fill:url(#_Radial7);stroke:#1d1d1b;stroke-width:4.17px;"/><path d="M413.008,401.778c0,-20.977 -17.031,-38.008 -38.008,-38.008c-20.977,0 -38.008,17.031 -38.008,38.008c0,20.977 17.031,38.008 38.008,38.008c20.977,0 38.008,-17.031 38.008,-38.008Z" style="fill:url(#_Radial8);stroke:#1d1d1b;stroke-width:4.17px;"/><path d="M563.008,401.778c0,-20.977 -17.031,-38.008 -38.008,-38.008c-20.977,0 -38.008,17.031 -38.008,38.008c0,20.977 17.031,38.008 38.008,38.008c20.977,0 38.008,-17.031 38.008,-38.008Z" style="fill:url(#_Radial9);stroke:#1d1d1b;stroke-width:4.17px;"/><path d="M713.008,401.778c0,-20.977 -17.031,-38.008 -38.008,-38.008c-20.977,0 -38.008,17.031 -38.008,38.008c0,20.977 17.031,38.008 38.008,38.008c20.977,0 38.008,-17.031 38.008,-38.008Z" style="fill:url(#_Radial10);stroke:#1d1d1b;stroke-width:4.17px;"/><path d="M79.608,137.81l-9.217,0c-26.092,0 -47.242,-21.15 -47.242,-47.246l0,-87.196l103.704,0l0,87.196c0,26.096 -21.154,47.246 -47.246,47.246Z" style="fill:none;fill-rule:nonzero;stroke:#1d1d1b;stroke-width:4.17px;"/><path d="M229.608,137.81l-9.217,0c-26.092,0 -47.242,-21.15 -47.242,-47.246l0,-87.196l103.704,0l0,87.196c0,26.096 -21.154,47.246 -47.246,47.246Z" style="fill:none;fill-rule:nonzero;stroke:#1d1d1b;stroke-width:4.17px;"/><path d="M379.608,137.81l-9.217,0c-26.092,0 -47.242,-21.15 -47.242,-47.246l0,-87.196l103.704,0l0,87.196c0,26.096 -21.154,47.246 -47.246,47.246Z" style="fill:none;fill-rule:nonzero;stroke:#1d1d1b;stroke-width:4.17px;"/><path d="M529.608,137.81l-9.217,0c-26.092,0 -47.242,-21.15 -47.242,-47.246l0,-87.196l103.704,0l0,87.196c0,26.096 -21.154,47.246 -47.246,47.246Z" style="fill:none;fill-rule:nonzero;stroke:#1d1d1b;stroke-width:4.17px;"/><path d="M679.608,137.81l-9.217,0c-26.092,0 -47.242,-21.15 -47.242,-47.246l0,-87.196l103.704,0l0,87.196c0,26.096 -21.154,47.246 -47.246,47.246Z" style="fill:none;fill-rule:nonzero;stroke:#1d1d1b;stroke-width:4.17px;"/><path d="M670.392,335.403l9.217,0c26.092,0 47.242,21.15 47.242,47.246l0,87.196l-103.704,0l0,-87.196c0,-26.096 21.154,-47.246 47.246,-47.246Z" style="fill:none;fill-rule:nonzero;stroke:#1d1d1b;stroke-width:4.17px;"/><path d="M520.392,335.403l9.217,0c26.092,0 47.242,21.15 47.242,47.246l0,87.196l-103.704,0l0,-87.196c0,-26.096 21.154,-47.246 47.246,-47.246Z" style="fill:none;fill-rule:nonzero;stroke:#1d1d1b;stroke-width:4.17px;"/><path d="M370.392,335.403l9.217,0c26.092,0 47.242,21.15 47.242,47.246l0,87.196l-103.704,0l0,-87.196c0,-26.096 21.154,-47.246 47.246,-47.246Z" style="fill:none;fill-rule:nonzero;stroke:#1d1d1b;stroke-width:4.17px;"/><path d="M220.392,335.403l9.217,0c26.092,0 47.242,21.15 47.242,47.246l0,87.196l-103.704,0l0,-87.196c0,-26.096 21.154,-47.246 47.246,-47.246Z" style="fill:none;fill-rule:nonzero;stroke:#1d1d1b;stroke-width:4.17px;"/><path d="M70.392,335.403l9.217,0c26.092,0 47.242,21.15 47.242,47.246l0,87.196l-103.704,0l0,-87.196c0,-26.096 21.154,-47.246 47.246,-47.246Z" style="fill:none;fill-rule:nonzero;stroke:#1d1d1b;stroke-width:4.17px;"/><path d="M86.429,47.737l6.082,6.082l-11.43,11.43l11.43,11.43l-6.082,6.082l-11.43,-11.43l-11.43,11.43l-6.082,-6.082l11.43,-11.43l-11.43,-11.43l6.082,-6.082l11.43,11.43l11.43,-11.43Z" style="fill:url(#_Radial11);stroke:#000;stroke-width:1.71px;stroke-linecap:round;stroke-linejoin:round;stroke-miterlimit:1.5;"/><path d="M86.429,384.266l6.082,6.082l-11.43,11.43l11.43,11.43l-6.082,6.082l-11.43,-11.43l-11.43,11.43l-6.082,-6.082l11.43,-11.43l-11.43,-11.43l6.082,-6.082l11.43,11.43l11.43,-11.43Z" style="fill:url(#_Radial12);stroke:#000;stroke-width:1.71px;stroke-linecap:round;stroke-linejoin:round;stroke-miterlimit:1.5;"/><path d="M386.43,47.737l6.082,6.082l-11.43,11.43l11.43,11.43l-6.082,6.082l-11.43,-11.43l-11.43,11.43l-6.082,-6.082l11.43,-11.43l-11.43,-11.43l6.082,-6.082l11.43,11.43l11.43,-11.43Z" style="fill:url(#_Radial13);stroke:#000;stroke-width:1.71px;stroke-linecap:round;stroke-linejoin:round;stroke-miterlimit:1.5;"/><path d="M386.43,384.266l6.082,6.082l-11.43,11.43l11.43,11.43l-6.082,6.082l-11.43,-11.43l-11.43,11.43l-6.082,-6.082l11.43,-11.43l-11.43,-11.43l6.082,-6.082l11.43,11.43l11.43,-11.43Z" style="fill:url(#_Radial14);stroke:#000;stroke-width:1.71px;stroke-linecap:round;stroke-linejoin:round;stroke-miterlimit:1.5;"/><path d="M236.429,47.737l6.082,6.082l-11.43,11.43l11.43,11.43l-6.082,6.082l-11.43,-11.43l-11.43,11.43l-6.082,-6.082l11.43,-11.43l-11.43,-11.43l6.082,-6.082l11.43,11.43l11.43,-11.43Z" style="fill:url(#_Radial15);stroke:#000;stroke-width:1.71px;stroke-linecap:round;stroke-linejoin:round;stroke-miterlimit:1.5;"/><path d="M236.429,384.266l6.082,6.082l-11.43,11.43l11.43,11.43l-6.082,6.082l-11.43,-11.43l-11.43,11.43l-6.082,-6.082l11.43,-11.43l-11.43,-11.43l6.082,-6.082l11.43,11.43l11.43,-11.43Z" style="fill:url(#_Radial16);stroke:#000;stroke-width:1.71px;stroke-linecap:round;stroke-linejoin:round;stroke-miterlimit:1.5;"/><path d="M536.429,47.737l6.082,6.082l-11.43,11.43l11.43,11.43l-6.082,6.082l-11.43,-11.43l-11.43,11.43l-6.082,-6.082l11.43,-11.43l-11.43,-11.43l6.082,-6.082l11.43,11.43l11.43,-11.43Z" style="fill:url(#_Radial17);stroke:#000;stroke-width:1.71px;stroke-linecap:round;stroke-linejoin:round;stroke-miterlimit:1.5;"/><path d="M536.429,384.266l6.082,6.082l-11.43,11.43l11.43,11.43l-6.082,6.082l-11.43,-11.43l-11.43,11.43l-6.082,-6.082l11.43,-11.43l-11.43,-11.43l6.082,-6.082l11.43,11.43l11.43,-11.43Z" style="fill:url(#_Radial18);stroke:#000;stroke-width:1.71px;stroke-linecap:round;stroke-linejoin:round;stroke-miterlimit:1.5;"/><path d="M686.429,47.737l6.082,6.082l-11.43,11.43l11.43,11.43l-6.082,6.082l-11.43,-11.43l-11.43,11.43l-6.082,-6.082l11.43,-11.43l-11.43,-11.43l6.082,-6.082l11.43,11.43l11.43,-11.43Z" style="fill:url(#_Radial19);stroke:#000;stroke-width:1.71px;stroke-linecap:round;stroke-linejoin:round;stroke-miterlimit:1.5;"/><path d="M686.429,384.266l6.082,6.082l-11.43,11.43l11.43,11.43l-6.082,6.082l-11.43,-11.43l-11.43,11.43l-6.082,-6.082l11.43,-11.43l-11.43,-11.43l6.082,-6.082l11.43,11.43l11.43,-11.43Z" style="fill:url(#_Radial20);stroke:#000;stroke-width:1.71px;stroke-linecap:round;stroke-linejoin:round;stroke-miterlimit:1.5;"/></g><defs><radialGradient id="_Radial1" cx="0" cy="0" r="1" gradientUnits="userSpaceOnUse" gradientTransform="matrix(0,-38.008333,-38.008333,0,74.999167,65.248333)"><stop offset="0" style="stop-color:#fff;stop-opacity:1"/><stop offset="0.38" style="stop-color:#c1c1c1;stop-opacity:0.89"/><stop offset="0.88" style="stop-color:#323232;stop-opacity:0.65"/><stop offset="0.93" style="stop-color:#2b2b2b;stop-opacity:0.76"/><stop offset="1" style="stop-color:#1a1a1a;stop-opacity:1"/></radialGradient><radialGradient id="_Radial2" cx="0" cy="0" r="1" gradientUnits="userSpaceOnUse" gradientTransform="matrix(0,-38.008333,-38.008333,0,224.999167,65.248333)"><stop offset="0" style="stop-color:#fff;stop-opacity:1"/><stop offset="0.43" style="stop-color:#c0c0c0;stop-opacity:0.89"/><stop offset="1" style="stop-color:#323232;stop-opacity:0.65"/><stop offset="1" style="stop-color:#1a1a1a;stop-opacity:1"/></radialGradient><radialGradient id="_Radial3" cx="0" cy="0" r="1" gradientUnits="userSpaceOnUse" gradientTransform="matrix(0,-38.008333,-38.008333,0,374.999167,65.248333)"><stop offset="0" style="stop-color:#fff;stop-opacity:1"/><stop offset="0.43" style="stop-color:#c0c0c0;stop-opacity:0.89"/><stop offset="1" style="stop-color:#323232;stop-opacity:0.65"/><stop offset="1" style="stop-color:#1a1a1a;stop-opacity:1"/></radialGradient><radialGradient id="_Radial4" cx="0" cy="0" r="1" gradientUnits="userSpaceOnUse" gradientTransform="matrix(0,-38.008333,-38.008333,0,525,65.248333)"><stop offset="0" style="stop-color:#fff;stop-opacity:1"/><stop offset="0.43" style="stop-color:#c0c0c0;stop-opacity:0.89"/><stop offset="1" style="stop-color:#323232;stop-opacity:0.65"/><stop offset="1" style="stop-color:#1a1a1a;stop-opacity:1"/></radialGradient><radialGradient id="_Radial5" cx="0" cy="0" r="1" gradientUnits="userSpaceOnUse" gradientTransform="matrix(0,-38.008333,-38.008333,0,674.999167,65.248333)"><stop offset="0" style="stop-color:#fff;stop-opacity:1"/><stop offset="0.38" style="stop-color:#c1c1c1;stop-opacity:0.89"/><stop offset="0.88" style="stop-color:#323232;stop-opacity:0.65"/><stop offset="0.93" style="stop-color:#2b2b2b;stop-opacity:0.76"/><stop offset="1" style="stop-color:#1a1a1a;stop-opacity:1"/></radialGradient><radialGradient id="_Radial6" cx="0" cy="0" r="1" gradientUnits="userSpaceOnUse" gradientTransform="matrix(0,-38.008333,-38.008333,0,74.999167,401.777917)"><stop offset="0" style="stop-color:#fff;stop-opacity:1"/><stop offset="0.38" style="stop-color:#c1c1c1;stop-opacity:0.89"/><stop offset="0.88" style="stop-color:#323232;stop-opacity:0.65"/><stop offset="0.93" style="stop-color:#2b2b2b;stop-opacity:0.76"/><stop offset="1" style="stop-color:#1a1a1a;stop-opacity:1"/></radialGradient><radialGradient id="_Radial7" cx="0" cy="0" r="1" gradientUnits="userSpaceOnUse" gradientTransform="matrix(0,-38.008333,-38.008333,0,224.999167,401.777917)"><stop offset="0" style="stop-color:#fff;stop-opacity:1"/><stop offset="0.38" style="stop-color:#c1c1c1;stop-opacity:0.89"/><stop offset="0.88" style="stop-color:#323232;stop-opacity:0.65"/><stop offset="0.93" style="stop-color:#2b2b2b;stop-opacity:0.76"/><stop offset="1" style="stop-color:#1a1a1a;stop-opacity:1"/></radialGradient><radialGradient id="_Radial8" cx="0" cy="0" r="1" gradientUnits="userSpaceOnUse" gradientTransform="matrix(0,-38.008333,-38.008333,0,374.999167,401.777917)"><stop offset="0" style="stop-color:#fff;stop-opacity:1"/><stop offset="0.38" style="stop-color:#c1c1c1;stop-opacity:0.89"/><stop offset="0.88" style="stop-color:#323232;stop-opacity:0.65"/><stop offset="0.93" style="stop-color:#2b2b2b;stop-opacity:0.76"/><stop offset="1" style="stop-color:#1a1a1a;stop-opacity:1"/></radialGradient><radialGradient id="_Radial9" cx="0" cy="0" r="1" gradientUnits="userSpaceOnUse" gradientTransform="matrix(0,-38.008333,-38.008333,0,524.999167,401.777917)"><stop offset="0" style="stop-color:#fff;stop-opacity:1"/><stop offset="0.38" style="stop-color:#c1c1c1;stop-opacity:0.89"/><stop offset="0.88" style="stop-color:#323232;stop-opacity:0.65"/><stop offset="0.93" style="stop-color:#2b2b2b;stop-opacity:0.76"/><stop offset="1" style="stop-color:#1a1a1a;stop-opacity:1"/></radialGradient><radialGradient id="_Radial10" cx="0" cy="0" r="1" gradientUnits="userSpaceOnUse" gradientTransform="matrix(0,-38.008333,-38.008333,0,674.999167,401.777917)"><stop offset="0" style="stop-color:#fff;stop-opacity:1"/><stop offset="0.38" style="stop-color:#c1c1c1;stop-opacity:0.89"/><stop offset="0.88" style="stop-color:#323232;stop-opacity:0.65"/><stop offset="0.93" style="stop-color:#2b2b2b;stop-opacity:0.76"/><stop offset="1" style="stop-color:#1a1a1a;stop-opacity:1"/></radialGradient><radialGradient id="_Radial11" cx="0" cy="0" r="1" gradientUnits="userSpaceOnUse" gradientTransform="matrix(57.882698,0,0,57.882698,46.057818,65.248333)"><stop offset="0" style="stop-color:#fff;stop-opacity:1"/><stop offset="0.43" style="stop-color:#c0c0c0;stop-opacity:0.89"/><stop offset="1" style="stop-color:#323232;stop-opacity:0.65"/><stop offset="1" style="stop-color:#1a1a1a;stop-opacity:1"/></radialGradient><radialGradient id="_Radial12" cx="0" cy="0" r="1" gradientUnits="userSpaceOnUse" gradientTransform="matrix(57.882698,0,0,57.882698,46.057818,401.777917)"><stop offset="0" style="stop-color:#fff;stop-opacity:1"/><stop offset="0.43" style="stop-color:#c0c0c0;stop-opacity:0.89"/><stop offset="1" style="stop-color:#323232;stop-opacity:0.65"/><stop offset="1" style="stop-color:#1a1a1a;stop-opacity:1"/></radialGradient><radialGradient id="_Radial13" cx="0" cy="0" r="1" gradientUnits="userSpaceOnUse" gradientTransform="matrix(57.882698,0,0,57.882698,346.058651,65.248333)"><stop offset="0" style="stop-color:#fff;stop-opacity:1"/><stop offset="0.43" style="stop-color:#c0c0c0;stop-opacity:0.89"/><stop offset="1" style="stop-color:#323232;stop-opacity:0.65"/><stop offset="1" style="stop-color:#1a1a1a;stop-opacity:1"/></radialGradient><radialGradient id="_Radial14" cx="0" cy="0" r="1" gradientUnits="userSpaceOnUse" gradientTransform="matrix(57.882698,0,0,57.882698,346.058651,401.777917)"><stop offset="0" style="stop-color:#fff;stop-opacity:1"/><stop offset="0.43" style="stop-color:#c0c0c0;stop-opacity:0.89"/><stop offset="1" style="stop-color:#323232;stop-opacity:0.65"/><stop offset="1" style="stop-color:#1a1a1a;stop-opacity:1"/></radialGradient><radialGradient id="_Radial15" cx="0" cy="0" r="1" gradientUnits="userSpaceOnUse" gradientTransform="matrix(57.882698,0,0,57.882698,196.057818,65.248333)"><stop offset="0" style="stop-color:#fff;stop-opacity:1"/><stop offset="0.43" style="stop-color:#c0c0c0;stop-opacity:0.89"/><stop offset="1" style="stop-color:#323232;stop-opacity:0.65"/><stop offset="1" style="stop-color:#1a1a1a;stop-opacity:1"/></radialGradient><radialGradient id="_Radial16" cx="0" cy="0" r="1" gradientUnits="userSpaceOnUse" gradientTransform="matrix(57.882698,0,0,57.882698,196.057818,401.777917)"><stop offset="0" style="stop-color:#fff;stop-opacity:1"/><stop offset="0.43" style="stop-color:#c0c0c0;stop-opacity:0.89"/><stop offset="1" style="stop-color:#323232;stop-opacity:0.65"/><stop offset="1" style="stop-color:#1a1a1a;stop-opacity:1"/></radialGradient><radialGradient id="_Radial17" cx="0" cy="0" r="1" gradientUnits="userSpaceOnUse" gradientTransform="matrix(57.882698,0,0,57.882698,496.057818,65.248333)"><stop offset="0" style="stop-color:#fff;stop-opacity:1"/><stop offset="0.43" style="stop-color:#c0c0c0;stop-opacity:0.89"/><stop offset="1" style="stop-color:#323232;stop-opacity:0.65"/><stop offset="1" style="stop-color:#1a1a1a;stop-opacity:1"/></radialGradient><radialGradient id="_Radial18" cx="0" cy="0" r="1" gradientUnits="userSpaceOnUse" gradientTransform="matrix(57.882698,0,0,57.882698,496.057818,401.777917)"><stop offset="0" style="stop-color:#fff;stop-opacity:1"/><stop offset="0.43" style="stop-color:#c0c0c0;stop-opacity:0.89"/><stop offset="1" style="stop-color:#323232;stop-opacity:0.65"/><stop offset="1" style="stop-color:#1a1a1a;stop-opacity:1"/></radialGradient><radialGradient id="_Radial19" cx="0" cy="0" r="1" gradientUnits="userSpaceOnUse" gradientTransform="matrix(57.882698,0,0,57.882698,646.057818,65.248333)"><stop offset="0" style="stop-color:#fff;stop-opacity:1"/><stop offset="0.43" style="stop-color:#c0c0c0;stop-opacity:0.89"/><stop offset="1" style="stop-color:#323232;stop-opacity:0.65"/><stop offset="1" style="stop-color:#1a1a1a;stop-opacity:1"/></radialGradient><radialGradient id="_Radial20" cx="0" cy="0" r="1" gradientUnits="userSpaceOnUse" gradientTransform="matrix(57.882698,0,0,57.882698,646.057818,401.777917)"><stop offset="0" style="stop-color:#fff;stop-opacity:1"/><stop offset="0.43" style="stop-color:#c0c0c0;stop-opacity:0.89"/><stop offset="1" style="stop-color:#323232;stop-opacity:0.65"/><stop offset="1" style="stop-color:#1a1a1a;stop-opacity:1"/></radialGradient></defs></svg>