<svg width="100%" height="100%" viewBox="0 0 209 1063" version="1.1" xmlns="http://www.w3.org/2000/svg" xmlns:xlink="http://www.w3.org/1999/xlink" style="fill-rule:evenodd;clip-rule:evenodd;stroke-linecap:round;stroke-linejoin:round;stroke-miterlimit:1.5;"><g><path d="M208.192,3.009l0,1056.981c0,1.659 -1.347,3.006 -3.006,3.006l-201.372,0c-1.659,0 -3.006,-1.347 -3.006,-3.006l0,-1056.981c0,-1.659 1.347,-3.006 3.006,-3.006l201.372,0c1.659,0 3.006,1.347 3.006,3.006Z" style="fill:url(#_Linear1);stroke:#000;stroke-width:3.56px;"/><path d="M208.192,272.839l0,517.322c0,1.659 -1.347,3.006 -3.006,3.006l-201.372,0c-1.659,0 -3.006,-1.347 -3.006,-3.006l0,-517.322c0,-1.659 1.347,-3.006 3.006,-3.006l201.372,0c1.659,0 3.006,1.347 3.006,3.006Z" style="fill:#f25e0d;stroke:#000;stroke-width:4.01px;stroke-linejoin:miter;"/><circle cx="106.134" cy="926.421" r="52.559" style="fill:url(#_Radial2);stroke:#000;stroke-width:3.12px;stroke-linecap:square;"/><path d="M130.989,920.666l0,11.511l-19.064,0l0,19.064l-11.581,0l0,-19.064l-19.064,0l0,-11.511l19.064,0l0,-19.064l11.581,0l0,19.064l19.064,0Z" style="fill:#fff;stroke:#000;stroke-width:3.12px;stroke-linecap:square;"/><circle cx="101.82" cy="134.919" r="52.559" style="fill:url(#_Radial3);stroke:#000;stroke-width:3.12px;stroke-linecap:square;"/><path d="M126.674,129.163l0,11.511l-19.064,0l0,19.064l-11.581,0l0,-19.064l-19.064,0l0,-11.511l19.064,0l0,-19.064l11.581,0l0,19.064l19.064,0Z" style="fill:#fff;stroke:#000;stroke-width:3.12px;stroke-linecap:square;"/><path d="M130.989,1009.552l62.083,0" style="fill:none;stroke:#000;stroke-width:8.52px;"/><path d="M139.198,1024.268l45.067,0" style="fill:none;stroke:#000;stroke-width:8.52px;"/><path d="M150.993,1037.963l22.074,0" style="fill:none;stroke:#000;stroke-width:8.52px;"/><path d="M162.03,964.946l0,28.068" style="fill:none;stroke:#000;stroke-width:8.52px;"/><rect x="36.296" y="364.139" width="137.362" height="56.84" style="fill:#4db358;stroke:#000;stroke-width:3.12px;stroke-linecap:square;"/></g><defs><linearGradient id="_Linear1" x1="0" y1="0" x2="1" y2="0" gradientUnits="userSpaceOnUse" gradientTransform="matrix(0,1062.992126,-316.012334,0,104.5,0.003937)"><stop offset="0" style="stop-color:#fff;stop-opacity:1"/><stop offset="0.31" style="stop-color:#f5f5f5;stop-opacity:1"/><stop offset="0.62" style="stop-color:#d7d7d7;stop-opacity:1"/><stop offset="0.71" style="stop-color:#c0c0c0;stop-opacity:1"/><stop offset="0.8" style="stop-color:#b8b8b8;stop-opacity:1"/><stop offset="0.91" style="stop-color:#e9e9e9;stop-opacity:1"/><stop offset="1" style="stop-color:#fff;stop-opacity:1"/></linearGradient><radialGradient id="_Radial2" cx="0" cy="0" r="1" gradientUnits="userSpaceOnUse" gradientTransform="matrix(52.559055,0,0,52.559055,106.133854,926.421224)"><stop offset="0" style="stop-color:#fff;stop-opacity:1"/><stop offset="0.43" style="stop-color:#c0c0c0;stop-opacity:0.89"/><stop offset="1" style="stop-color:#323232;stop-opacity:0.65"/><stop offset="1" style="stop-color:#1a1a1a;stop-opacity:1"/></radialGradient><radialGradient id="_Radial3" cx="0" cy="0" r="1" gradientUnits="userSpaceOnUse" gradientTransform="matrix(52.559055,0,0,52.559055,101.819683,134.91867)"><stop offset="0" style="stop-color:#fff;stop-opacity:1"/><stop offset="0.43" style="stop-color:#c0c0c0;stop-opacity:0.89"/><stop offset="1" style="stop-color:#323232;stop-opacity:0.65"/><stop offset="1" style="stop-color:#1a1a1a;stop-opacity:1"/></radialGradient></defs></svg>