<svg width="100%" height="100%" viewBox="0 0 833 1063" version="1.1" xmlns="http://www.w3.org/2000/svg" xmlns:xlink="http://www.w3.org/1999/xlink" style="fill-rule:evenodd;clip-rule:evenodd;stroke-linecap:round;stroke-linejoin:round;stroke-miterlimit:1.5;"><path d="M832.839,12.072l0,1038.857c0,6.66 -5.407,12.068 -12.068,12.068l-808.542,0c-6.66,0 -12.068,-5.407 -12.068,-12.068l0,-1038.857c0,-6.66 5.407,-12.068 12.068,-12.068l808.542,0c6.66,0 12.068,5.407 12.068,12.068Z" style="fill:url(#_Linear1);stroke:#000;stroke-width:7.78px;"/><path d="M832.839,277.418l0,508.164c0,4.186 -3.399,7.585 -7.585,7.585l-817.508,0c-4.186,0 -7.585,-3.399 -7.585,-7.585l0,-508.164c0,-4.186 3.399,-7.585 7.585,-7.585l817.508,0c4.186,0 7.585,3.399 7.585,7.585Z" style="fill:#e6611a;stroke:#000;stroke-width:2.75px;stroke-linejoin:miter;"/><path d="M416.5,269.833l0,523.333" style="fill:none;stroke:#000;stroke-width:0.59px;"/><path d="M211.246,269.833l0,523.333" style="fill:none;stroke:#000;stroke-width:0.59px;"/><path d="M620.17,269.833l0,523.333" style="fill:none;stroke:#000;stroke-width:0.59px;"/><path d="M416.5,269.833l0,-269.829" style="fill:none;stroke:#000;stroke-width:0.96px;"/><path d="M211.246,269.833l0,-269.829" style="fill:none;stroke:#000;stroke-width:0.96px;"/><path d="M620.17,269.833l0,-269.829" style="fill:none;stroke:#000;stroke-width:1.34px;"/><path d="M416.5,793.167l0,269.829" style="fill:none;stroke:#000;stroke-width:0.96px;"/><path d="M211.246,793.167l0,269.829" style="fill:none;stroke:#000;stroke-width:0.96px;"/><path d="M620.17,793.167l0,269.829" style="fill:none;stroke:#000;stroke-width:0.96px;"/><circle cx="726.408" cy="928.081" r="52.559" style="fill:url(#_Radial2);stroke:#000;stroke-width:3.12px;stroke-linecap:square;"/><path d="M751.263,922.326l0,11.511l-19.064,0l0,19.064l-11.581,0l0,-19.064l-19.064,0l0,-11.511l19.064,0l0,-19.064l11.581,0l0,19.064l19.064,0Z" style="fill:#fff;stroke:#000;stroke-width:3.12px;stroke-linecap:square;"/><circle cx="726.408" cy="134.919" r="52.559" style="fill:url(#_Radial3);stroke:#000;stroke-width:3.12px;stroke-linecap:square;"/><path d="M751.263,129.163l0,11.511l-19.064,0l0,19.064l-11.581,0l0,-19.064l-19.064,0l0,-11.511l19.064,0l0,-19.064l11.581,0l0,19.064l19.064,0Z" style="fill:#fff;stroke:#000;stroke-width:3.12px;stroke-linecap:square;"/><circle cx="309.584" cy="134.919" r="52.559" style="fill:url(#_Radial4);stroke:#000;stroke-width:3.12px;stroke-linecap:square;"/><path d="M334.439,129.163l0,11.511l-19.064,0l0,19.064l-11.581,0l0,-19.064l-19.064,0l0,-11.511l19.064,0l0,-19.064l11.581,0l0,19.064l19.064,0Z" style="fill:#fff;stroke:#000;stroke-width:3.12px;stroke-linecap:square;"/><circle cx="101.173" cy="134.919" r="52.559" style="fill:url(#_Radial5);stroke:#000;stroke-width:3.12px;stroke-linecap:square;"/><path d="M126.027,129.163l0,11.511l-19.064,0l0,19.064l-11.581,0l0,-19.064l-19.064,0l0,-11.511l19.064,0l0,-19.064l11.581,0l0,19.064l19.064,0Z" style="fill:#fff;stroke:#000;stroke-width:3.12px;stroke-linecap:square;"/><circle cx="517.996" cy="134.919" r="52.559" style="fill:url(#_Radial6);stroke:#000;stroke-width:3.12px;stroke-linecap:square;"/><path d="M542.851,129.163l0,11.511l-19.064,0l0,19.064l-11.581,0l0,-19.064l-19.064,0l0,-11.511l19.064,0l0,-19.064l11.581,0l0,19.064l19.064,0Z" style="fill:#fff;stroke:#000;stroke-width:3.12px;stroke-linecap:square;"/><path d="M634.163,1009.552l62.083,0" style="fill:none;stroke:#000;stroke-width:8.52px;"/><path d="M642.372,1024.268l45.067,0" style="fill:none;stroke:#000;stroke-width:8.52px;"/><path d="M654.167,1037.963l22.074,0" style="fill:none;stroke:#000;stroke-width:8.52px;"/><path d="M665.204,964.946l0,28.068" style="fill:none;stroke:#000;stroke-width:8.52px;"/><rect x="35.649" y="364.139" width="137.362" height="56.84" style="fill:#4db358;stroke:#000;stroke-width:3.12px;stroke-linecap:square;"/><rect x="452.473" y="364.139" width="137.362" height="56.84" style="fill:#4db358;stroke:#000;stroke-width:3.12px;stroke-linecap:square;"/><rect x="244.061" y="364.139" width="137.362" height="56.84" style="fill:#4db358;stroke:#000;stroke-width:3.12px;stroke-linecap:square;"/><rect x="660.885" y="364.139" width="137.362" height="56.84" style="fill:#4db358;stroke:#000;stroke-width:3.12px;stroke-linecap:square;"/><g transform="matrix(50,0,0,50,809.677115,82.805957)"></g><text x="773.569px" y="82.806px" style="font-family:'ArialMT', 'Arial', sans-serif;font-size:50px;">N</text><defs><linearGradient id="_Linear1" x1="0" y1="0" x2="1" y2="0" gradientUnits="userSpaceOnUse" gradientTransform="matrix(0,1062.992126,-1268.841395,0,416.5,0.003937)"><stop offset="0" style="stop-color:#dfdfdf;stop-opacity:1"/><stop offset="0.31" style="stop-color:#ddd;stop-opacity:1"/><stop offset="0.62" style="stop-color:#d7d7d7;stop-opacity:1"/><stop offset="0.71" style="stop-color:#c0c0c0;stop-opacity:1"/><stop offset="0.8" style="stop-color:#b8b8b8;stop-opacity:1"/><stop offset="0.91" style="stop-color:#e9e9e9;stop-opacity:1"/><stop offset="1" style="stop-color:#fff;stop-opacity:1"/></linearGradient><radialGradient id="_Radial2" cx="0" cy="0" r="1" gradientUnits="userSpaceOnUse" gradientTransform="matrix(52.559055,0,0,52.559055,726.407941,928.08133)"><stop offset="0" style="stop-color:#fff;stop-opacity:1"/><stop offset="0.43" style="stop-color:#c0c0c0;stop-opacity:0.89"/><stop offset="1" style="stop-color:#323232;stop-opacity:0.65"/><stop offset="1" style="stop-color:#1a1a1a;stop-opacity:1"/></radialGradient><radialGradient id="_Radial3" cx="0" cy="0" r="1" gradientUnits="userSpaceOnUse" gradientTransform="matrix(52.559055,0,0,52.559055,726.407941,134.91867)"><stop offset="0" style="stop-color:#fff;stop-opacity:1"/><stop offset="0.43" style="stop-color:#c0c0c0;stop-opacity:0.89"/><stop offset="1" style="stop-color:#323232;stop-opacity:0.65"/><stop offset="1" style="stop-color:#1a1a1a;stop-opacity:1"/></radialGradient><radialGradient id="_Radial4" cx="0" cy="0" r="1" gradientUnits="userSpaceOnUse" gradientTransform="matrix(52.559055,0,0,52.559055,309.584412,134.91867)"><stop offset="0" style="stop-color:#fff;stop-opacity:1"/><stop offset="0.43" style="stop-color:#c0c0c0;stop-opacity:0.89"/><stop offset="1" style="stop-color:#323232;stop-opacity:0.65"/><stop offset="1" style="stop-color:#1a1a1a;stop-opacity:1"/></radialGradient><radialGradient id="_Radial5" cx="0" cy="0" r="1" gradientUnits="userSpaceOnUse" gradientTransform="matrix(52.559055,0,0,52.559055,101.172647,134.91867)"><stop offset="0" style="stop-color:#fff;stop-opacity:1"/><stop offset="0.43" style="stop-color:#c0c0c0;stop-opacity:0.89"/><stop offset="1" style="stop-color:#323232;stop-opacity:0.65"/><stop offset="1" style="stop-color:#1a1a1a;stop-opacity:1"/></radialGradient><radialGradient id="_Radial6" cx="0" cy="0" r="1" gradientUnits="userSpaceOnUse" gradientTransform="matrix(52.559055,0,0,52.559055,517.996176,134.91867)"><stop offset="0" style="stop-color:#fff;stop-opacity:1"/><stop offset="0.43" style="stop-color:#c0c0c0;stop-opacity:0.89"/><stop offset="1" style="stop-color:#323232;stop-opacity:0.65"/><stop offset="1" style="stop-color:#1a1a1a;stop-opacity:1"/></radialGradient></defs></svg>