<?xml version="1.0" encoding="UTF-8" standalone="no"?><!DOCTYPE svg PUBLIC "-//W3C//DTD SVG 1.1//EN" "http://www.w3.org/Graphics/SVG/1.1/DTD/svg11.dtd"><svg width="100%" height="100%" viewBox="0 0 124 1063" version="1.1" xmlns="http://www.w3.org/2000/svg" xmlns:xlink="http://www.w3.org/1999/xlink" xml:space="preserve" xmlns:serif="http://www.serif.com/" style="fill-rule:evenodd;clip-rule:evenodd;stroke-miterlimit:10;"><g id="Warstwa-1" serif:id="Warstwa 1"><rect x="-0.009" y="0.004" width="124.017" height="1062.992" style="fill:#009fe3;stroke:#1d1d1b;stroke-width:4.17px;"/><rect x="14.587" y="72.933" width="91.358" height="918.517" style="fill:#f9b233;stroke:#1d1d1b;stroke-width:2.36px;"/><path d="M93.004,118.071c0,17.121 -13.879,31.004 -31.004,31.004c-17.121,0 -31.004,-13.883 -31.004,-31.004c0,-17.125 13.883,-31.004 31.004,-31.004c17.125,0 31.004,13.879 31.004,31.004" style="fill:#878787;fill-rule:nonzero;"/><path d="M93.004,118.071c0,-17.112 -13.893,-31.004 -31.004,-31.004c-17.112,0 -31.004,13.893 -31.004,31.004c0,17.112 13.893,31.004 31.004,31.004c17.112,0 31.004,-13.893 31.004,-31.004Z" style="fill:none;stroke:#1d1d1b;stroke-width:2.36px;"/><path d="M93.004,193.24c0,17.125 -13.879,31.004 -31.004,31.004c-17.121,0 -31.004,-13.879 -31.004,-31.004c0,-17.125 13.883,-31.004 31.004,-31.004c17.125,0 31.004,13.879 31.004,31.004" style="fill:#878787;fill-rule:nonzero;"/><path d="M93.004,193.24c0,-17.112 -13.893,-31.004 -31.004,-31.004c-17.112,0 -31.004,13.893 -31.004,31.004c0,17.112 13.893,31.004 31.004,31.004c17.112,0 31.004,-13.893 31.004,-31.004Z" style="fill:none;stroke:#1d1d1b;stroke-width:2.36px;"/><path d="M93.004,268.409c0,17.125 -13.879,31.004 -31.004,31.004c-17.121,0 -31.004,-13.879 -31.004,-31.004c0,-17.125 13.883,-31.004 31.004,-31.004c17.125,0 31.004,13.879 31.004,31.004" style="fill:#878787;fill-rule:nonzero;"/><path d="M93.004,268.409c0,-17.112 -13.893,-31.004 -31.004,-31.004c-17.112,0 -31.004,13.893 -31.004,31.004c0,17.112 13.893,31.004 31.004,31.004c17.112,0 31.004,-13.893 31.004,-31.004Z" style="fill:none;stroke:#1d1d1b;stroke-width:2.36px;"/><path d="M93.004,343.577c0,17.125 -13.879,31.004 -31.004,31.004c-17.121,0 -31.004,-13.879 -31.004,-31.004c0,-17.125 13.883,-31.004 31.004,-31.004c17.125,0 31.004,13.879 31.004,31.004" style="fill:#878787;fill-rule:nonzero;"/><path d="M93.004,343.577c0,-17.112 -13.893,-31.004 -31.004,-31.004c-17.112,0 -31.004,13.893 -31.004,31.004c0,17.112 13.893,31.004 31.004,31.004c17.112,0 31.004,-13.893 31.004,-31.004Z" style="fill:none;stroke:#1d1d1b;stroke-width:2.36px;"/><path d="M93.004,418.747c0,17.125 -13.879,31.004 -31.004,31.004c-17.121,0 -31.004,-13.879 -31.004,-31.004c0,-17.125 13.883,-31.004 31.004,-31.004c17.125,0 31.004,13.879 31.004,31.004" style="fill:#878787;fill-rule:nonzero;"/><path d="M93.004,418.747c0,-17.112 -13.893,-31.004 -31.004,-31.004c-17.112,0 -31.004,13.893 -31.004,31.004c0,17.112 13.893,31.004 31.004,31.004c17.112,0 31.004,-13.893 31.004,-31.004Z" style="fill:none;stroke:#1d1d1b;stroke-width:2.36px;"/><path d="M93.004,493.916c0,17.125 -13.879,31.004 -31.004,31.004c-17.121,0 -31.004,-13.879 -31.004,-31.004c0,-17.125 13.883,-31.004 31.004,-31.004c17.125,0 31.004,13.879 31.004,31.004" style="fill:#878787;fill-rule:nonzero;"/><path d="M93.004,493.916c0,-17.112 -13.893,-31.004 -31.004,-31.004c-17.112,0 -31.004,13.893 -31.004,31.004c0,17.112 13.893,31.004 31.004,31.004c17.112,0 31.004,-13.893 31.004,-31.004Z" style="fill:none;stroke:#1d1d1b;stroke-width:2.36px;"/><path d="M93.004,571.56c0,17.125 -13.879,31.004 -31.004,31.004c-17.121,0 -31.004,-13.879 -31.004,-31.004c0,-17.125 13.883,-31.004 31.004,-31.004c17.125,0 31.004,13.879 31.004,31.004" style="fill:#878787;fill-rule:nonzero;"/><path d="M93.004,571.56c0,-17.112 -13.893,-31.004 -31.004,-31.004c-17.112,0 -31.004,13.893 -31.004,31.004c0,17.112 13.893,31.004 31.004,31.004c17.112,0 31.004,-13.893 31.004,-31.004Z" style="fill:none;stroke:#1d1d1b;stroke-width:2.36px;"/><path d="M93.004,644.253c0,17.125 -13.879,31.004 -31.004,31.004c-17.121,0 -31.004,-13.879 -31.004,-31.004c0,-17.121 13.883,-31.004 31.004,-31.004c17.125,0 31.004,13.883 31.004,31.004" style="fill:#878787;fill-rule:nonzero;"/><path d="M93.004,644.253c0,-17.112 -13.893,-31.004 -31.004,-31.004c-17.112,0 -31.004,13.893 -31.004,31.004c0,17.112 13.893,31.004 31.004,31.004c17.112,0 31.004,-13.893 31.004,-31.004Z" style="fill:none;stroke:#1d1d1b;stroke-width:2.36px;"/><path d="M93.004,719.422c0,17.125 -13.879,31.004 -31.004,31.004c-17.121,0 -31.004,-13.879 -31.004,-31.004c0,-17.125 13.883,-31.004 31.004,-31.004c17.125,0 31.004,13.879 31.004,31.004" style="fill:#878787;fill-rule:nonzero;"/><path d="M93.004,719.422c0,-17.112 -13.893,-31.004 -31.004,-31.004c-17.112,0 -31.004,13.893 -31.004,31.004c0,17.112 13.893,31.004 31.004,31.004c17.112,0 31.004,-13.893 31.004,-31.004Z" style="fill:none;stroke:#1d1d1b;stroke-width:2.36px;"/><path d="M93.004,794.591c0,17.125 -13.879,31.004 -31.004,31.004c-17.121,0 -31.004,-13.879 -31.004,-31.004c0,-17.125 13.883,-31.004 31.004,-31.004c17.125,0 31.004,13.879 31.004,31.004" style="fill:#878787;fill-rule:nonzero;"/><path d="M93.004,794.591c0,-17.112 -13.893,-31.004 -31.004,-31.004c-17.112,0 -31.004,13.893 -31.004,31.004c0,17.112 13.893,31.004 31.004,31.004c17.112,0 31.004,-13.893 31.004,-31.004Z" style="fill:none;stroke:#1d1d1b;stroke-width:2.36px;"/><path d="M93.004,869.76c0,17.125 -13.879,31.004 -31.004,31.004c-17.121,0 -31.004,-13.879 -31.004,-31.004c0,-17.125 13.883,-31.004 31.004,-31.004c17.125,0 31.004,13.879 31.004,31.004" style="fill:#878787;fill-rule:nonzero;"/><path d="M93.004,869.76c0,-17.112 -13.893,-31.004 -31.004,-31.004c-17.112,0 -31.004,13.893 -31.004,31.004c0,17.112 13.893,31.004 31.004,31.004c17.112,0 31.004,-13.893 31.004,-31.004Z" style="fill:none;stroke:#1d1d1b;stroke-width:2.36px;"/><path d="M93.004,944.929c0,17.125 -13.879,31.004 -31.004,31.004c-17.121,0 -31.004,-13.879 -31.004,-31.004c0,-17.125 13.883,-31.004 31.004,-31.004c17.125,0 31.004,13.879 31.004,31.004" style="fill:#878787;fill-rule:nonzero;"/><path d="M93.004,944.929c0,-17.112 -13.893,-31.004 -31.004,-31.004c-17.112,0 -31.004,13.893 -31.004,31.004c0,17.112 13.893,31.004 31.004,31.004c17.112,0 31.004,-13.893 31.004,-31.004Z" style="fill:none;stroke:#1d1d1b;stroke-width:2.36px;"/><path d="M-0.008,62.13l124.017,0" style="fill:none;fill-rule:nonzero;stroke:#1d1d1b;stroke-width:2.36px;"/><path d="M-0.008,1001.019l124.017,0" style="fill:none;fill-rule:nonzero;stroke:#1d1d1b;stroke-width:2.36px;"/><path d="M43.134,186.952l12.575,0l0,-12.575l12.579,0l0,12.575l12.575,0l0,12.575l-12.575,0l0,12.579l-12.579,0l0,-12.579l-12.575,0l0,-12.575Z" style="fill:#6f6f6e;fill-rule:nonzero;stroke:#1d1d1b;stroke-width:1.18px;"/><path d="M43.134,111.783l12.575,0l0,-12.575l12.579,0l0,12.575l12.575,0l0,12.575l-12.575,0l0,12.579l-12.579,0l0,-12.579l-12.575,0l0,-12.575Z" style="fill:#6f6f6e;fill-rule:nonzero;stroke:#1d1d1b;stroke-width:1.18px;"/><path d="M43.134,262.12l12.575,0l0,-12.575l12.579,0l0,12.575l12.575,0l0,12.575l-12.575,0l0,12.579l-12.579,0l0,-12.579l-12.575,0l0,-12.575Z" style="fill:#6f6f6e;fill-rule:nonzero;stroke:#1d1d1b;stroke-width:1.18px;"/><path d="M43.134,337.289l12.575,0l0,-12.575l12.579,0l0,12.575l12.575,0l0,12.575l-12.575,0l0,12.579l-12.579,0l0,-12.579l-12.575,0l0,-12.575Z" style="fill:#6f6f6e;fill-rule:nonzero;stroke:#1d1d1b;stroke-width:1.18px;"/><path d="M43.134,412.458l12.575,0l0,-12.575l12.579,0l0,12.575l12.575,0l0,12.575l-12.575,0l0,12.579l-12.579,0l0,-12.579l-12.575,0l0,-12.575Z" style="fill:#6f6f6e;fill-rule:nonzero;stroke:#1d1d1b;stroke-width:1.18px;"/><path d="M43.134,487.627l12.575,0l0,-12.575l12.579,0l0,12.575l12.575,0l0,12.575l-12.575,0l0,12.579l-12.579,0l0,-12.579l-12.575,0l0,-12.575Z" style="fill:#6f6f6e;fill-rule:nonzero;stroke:#1d1d1b;stroke-width:1.18px;"/><path d="M43.134,565.272l12.575,0l0,-12.575l12.579,0l0,12.575l12.575,0l0,12.575l-12.575,0l0,12.579l-12.579,0l0,-12.579l-12.575,0l0,-12.575Z" style="fill:#6f6f6e;fill-rule:nonzero;stroke:#1d1d1b;stroke-width:1.18px;"/><path d="M43.134,637.965l12.575,0l0,-12.575l12.579,0l0,12.575l12.575,0l0,12.575l-12.575,0l0,12.579l-12.579,0l0,-12.579l-12.575,0l0,-12.575Z" style="fill:#6f6f6e;fill-rule:nonzero;stroke:#1d1d1b;stroke-width:1.18px;"/><path d="M43.134,713.134l12.575,0l0,-12.575l12.579,0l0,12.575l12.575,0l0,12.575l-12.575,0l0,12.579l-12.579,0l0,-12.579l-12.575,0l0,-12.575Z" style="fill:#6f6f6e;fill-rule:nonzero;stroke:#1d1d1b;stroke-width:1.18px;"/><path d="M43.134,788.302l12.575,0l0,-12.575l12.579,0l0,12.575l12.575,0l0,12.575l-12.575,0l0,12.579l-12.579,0l0,-12.579l-12.575,0l0,-12.575Z" style="fill:#6f6f6e;fill-rule:nonzero;stroke:#1d1d1b;stroke-width:1.18px;"/><path d="M43.134,863.471l12.575,0l0,-12.575l12.579,0l0,12.575l12.575,0l0,12.575l-12.575,0l0,12.579l-12.579,0l0,-12.579l-12.575,0l0,-12.575Z" style="fill:#6f6f6e;fill-rule:nonzero;stroke:#1d1d1b;stroke-width:1.18px;"/><path d="M43.134,938.64l12.575,0l0,-12.575l12.579,0l0,12.575l12.575,0l0,12.575l-12.575,0l0,12.579l-12.579,0l0,-12.579l-12.575,0l0,-12.575Z" style="fill:#6f6f6e;fill-rule:nonzero;stroke:#1d1d1b;stroke-width:1.18px;"/></g></svg>