<?xml version="1.0" encoding="UTF-8" standalone="no"?><!DOCTYPE svg PUBLIC "-//W3C//DTD SVG 1.1//EN" "http://www.w3.org/Graphics/SVG/1.1/DTD/svg11.dtd"><svg width="100%" height="100%" viewBox="0 0 456 473" version="1.1" xmlns="http://www.w3.org/2000/svg" xmlns:xlink="http://www.w3.org/1999/xlink" xml:space="preserve" xmlns:serif="http://www.serif.com/" style="fill-rule:evenodd;clip-rule:evenodd;stroke-miterlimit:10;"><g id="Warstwa-1" serif:id="Warstwa 1"><g><rect x="306.085" y="0.279" width="150" height="472.442" style="fill:#71b62f;stroke:#1d1d1b;stroke-width:4.17px;"/><path d="M419.093,65.248c0,20.992 -17.017,38.008 -38.008,38.008c-20.992,0 -38.008,-17.017 -38.008,-38.008c0,-20.992 17.017,-38.008 38.008,-38.008c20.992,0 38.008,17.017 38.008,38.008" style="fill:#ececec;fill-rule:nonzero;"/><path d="M419.093,65.248c0,-20.977 -17.031,-38.008 -38.008,-38.008c-20.977,0 -38.008,17.031 -38.008,38.008c0,20.977 17.031,38.008 38.008,38.008c20.977,0 38.008,-17.031 38.008,-38.008Z" style="fill:none;stroke:#1d1d1b;stroke-width:4.17px;"/><path d="M419.093,397.611c0,20.992 -17.017,38.008 -38.008,38.008c-20.992,0 -38.008,-17.017 -38.008,-38.008c0,-20.992 17.017,-38.008 38.008,-38.008c20.992,0 38.008,17.017 38.008,38.008" style="fill:#ececec;fill-rule:nonzero;"/><path d="M419.093,397.611c0,-20.977 -17.031,-38.008 -38.008,-38.008c-20.977,0 -38.008,17.031 -38.008,38.008c0,20.977 17.031,38.008 38.008,38.008c20.977,0 38.008,-17.031 38.008,-38.008Z" style="fill:none;stroke:#1d1d1b;stroke-width:4.17px;"/><rect x="152.881" y="0.279" width="150" height="472.442" style="fill:#71b62f;stroke:#1d1d1b;stroke-width:4.17px;"/><path d="M265.889,65.248c0,20.992 -17.017,38.008 -38.008,38.008c-20.992,0 -38.008,-17.017 -38.008,-38.008c0,-20.992 17.017,-38.008 38.008,-38.008c20.992,0 38.008,17.017 38.008,38.008" style="fill:#ececec;fill-rule:nonzero;"/><path d="M265.889,65.248c0,-20.977 -17.031,-38.008 -38.008,-38.008c-20.977,0 -38.008,17.031 -38.008,38.008c0,20.977 17.031,38.008 38.008,38.008c20.977,0 38.008,-17.031 38.008,-38.008Z" style="fill:none;stroke:#1d1d1b;stroke-width:4.17px;"/><path d="M265.889,397.611c0,20.992 -17.017,38.008 -38.008,38.008c-20.992,0 -38.008,-17.017 -38.008,-38.008c0,-20.992 17.017,-38.008 38.008,-38.008c20.992,0 38.008,17.017 38.008,38.008" style="fill:#ececec;fill-rule:nonzero;"/><path d="M265.889,397.611c0,-20.977 -17.031,-38.008 -38.008,-38.008c-20.977,0 -38.008,17.031 -38.008,38.008c0,20.977 17.031,38.008 38.008,38.008c20.977,0 38.008,-17.031 38.008,-38.008Z" style="fill:none;stroke:#1d1d1b;stroke-width:4.17px;"/><rect x="-0.085" y="0.279" width="150" height="472.442" style="fill:#71b62f;stroke:#1d1d1b;stroke-width:4.17px;"/><text x="14.147px" y="257.3px" style="font-family:'ArialMT', 'Arial', sans-serif;font-size:70.866px;fill:#1d1d1b;">P<tspan x="52.04px 89.932px 131.735px 166.012px 203.904px 241.797px 283.6px 315.397px 353.29px 391.182px " y="257.3px 257.3px 257.3px 257.3px 257.3px 257.3px 257.3px 257.3px 257.3px 257.3px ">EN PEN PEN</tspan></text><path d="M112.92,65.248c0,20.992 -17.017,38.008 -38.008,38.008c-20.992,0 -38.008,-17.017 -38.008,-38.008c0,-20.992 17.017,-38.008 38.008,-38.008c20.992,0 38.008,17.017 38.008,38.008" style="fill:#ececec;fill-rule:nonzero;"/><path d="M112.92,65.248c0,-20.977 -17.031,-38.008 -38.008,-38.008c-20.977,0 -38.008,17.031 -38.008,38.008c0,20.977 17.031,38.008 38.008,38.008c20.977,0 38.008,-17.031 38.008,-38.008Z" style="fill:none;stroke:#1d1d1b;stroke-width:4.17px;"/><path d="M112.92,397.611c0,20.992 -17.017,38.008 -38.008,38.008c-20.992,0 -38.008,-17.017 -38.008,-38.008c0,-20.992 17.017,-38.008 38.008,-38.008c20.992,0 38.008,17.017 38.008,38.008" style="fill:#ececec;fill-rule:nonzero;"/><path d="M112.92,397.611c0,-20.977 -17.031,-38.008 -38.008,-38.008c-20.977,0 -38.008,17.031 -38.008,38.008c0,20.977 17.031,38.008 38.008,38.008c20.977,0 38.008,-17.031 38.008,-38.008Z" style="fill:none;stroke:#1d1d1b;stroke-width:4.17px;"/><path d="M82.877,133.999l-15.929,0c-26.092,0 -47.242,-21.15 -47.242,-47.246l0,-84.004l110.417,0l0,84.004c0,26.096 -21.154,47.246 -47.246,47.246Z" style="fill:none;fill-rule:nonzero;stroke:#1d1d1b;stroke-width:4.17px;"/><path d="M235.845,133.999l-15.929,0c-26.092,0 -47.242,-21.15 -47.242,-47.246l0,-84.004l110.417,0l0,84.004c0,26.096 -21.154,47.246 -47.246,47.246Z" style="fill:none;fill-rule:nonzero;stroke:#1d1d1b;stroke-width:4.17px;"/><path d="M389.05,133.999l-15.929,0c-26.092,0 -47.242,-21.15 -47.242,-47.246l0,-84.004l110.417,0l0,84.004c0,26.096 -21.154,47.246 -47.246,47.246Z" style="fill:none;fill-rule:nonzero;stroke:#1d1d1b;stroke-width:4.17px;"/><path d="M373.003,338.234l15.929,0c26.092,0 47.242,21.15 47.242,47.246l0,84.004l-110.417,0l0,-84.004c0,-26.096 21.154,-47.246 47.246,-47.246Z" style="fill:none;fill-rule:nonzero;stroke:#1d1d1b;stroke-width:4.17px;"/><path d="M220.035,338.234l15.929,0c26.092,0 47.242,21.15 47.242,47.246l0,84.004l-110.417,0l0,-84.004c0,-26.096 21.154,-47.246 47.246,-47.246Z" style="fill:none;fill-rule:nonzero;stroke:#1d1d1b;stroke-width:4.17px;"/><path d="M66.83,338.234l15.929,0c26.092,0 47.242,21.15 47.242,47.246l0,84.004l-110.417,0l0,-84.004c0,-26.096 21.154,-47.246 47.246,-47.246Z" style="fill:none;fill-rule:nonzero;stroke:#1d1d1b;stroke-width:4.17px;"/></g></g></svg>