<svg width="100%" height="100%" viewBox="0 0 626 980" version="1.1" xmlns="http://www.w3.org/2000/svg" xmlns:xlink="http://www.w3.org/1999/xlink" style="fill-rule:evenodd;clip-rule:evenodd;stroke-linecap:square;stroke-miterlimit:1.5;"><g><rect x="-0.269" y="-0.157" width="626.539" height="980.315" style="fill:url(#_Linear1);stroke:#000;stroke-width:4.9px;"/><path d="M522.794,766.094l0,214.082" style="fill:none;stroke:#100;stroke-width:1.87px;"/><path d="M518.794,0.843l0,195.304" style="fill:none;stroke:#100;stroke-width:1.87px;"/><ellipse cx="522.544" cy="901.629" rx="39.595" ry="40.68" style="fill:url(#_Radial2);stroke:#000;stroke-width:5px;stroke-linecap:round;stroke-linejoin:round;"/><ellipse cx="518.794" cy="78.86" rx="39.595" ry="40.68" style="fill:url(#_Radial3);stroke:#000;stroke-width:5px;stroke-linecap:round;stroke-linejoin:round;"/><path d="M542.254,72.842l-17.828,0l0,-17.828l-10.764,0l0,17.828l-17.828,0l0,12.036l17.828,0l0,17.828l10.764,0l0,-17.828l17.828,0l0,-12.036Z" style="fill:#dedede;stroke:#000;stroke-width:4.17px;"/><path d="M545.754,895.611l-17.828,0l0,-17.828l-10.764,0l0,17.828l-17.828,0l0,12.036l17.828,0l0,17.828l10.764,0l0,-17.828l17.828,0l0,-12.036Z" style="fill:#dedede;stroke:#000;stroke-width:4.17px;"/><path d="M247.148,476.014l-0,-17.092l123.968,0l0,17.092l-123.968,0" style="fill:none;stroke:#000;stroke-width:4.17px;"/><path d="M371.116,620.434l26.204,0l0,-161.513l-26.204,0l0,17.092" style="fill:none;stroke:#000;stroke-width:4.17px;"/><path d="M41.747,476.014l0,-17.092l-26.187,0l0,161.513l26.187,0" style="fill:none;stroke:#000;stroke-width:4.17px;"/><path d="M247.148,476.014l0,-17.092l-26.187,0l0,161.513l26.187,0" style="fill:none;stroke:#000;stroke-width:4.17px;"/><path d="M41.434,476.014l-0,-17.092l123.968,0l0,17.092l-123.968,0" style="fill:none;stroke:#000;stroke-width:4.17px;"/><path d="M165.402,620.434l26.204,0l0,-161.513l-26.204,0l0,17.092" style="fill:none;stroke:#000;stroke-width:4.17px;"/><g transform="matrix(0.973322,0,0,1,-31.229701,0)"><g transform="matrix(31.311524,0,0,31.311524,197.304391,436.686012)"></g><text x="73.709px" y="436.686px" style="font-family:'ArialMT', 'Arial', sans-serif;font-size:31.312px;">230V <tspan x="153.808px 174.692px " y="436.686px 436.686px ">AC</tspan></text></g><path d="M452.862,476.014l-0,-17.092l123.968,0l0,17.092l-123.968,0" style="fill:none;stroke:#000;stroke-width:4.17px;"/><path d="M576.83,620.434l26.204,0l0,-161.513l-26.204,0l0,17.092" style="fill:none;stroke:#000;stroke-width:4.17px;"/><path d="M452.862,476.014l0,-17.092l-26.187,0l0,161.513l26.187,0" style="fill:none;stroke:#000;stroke-width:4.17px;"/><path d="M626.269,207.379l0,546.461c0,6.763 -5.49,12.253 -12.253,12.253l-601.532,0c-6.763,0 -12.253,-5.49 -12.253,-12.253l0,-546.461c0,-6.763 5.49,-12.253 12.253,-12.253l601.532,0c6.763,0 12.253,5.49 12.253,12.253Z" style="fill:none;stroke:#000;stroke-width:3.99px;"/><path d="M103.577,766.094l0,214.082" style="fill:none;stroke:#100;stroke-width:1.87px;"/><path d="M102.577,-0.157l0,195.304" style="fill:none;stroke:#100;stroke-width:1.87px;"/><ellipse cx="103.577" cy="901.629" rx="39.595" ry="40.68" style="fill:url(#_Radial4);stroke:#000;stroke-width:5px;stroke-linecap:round;stroke-linejoin:round;"/><ellipse cx="102.577" cy="78.86" rx="39.595" ry="40.68" style="fill:url(#_Radial5);stroke:#000;stroke-width:5px;stroke-linecap:round;stroke-linejoin:round;"/><path d="M126.037,72.842l-17.828,0l0,-17.828l-10.764,0l0,17.828l-17.828,0l0,12.036l17.828,0l0,17.828l10.764,0l0,-17.828l17.828,0l0,-12.036Z" style="fill:#dedede;stroke:#000;stroke-width:4.17px;"/><path d="M126.537,895.611l-17.828,0l0,-17.828l-10.764,0l0,17.828l-17.828,0l0,12.036l17.828,0l0,17.828l10.764,0l0,-17.828l17.828,0l0,-12.036Z" style="fill:#dedede;stroke:#000;stroke-width:4.17px;"/><rect x="35.338" y="233.491" width="541.492" height="21.538" style="fill:#0D79F2;stroke:#000;stroke-width:3.74px;"/><path d="M411.865,-0.157l0,980.315" style="fill:none;stroke:#100;stroke-width:2.99px;"/><path d="M206.89,-0.157l0,980.315" style="fill:none;stroke:#100;stroke-width:2.99px;"/><path d="M309.59,766.075l0,214.082" style="fill:none;stroke:#100;stroke-width:1.87px;"/><path d="M309.59,-0.176l0,195.304" style="fill:none;stroke:#100;stroke-width:1.87px;"/><ellipse cx="309.34" cy="901.611" rx="39.595" ry="40.68" style="fill:url(#_Radial6);stroke:#000;stroke-width:5px;stroke-linecap:round;stroke-linejoin:round;"/><ellipse cx="309.59" cy="78.86" rx="39.595" ry="40.68" style="fill:url(#_Radial7);stroke:#000;stroke-width:5px;stroke-linecap:round;stroke-linejoin:round;"/><path d="M333.05,72.842l-17.828,0l0,-17.828l-10.764,0l0,17.828l-17.828,0l0,12.036l17.828,0l0,17.828l10.764,0l0,-17.828l17.828,0l0,-12.036Z" style="fill:#dedede;stroke:#000;stroke-width:4.17px;"/><path d="M332.55,895.593l-17.828,0l0,-17.828l-10.764,0l0,17.828l-17.828,0l0,12.036l17.828,0l0,17.828l10.764,0l0,-17.828l17.828,0l0,-12.036Z" style="fill:#dedede;stroke:#000;stroke-width:4.17px;"/><path d="M41.434,632.53l0,-156.506l123.968,0l0,100.824l81.746,0l0,-100.824l123.968,0l0,100.824l81.746,0l0,-100.824l123.968,0l0,156.506c0,10.244 -8.317,18.561 -18.561,18.561l-498.275,0c-10.244,0 -18.561,-8.317 -18.561,-18.561Z" style="fill:url(#_Linear8);stroke:#000;stroke-width:4.17px;"/><path d="M41.434,632.53l535.397,0" style="fill:none;stroke:#100;stroke-width:4.17px;stroke-linejoin:bevel;"/><path d="M452.862,576.849l123.968,0" style="fill:none;stroke:#100;stroke-width:4.17px;stroke-linejoin:bevel;"/><path d="M247.148,576.849l123.968,0" style="fill:none;stroke:#100;stroke-width:4.17px;stroke-linejoin:bevel;"/><path d="M165.402,576.849l-123.968,0" style="fill:none;stroke:#100;stroke-width:4.17px;stroke-linejoin:bevel;"/><g transform="matrix(0.973322,0,0,1,-30.775022,0)"><g transform="matrix(51.127002,0,0,51.127002,599.78258,539.679991)"></g><text x="523.092px" y="539.68px" style="font-family:'ArialMT', 'Arial', sans-serif;font-size:51.127px;">ON</text></g><g transform="matrix(0.973322,0,0,1,-36.263091,0)"><g transform="matrix(51.127002,0,0,51.127002,394.068525,539.679991)"></g><text x="317.378px" y="539.68px" style="font-family:'ArialMT', 'Arial', sans-serif;font-size:51.127px;">ON</text></g><g transform="matrix(0.973322,0,0,1,-41.751159,0)"><g transform="matrix(51.127002,0,0,51.127002,188.35447,539.679991)"></g><text x="111.664px" y="539.68px" style="font-family:'ArialMT', 'Arial', sans-serif;font-size:51.127px;">ON</text></g><g transform="matrix(50,0,0,50,126.736329,362.712894)"></g><text x="37.771px" y="362.713px" style="font-family:'ArialMT', 'Arial', sans-serif;font-size:50px;">{{CURRENT}}</text></g><defs><linearGradient id="_Linear1" x1="0" y1="0" x2="1" y2="0" gradientUnits="userSpaceOnUse" gradientTransform="matrix(0,980.314961,-1446.153612,0,313,-0.15748)"><stop offset="0" style="stop-color:#fff;stop-opacity:1"/><stop offset="0.75" style="stop-color:#fff;stop-opacity:1"/><stop offset="0.79" style="stop-color:#9f9e9e;stop-opacity:1"/><stop offset="0.82" style="stop-color:#d2d1d1;stop-opacity:1"/><stop offset="1" style="stop-color:#fff;stop-opacity:1"/></linearGradient><radialGradient id="_Radial2" cx="0" cy="0" r="1" gradientUnits="userSpaceOnUse" gradientTransform="matrix(39.595051,0,0,40.680326,522.543782,901.629204)"><stop offset="0" style="stop-color:#fff;stop-opacity:1"/><stop offset="0.24" style="stop-color:#f3f3f3;stop-opacity:1"/><stop offset="0.24" style="stop-color:#f3f3f3;stop-opacity:1"/><stop offset="1" style="stop-color:#7a7a7a;stop-opacity:1"/><stop offset="1" style="stop-color:#6b6b6b;stop-opacity:1"/></radialGradient><radialGradient id="_Radial3" cx="0" cy="0" r="1" gradientUnits="userSpaceOnUse" gradientTransform="matrix(39.595051,0,0,40.680326,518.793847,78.860279)"><stop offset="0" style="stop-color:#fff;stop-opacity:1"/><stop offset="0.24" style="stop-color:#f3f3f3;stop-opacity:1"/><stop offset="0.24" style="stop-color:#f3f3f3;stop-opacity:1"/><stop offset="1" style="stop-color:#7a7a7a;stop-opacity:1"/><stop offset="1" style="stop-color:#6b6b6b;stop-opacity:1"/></radialGradient><radialGradient id="_Radial4" cx="0" cy="0" r="1" gradientUnits="userSpaceOnUse" gradientTransform="matrix(39.595051,0,0,40.680326,103.577237,901.629204)"><stop offset="0" style="stop-color:#fff;stop-opacity:1"/><stop offset="0.24" style="stop-color:#f3f3f3;stop-opacity:1"/><stop offset="0.24" style="stop-color:#f3f3f3;stop-opacity:1"/><stop offset="1" style="stop-color:#7a7a7a;stop-opacity:1"/><stop offset="1" style="stop-color:#6b6b6b;stop-opacity:1"/></radialGradient><radialGradient id="_Radial5" cx="0" cy="0" r="1" gradientUnits="userSpaceOnUse" gradientTransform="matrix(39.595051,0,0,40.680326,102.577237,78.860279)"><stop offset="0" style="stop-color:#fff;stop-opacity:1"/><stop offset="0.24" style="stop-color:#f3f3f3;stop-opacity:1"/><stop offset="0.24" style="stop-color:#f3f3f3;stop-opacity:1"/><stop offset="1" style="stop-color:#7a7a7a;stop-opacity:1"/><stop offset="1" style="stop-color:#6b6b6b;stop-opacity:1"/></radialGradient><radialGradient id="_Radial6" cx="0" cy="0" r="1" gradientUnits="userSpaceOnUse" gradientTransform="matrix(39.595051,0,0,40.680326,309.339626,901.610842)"><stop offset="0" style="stop-color:#fff;stop-opacity:1"/><stop offset="0.24" style="stop-color:#f3f3f3;stop-opacity:1"/><stop offset="0.24" style="stop-color:#f3f3f3;stop-opacity:1"/><stop offset="1" style="stop-color:#7a7a7a;stop-opacity:1"/><stop offset="1" style="stop-color:#6b6b6b;stop-opacity:1"/></radialGradient><radialGradient id="_Radial7" cx="0" cy="0" r="1" gradientUnits="userSpaceOnUse" gradientTransform="matrix(39.595051,0,0,40.680326,309.589692,78.860279)"><stop offset="0" style="stop-color:#fff;stop-opacity:1"/><stop offset="0.24" style="stop-color:#f3f3f3;stop-opacity:1"/><stop offset="0.24" style="stop-color:#f3f3f3;stop-opacity:1"/><stop offset="1" style="stop-color:#7a7a7a;stop-opacity:1"/><stop offset="1" style="stop-color:#6b6b6b;stop-opacity:1"/></radialGradient><linearGradient id="_Linear8" x1="0" y1="0" x2="1" y2="0" gradientUnits="userSpaceOnUse" gradientTransform="matrix(0,169.503439,-184.440802,0,309.131854,476.024375)"><stop offset="0" style="stop-color:#fff;stop-opacity:1"/><stop offset="0" style="stop-color:#0D79F2;stop-opacity:1"/><stop offset="0.21" style="stop-color:#0D79F2;stop-opacity:1"/><stop offset="0.28" style="stop-color:#0D79F2;stop-opacity:1"/><stop offset="0.35" style="stop-color:#0D79F2;stop-opacity:1"/><stop offset="0.58" style="stop-color:#0D79F2;stop-opacity:1"/><stop offset="0.79" style="stop-color:#0D79F2;stop-opacity:1"/><stop offset="1" style="stop-color:#0D79F2;stop-opacity:1"/></linearGradient></defs></svg>
