<svg width="100%" height="100%" viewBox="0 0 413 980" version="1.1" xmlns="http://www.w3.org/2000/svg" xmlns:xlink="http://www.w3.org/1999/xlink" style="fill-rule:evenodd;clip-rule:evenodd;stroke-linecap:square;stroke-miterlimit:1.5;"><g><rect x="-0.286" y="-0.157" width="413.572" height="980.315" style="fill:url(#_Linear1);stroke:#000;stroke-width:4.9px;"/><path d="M247.131,476.014l-0,-17.092l123.968,0l0,17.092l-123.968,0" style="fill:none;stroke:#000;stroke-width:4.17px;"/><path d="M103.56,-0.157l0,195.304" style="fill:none;stroke:#100;stroke-width:1.87px;"/><path d="M371.099,620.434l26.204,0l0,-161.513l-26.204,0l0,17.092" style="fill:none;stroke:#000;stroke-width:4.17px;"/><path d="M41.73,476.014l0,-17.092l-26.187,0l0,161.513l26.187,0" style="fill:none;stroke:#000;stroke-width:4.17px;"/><path d="M247.131,476.014l0,-17.092l-26.187,0l0,161.513l26.187,0" style="fill:none;stroke:#000;stroke-width:4.17px;"/><path d="M41.417,476.014l-0,-17.092l123.968,0l0,17.092l-123.968,0" style="fill:none;stroke:#000;stroke-width:4.17px;"/><path d="M165.385,620.434l26.204,0l0,-161.513l-26.204,0l0,17.092" style="fill:none;stroke:#000;stroke-width:4.17px;"/><g transform="matrix(0.973322,0,0,1,-31.230149,0)"><g transform="matrix(31.311524,0,0,31.311524,197.287617,437.66965)"></g><text x="73.693px" y="437.67px" style="font-family:'ArialMT', 'Arial', sans-serif;font-size:31.312px;">230V <tspan x="153.791px 174.675px " y="437.67px 437.67px ">AC</tspan></text></g><path d="M413.286,207.379l0,546.461c0,6.763 -5.49,12.253 -12.253,12.253l-388.566,0c-6.763,0 -12.253,-5.49 -12.253,-12.253l0,-546.461c0,-6.763 5.49,-12.253 12.253,-12.253l388.566,0c6.763,0 12.253,5.49 12.253,12.253Z" style="fill:none;stroke:#000;stroke-width:3.99px;"/><path d="M103.56,766.094l0,214.082" style="fill:none;stroke:#100;stroke-width:1.87px;"/><ellipse cx="103.56" cy="901.629" rx="39.595" ry="40.68" style="fill:url(#_Radial2);stroke:#000;stroke-width:5px;stroke-linecap:round;stroke-linejoin:round;"/><ellipse cx="103.31" cy="77.923" rx="39.595" ry="40.68" style="fill:url(#_Radial3);stroke:#000;stroke-width:5px;stroke-linecap:round;stroke-linejoin:round;"/><path d="M126.77,71.905l-17.828,0l0,-17.828l-10.764,0l0,17.828l-17.828,0l0,12.036l17.828,0l0,17.828l10.764,0l0,-17.828l17.828,0l0,-12.036Z" style="fill:#dedede;stroke:#000;stroke-width:4.17px;"/><path d="M126.52,895.611l-17.828,0l0,-17.828l-10.764,0l0,17.828l-17.828,0l0,12.036l17.828,0l0,17.828l10.764,0l0,-17.828l17.828,0l0,-12.036Z" style="fill:#dedede;stroke:#000;stroke-width:4.17px;"/><rect x="35.321" y="233.491" width="335.778" height="21.538" style="fill:#d97706;stroke:#000;stroke-width:3.74px;"/><path d="M206.873,-0.157l0,980.315" style="fill:none;stroke:#100;stroke-width:2.99px;"/><path d="M309.573,766.075l0,214.082" style="fill:none;stroke:#100;stroke-width:1.87px;"/><path d="M309.573,-0.176l0,195.304" style="fill:none;stroke:#100;stroke-width:1.87px;"/><ellipse cx="309.323" cy="901.611" rx="39.595" ry="40.68" style="fill:url(#_Radial4);stroke:#000;stroke-width:5px;stroke-linecap:round;stroke-linejoin:round;"/><ellipse cx="310.323" cy="77.905" rx="39.595" ry="40.68" style="fill:url(#_Radial5);stroke:#000;stroke-width:5px;stroke-linecap:round;stroke-linejoin:round;"/><path d="M333.783,71.887l-17.828,0l0,-17.828l-10.764,0l0,17.828l-17.828,0l0,12.036l17.828,0l0,17.828l10.764,0l0,-17.828l17.828,0l0,-12.036Z" style="fill:#dedede;stroke:#000;stroke-width:4.17px;"/><path d="M332.533,895.593l-17.828,0l0,-17.828l-10.764,0l0,17.828l-17.828,0l0,12.036l17.828,0l0,17.828l10.764,0l0,-17.828l17.828,0l0,-12.036Z" style="fill:#dedede;stroke:#000;stroke-width:4.17px;"/><path d="M41.417,632.53l0,-156.517l123.968,0l0,100.835l81.405,0l0,-100.824l123.968,0l0,156.506c0,10.244 -8.317,18.561 -18.561,18.561l-292.221,0c-10.244,0 -18.561,-8.317 -18.561,-18.561Z" style="fill:url(#_Linear6);stroke:#100;stroke-width:3.99px;stroke-linecap:butt;"/><path d="M246.79,576.849l123.968,0" style="fill:none;stroke:#100;stroke-width:3.99px;stroke-linecap:butt;"/><path d="M165.385,576.849l-123.968,0" style="fill:none;stroke:#100;stroke-width:3.99px;stroke-linecap:butt;"/><path d="M41.417,632.53l329.342,0" style="fill:none;stroke:#100;stroke-width:3.99px;stroke-linecap:butt;"/><g transform="matrix(0.973322,0,0,1,-36.263538,0)"><g transform="matrix(51.127002,0,0,51.127002,394.051751,539.679991)"></g><text x="317.361px" y="539.68px" style="font-family:'ArialMT', 'Arial', sans-serif;font-size:51.127px;">ON</text></g><g transform="matrix(0.973322,0,0,1,-41.751607,0)"><g transform="matrix(51.127002,0,0,51.127002,188.337696,539.679991)"></g><text x="111.647px" y="539.68px" style="font-family:'ArialMT', 'Arial', sans-serif;font-size:51.127px;">ON</text></g><g transform="matrix(50,0,0,50,126.719555,362.712894)"></g><text x="37.755px" y="362.713px" style="font-family:'ArialMT', 'Arial', sans-serif;font-size:50px;">{{CURRENT}}</text></g><defs><linearGradient id="_Linear1" x1="0" y1="0" x2="1" y2="0" gradientUnits="userSpaceOnUse" gradientTransform="matrix(0,980.314961,-954.592271,0,206.5,-0.15748)"><stop offset="0" style="stop-color:#fff;stop-opacity:1"/><stop offset="0.75" style="stop-color:#fff;stop-opacity:1"/><stop offset="0.79" style="stop-color:#9f9e9e;stop-opacity:1"/><stop offset="0.82" style="stop-color:#d2d1d1;stop-opacity:1"/><stop offset="1" style="stop-color:#fff;stop-opacity:1"/></linearGradient><radialGradient id="_Radial2" cx="0" cy="0" r="1" gradientUnits="userSpaceOnUse" gradientTransform="matrix(39.595051,0,0,40.680326,103.560463,901.629204)"><stop offset="0" style="stop-color:#fff;stop-opacity:1"/><stop offset="0.24" style="stop-color:#f3f3f3;stop-opacity:1"/><stop offset="0.24" style="stop-color:#f3f3f3;stop-opacity:1"/><stop offset="1" style="stop-color:#7a7a7a;stop-opacity:1"/><stop offset="1" style="stop-color:#6b6b6b;stop-opacity:1"/></radialGradient><radialGradient id="_Radial3" cx="0" cy="0" r="1" gradientUnits="userSpaceOnUse" gradientTransform="matrix(39.595051,0,0,40.680326,103.310398,77.923295)"><stop offset="0" style="stop-color:#fff;stop-opacity:1"/><stop offset="0.24" style="stop-color:#f3f3f3;stop-opacity:1"/><stop offset="0.24" style="stop-color:#f3f3f3;stop-opacity:1"/><stop offset="1" style="stop-color:#7a7a7a;stop-opacity:1"/><stop offset="1" style="stop-color:#6b6b6b;stop-opacity:1"/></radialGradient><radialGradient id="_Radial4" cx="0" cy="0" r="1" gradientUnits="userSpaceOnUse" gradientTransform="matrix(39.595051,0,0,40.680326,309.322853,901.610842)"><stop offset="0" style="stop-color:#fff;stop-opacity:1"/><stop offset="0.24" style="stop-color:#f3f3f3;stop-opacity:1"/><stop offset="0.24" style="stop-color:#f3f3f3;stop-opacity:1"/><stop offset="1" style="stop-color:#7a7a7a;stop-opacity:1"/><stop offset="1" style="stop-color:#6b6b6b;stop-opacity:1"/></radialGradient><radialGradient id="_Radial5" cx="0" cy="0" r="1" gradientUnits="userSpaceOnUse" gradientTransform="matrix(39.595051,0,0,40.680326,310.322853,77.904932)"><stop offset="0" style="stop-color:#fff;stop-opacity:1"/><stop offset="0.24" style="stop-color:#f3f3f3;stop-opacity:1"/><stop offset="0.24" style="stop-color:#f3f3f3;stop-opacity:1"/><stop offset="1" style="stop-color:#7a7a7a;stop-opacity:1"/><stop offset="1" style="stop-color:#6b6b6b;stop-opacity:1"/></radialGradient><linearGradient id="_Linear6" x1="0" y1="0" x2="1" y2="0" gradientUnits="userSpaceOnUse" gradientTransform="matrix(0,175.077513,-175.077513,0,103.401025,476.013505)"><stop offset="0" style="stop-color:#fff;stop-opacity:1"/><stop offset="0" style="stop-color:#ea8c21;stop-opacity:1"/><stop offset="0.21" style="stop-color:#f0a955;stop-opacity:1"/><stop offset="0.28" style="stop-color:#fde8ce;stop-opacity:1"/><stop offset="0.35" style="stop-color:#f0a854;stop-opacity:1"/><stop offset="0.58" style="stop-color:#e9891c;stop-opacity:1"/><stop offset="0.79" style="stop-color:#dc7d13;stop-opacity:1"/><stop offset="1" style="stop-color:#c86a0b;stop-opacity:1"/></linearGradient></defs></svg>
