<svg width="100%" height="100%" viewBox="0 0 207 980" version="1.1" xmlns="http://www.w3.org/2000/svg" xmlns:xlink="http://www.w3.org/1999/xlink" style="fill-rule:evenodd;clip-rule:evenodd;stroke-linecap:square;stroke-miterlimit:1.5;"><g><g><rect x="0.107" y="-0.167" width="206.786" height="980.315" style="fill:url(#_Linear1);stroke:#000;stroke-width:4.9px;"/><path d="M103.954,-0.167l0,195.304" style="fill:none;stroke:#100;stroke-width:1.87px;"/><path d="M42.123,476.004l0,-17.092l-26.187,0l0,161.513l26.187,0" style="fill:none;stroke:#000;stroke-width:4.17px;"/><path d="M41.81,476.004l-0,-17.092l123.968,0l0,17.092l-123.968,0" style="fill:none;stroke:#000;stroke-width:4.17px;"/><path d="M165.778,620.425l26.204,0l0,-161.513l-26.204,0l0,17.092" style="fill:none;stroke:#000;stroke-width:4.17px;"/><g transform="matrix(0.973322,0,0,1,-31.219663,0)"><g transform="matrix(31.311524,0,0,31.311524,197.680679,437.660468)"></g><text x="74.086px" y="437.66px" style="font-family:'ArialMT', 'Arial', sans-serif;font-size:31.312px;">230V <tspan x="154.184px 175.068px " y="437.66px 437.66px ">AC</tspan></text></g><path d="M206.481,207.37l0,546.461c0,6.763 -5.49,12.253 -12.253,12.253l-181.367,0c-6.763,0 -12.253,-5.49 -12.253,-12.253l0,-546.461c0,-6.763 5.49,-12.253 12.253,-12.253l181.367,0c6.763,0 12.253,5.49 12.253,12.253Z" style="fill:none;stroke:#000;stroke-width:3.99px;"/><path d="M103.954,766.085l0,214.082" style="fill:none;stroke:#100;stroke-width:1.87px;"/><ellipse cx="103.954" cy="901.62" rx="39.595" ry="40.68" style="fill:url(#_Radial2);stroke:#000;stroke-width:5px;stroke-linecap:round;stroke-linejoin:round;"/><ellipse cx="103.703" cy="77.914" rx="39.595" ry="40.68" style="fill:url(#_Radial3);stroke:#000;stroke-width:5px;stroke-linecap:round;stroke-linejoin:round;"/><path d="M127.163,71.896l-17.828,0l0,-17.828l-10.764,0l0,17.828l-17.828,0l0,12.036l17.828,0l0,17.828l10.764,0l0,-17.828l17.828,0l0,-12.036Z" style="fill:#dedede;stroke:#000;stroke-width:4.17px;"/><path d="M126.913,895.602l-17.828,0l0,-17.828l-10.764,0l0,17.828l-17.828,0l0,12.036l17.828,0l0,17.828l10.764,0l0,-17.828l17.828,0l0,-12.036Z" style="fill:#dedede;stroke:#000;stroke-width:4.17px;"/><rect x="35.714" y="233.481" width="132.591" height="21.538" style="fill:#0D79F2;stroke:#000;stroke-width:3.74px;"/><path d="M165.778,576.839l-123.968,0" style="fill:none;stroke:#100;stroke-width:3.99px;stroke-linecap:butt;"/><g transform="matrix(0.973322,0,0,1,-41.741121,-0)"><g transform="matrix(51.127002,0,0,51.127002,188.730758,539.67081)"></g><text x="112.04px" y="539.671px" style="font-family:'ArialMT', 'Arial', sans-serif;font-size:51.127px;">ON</text></g><g transform="matrix(50,0,0,50,127.112617,362.703713)"></g><text x="38.148px" y="362.704px" style="font-family:'ArialMT', 'Arial', sans-serif;font-size:50px;">{{CURRENT}}</text><path d="M41.81,632.521l0,-156.517l123.968,0l0,156.517c0,10.244 -8.317,18.561 -18.561,18.561l-86.847,0c-10.244,0 -18.561,-8.317 -18.561,-18.561Z" style="fill:url(#_Linear4);stroke:#100;stroke-width:3.99px;stroke-linecap:butt;"/><path d="M165.778,577.357l-123.968,0" style="fill:none;stroke:#100;stroke-width:3.99px;stroke-linecap:butt;"/><path d="M41.81,632.207l123.968,0" style="fill:none;stroke:#100;stroke-width:3.99px;stroke-linecap:butt;"/></g></g><defs><linearGradient id="_Linear1" x1="0" y1="0" x2="1" y2="0" gradientUnits="userSpaceOnUse" gradientTransform="matrix(0,980.314961,-477.296135,0,103.5,-0.166661)"><stop offset="0" style="stop-color:#fff;stop-opacity:1"/><stop offset="0.75" style="stop-color:#fff;stop-opacity:1"/><stop offset="0.79" style="stop-color:#9f9e9e;stop-opacity:1"/><stop offset="0.82" style="stop-color:#d2d1d1;stop-opacity:1"/><stop offset="1" style="stop-color:#fff;stop-opacity:1"/></linearGradient><radialGradient id="_Radial2" cx="0" cy="0" r="1" gradientUnits="userSpaceOnUse" gradientTransform="matrix(39.595051,0,0,40.680326,103.953525,901.620023)"><stop offset="0" style="stop-color:#fff;stop-opacity:1"/><stop offset="0.24" style="stop-color:#f3f3f3;stop-opacity:1"/><stop offset="0.24" style="stop-color:#f3f3f3;stop-opacity:1"/><stop offset="1" style="stop-color:#7a7a7a;stop-opacity:1"/><stop offset="1" style="stop-color:#6b6b6b;stop-opacity:1"/></radialGradient><radialGradient id="_Radial3" cx="0" cy="0" r="1" gradientUnits="userSpaceOnUse" gradientTransform="matrix(39.595051,0,0,40.680326,103.70346,77.914114)"><stop offset="0" style="stop-color:#fff;stop-opacity:1"/><stop offset="0.24" style="stop-color:#f3f3f3;stop-opacity:1"/><stop offset="0.24" style="stop-color:#f3f3f3;stop-opacity:1"/><stop offset="1" style="stop-color:#7a7a7a;stop-opacity:1"/><stop offset="1" style="stop-color:#6b6b6b;stop-opacity:1"/></radialGradient><linearGradient id="_Linear4" x1="0" y1="0" x2="1" y2="0" gradientUnits="userSpaceOnUse" gradientTransform="matrix(0,175.077513,-175.077513,0,103.794087,476.004324)"><stop offset="0" style="stop-color:#fff;stop-opacity:1"/><stop offset="0" style="stop-color:#0D79F2;stop-opacity:1"/><stop offset="0.21" style="stop-color:#0D79F2;stop-opacity:1"/><stop offset="0.28" style="stop-color:#0D79F2;stop-opacity:1"/><stop offset="0.35" style="stop-color:#0D79F2;stop-opacity:1"/><stop offset="0.58" style="stop-color:#0D79F2;stop-opacity:1"/><stop offset="0.79" style="stop-color:#0D79F2;stop-opacity:1"/><stop offset="1" style="stop-color:#0D79F2;stop-opacity:1"/></linearGradient></defs></svg>
