<svg width="100%" height="100%" viewBox="0 0 827 980" version="1.1" xmlns="http://www.w3.org/2000/svg" xmlns:xlink="http://www.w3.org/1999/xlink" style="fill-rule:evenodd;clip-rule:evenodd;stroke-miterlimit:1.5;"><g><g><rect x="1.114" y="-0.157" width="826.772" height="980.315" style="fill:url(#_Linear1);"/><path d="M827.886,-0.157l0,980.315l-826.772,0l0,-980.315l826.772,0Zm-5,5l-816.772,0l-0,970.315l816.772,-0l-0,-970.315Z"/><path d="M155.128,1.843l0,105.529c0,19.854 -16.119,35.972 -35.972,35.972l-35.972,0c-19.854,0 -35.972,-16.119 -35.972,-35.972l0,-105.529l107.917,0Zm-2.152,2.152l-103.612,-0l0,103.377c0,18.666 15.154,33.82 33.82,33.82l35.972,0c18.666,0 33.82,-15.154 33.82,-33.82l0,-103.377Z" style="fill:#100;"/><path d="M680.254,978.674l0,-105.529c0,-19.854 16.119,-35.972 35.972,-35.972l35.972,0c19.854,0 35.972,16.119 35.972,35.972l0,105.529l-107.917,0Zm2.152,-2.152l103.612,0l0,-103.377c0,-18.666 -15.154,-33.82 -33.82,-33.82l-35.972,0c-18.666,0 -33.82,15.154 -33.82,33.82l-0,103.377Z" style="fill:#100;"/><path d="M365.729,1.843l0,105.529c0,19.854 -16.119,35.972 -35.972,35.972l-35.972,0c-19.854,0 -35.972,-16.119 -35.972,-35.972l0,-105.529l107.917,0Zm-2.152,2.152l-103.612,-0l0,103.377c0,18.666 15.154,33.82 33.82,33.82l35.972,0c18.666,0 33.82,-15.154 33.82,-33.82l0,-103.377Z" style="fill:#100;"/><path d="M469.654,978.674l0,-105.529c0,-19.854 16.119,-35.972 35.972,-35.972l35.972,0c19.854,0 35.972,16.119 35.972,35.972l0,105.529l-107.917,0Zm2.152,-2.152l103.612,0l0,-103.377c0,-18.666 -15.154,-33.82 -33.82,-33.82l-35.972,0c-18.666,0 -33.82,15.154 -33.82,33.82l-0,103.377Z" style="fill:#100;"/><path d="M576.142,1.843l0,105.529c0,19.854 -16.119,35.972 -35.972,35.972l-35.972,0c-19.854,0 -35.972,-16.119 -35.972,-35.972l0,-105.529l107.917,0Zm-2.152,2.152l-103.612,-0l0,103.377c0,18.666 15.154,33.82 33.82,33.82l35.972,0c18.666,0 33.82,-15.154 33.82,-33.82l0,-103.377Z" style="fill:#100;"/><path d="M260.241,978.674l0,-105.529c0,-19.854 16.119,-35.972 35.972,-35.972l35.972,0c19.854,0 35.972,16.119 35.972,35.972l0,105.529l-107.917,0Zm2.152,-2.152l103.612,0l0,-103.377c0,-18.666 -15.154,-33.82 -33.82,-33.82l-35.972,0c-18.666,0 -33.82,15.154 -33.82,33.82l-0,103.377Z" style="fill:#100;"/><path d="M786.555,1.843l0,105.529c0,19.854 -16.119,35.972 -35.972,35.972l-35.972,0c-19.854,0 -35.972,-16.119 -35.972,-35.972l0,-105.529l107.917,0Zm-2.152,2.152l-103.612,-0l0,103.377c0,18.666 15.154,33.82 33.82,33.82l35.972,0c18.666,0 33.82,-15.154 33.82,-33.82l0,-103.377Z" style="fill:#100;"/><path d="M49.828,978.674l0,-105.529c0,-19.854 16.119,-35.972 35.972,-35.972l35.972,0c19.854,0 35.972,16.119 35.972,35.972l0,105.529l-107.917,0Zm2.152,-2.152l103.612,0l0,-103.377c0,-18.666 -15.154,-33.82 -33.82,-33.82l-35.972,0c-18.666,0 -33.82,15.154 -33.82,33.82l-0,103.377Z" style="fill:#100;"/><g transform="matrix(1,0,0,0.997662,0,-1.665132)"><g transform="matrix(51.24683,0,0,51.24683,815.660227,183.543096)"></g><text x="778.651px" y="183.543px" style="font-family:'ArialMT', 'Arial', sans-serif;font-size:51.247px;">N</text></g><g transform="matrix(1,0,0,0.997662,0,-0.130756)"><g transform="matrix(51.24683,0,0,51.24683,813.209297,839.750208)"></g><text x="776.2px" y="839.75px" style="font-family:'ArialMT', 'Arial', sans-serif;font-size:51.247px;">N</text></g><path d="M200.382,468.417l0,137.929c0,3.933 -3.193,7.127 -7.127,7.127l-21.38,0l0,-152.183l21.38,0c3.933,0 7.127,3.193 7.127,7.127Zm-3.266,-0c0,-2.131 -1.73,-3.861 -3.861,-3.861l-18.114,0l-0,145.651l18.115,0c2.131,0 3.861,-1.73 3.861,-3.861l0,-137.929Z" style="fill:#100;"/><path d="M52.21,461.29l0,152.183l-21.38,0c-3.933,0 -7.127,-3.193 -7.127,-7.127l0,-137.929c0,-3.933 3.193,-7.127 7.127,-7.127l21.38,0Zm-3.34,3.34l-18.04,0c-2.09,0 -3.787,1.697 -3.787,3.787l0,137.929c0,2.09 1.697,3.787 3.787,3.787l18.04,-0l0,-145.503Z" style="fill:#100;"/><path d="M175.874,461.29l0,18.876l-127.665,0l-0,-18.876l127.665,0Zm-3.34,3.34l-120.985,0l0,12.196l120.985,-0l0,-12.196Z" style="fill:#100;"/><path d="M175.874,476.024l0,183.02c0,3.574 -2.902,6.476 -6.476,6.476l-114.713,0c-3.574,0 -6.476,-2.902 -6.476,-6.476l0,-183.02l127.665,0Z" style="fill:url(#_Linear2);"/><path d="M175.874,476.024l0,183.02c0,3.574 -2.902,6.476 -6.476,6.476l-114.713,0c-3.574,0 -6.476,-2.902 -6.476,-6.476l0,-183.02l127.665,0Zm-3.34,3.34l-120.985,-0l0,179.68c0,1.731 1.405,3.136 3.136,3.136l114.713,0c1.731,0 3.136,-1.405 3.136,-3.136l0,-179.68Z"/><path d="M48.21,570.737l127.665,0" style="fill:none;stroke:#100;stroke-width:2.52px;"/><path d="M48.21,634.963l127.665,0" style="fill:none;stroke:#100;stroke-width:2.3px;"/><g transform="matrix(1,0,0,0.997662,0,-1.265047)"><g transform="matrix(51.24683,0,0,51.24683,151.340495,542.212867)"></g><text x="74.47px" y="542.213px" style="font-family:'ArialMT', 'Arial', sans-serif;font-size:51.247px;">ON</text></g><g transform="matrix(1,0,0,0.997662,0,-1.320173)"><g transform="matrix(45.176403,0,0,45.176403,148.175928,385.618589)"></g><text x="67.794px" y="385.619px" style="font-family:'ArialMT', 'Arial', sans-serif;font-size:45.176px;">{{CURRENT}}</text></g><g transform="matrix(1,0,0,0.997662,0,-0.234667)"><g transform="matrix(25.657392,0,0,25.657392,219.818993,744.768393)"></g><text x="20.636px" y="744.768px" style="font-family:'ArialMT', 'Arial', sans-serif;font-size:25.657px;">RCD-40/30 <tspan x="155.638px 169.895px 182.724px 196.993px 202.706px " y="744.768px 744.768px 744.768px 744.768px 744.768px ">Typ A</tspan></text></g><g transform="matrix(1,0,0,0.997662,0,-0.65417)"><g transform="matrix(31.384909,0,0,31.384909,677.362887,748.828629)"></g><text x="553.478px" y="748.829px" style="font-family:'ArialMT', 'Arial', sans-serif;font-size:31.385px;">230V <tspan x="633.764px 654.698px " y="748.829px 748.829px ">AC</tspan></text></g><rect x="543.657" y="434.083" width="143.234" height="55.917" style="fill:#e8ff4a;"/><path d="M686.891,434.083l0,55.917l-143.234,0l0,-55.917l143.234,0Zm-4.167,4.167l-134.9,0l0,47.584l134.9,-0l0,-47.584Z"/><rect x="78.272" y="231.793" width="670.457" height="21.538" style="fill:#0D79F2;"/><path d="M748.728,231.793l0,21.538l-670.457,0l0,-21.538l670.457,0Zm-1.856,1.856l-666.745,0l0,17.827l666.745,-0l0,-17.827Z"/><path d="M686.891,337.858l0,76.284c0,3.568 -2.897,6.465 -6.465,6.465l-135.205,0c-3.568,0 -6.465,-2.897 -6.465,-6.465l0,-76.284c0,-3.568 2.897,-6.465 6.465,-6.465l135.205,0c3.568,0 6.465,2.897 6.465,6.465Zm-2.004,0c0,-2.462 -1.999,-4.461 -4.461,-4.461l-135.205,0c-2.462,0 -4.461,1.999 -4.461,4.461l0,76.284c0,2.462 1.999,4.461 4.461,4.461l135.205,0c2.462,0 4.461,-1.999 4.461,-4.461l0,-76.284Z"/><ellipse cx="311.839" cy="78.348" rx="40.776" ry="40.68" style="fill:url(#_Radial3);"/><path d="M311.839,37.668c22.505,0 40.776,18.228 40.776,40.68c0,22.452 -18.271,40.68 -40.776,40.68c-22.505,0 -40.776,-18.228 -40.776,-40.68c0,-22.452 18.271,-40.68 40.776,-40.68Zm0,2.969c-20.864,0 -37.807,16.896 -37.807,37.711c0,20.815 16.943,37.711 37.807,37.711c20.864,0 37.807,-16.896 37.807,-37.711c0,-20.815 -16.943,-37.711 -37.807,-37.711Z"/><ellipse cx="523.544" cy="902.168" rx="40.776" ry="40.68" style="fill:url(#_Radial4);"/><path d="M523.544,942.848c-22.505,0 -40.776,-18.228 -40.776,-40.68c0,-22.452 18.271,-40.68 40.776,-40.68c22.505,0 40.776,18.228 40.776,40.68c0,22.452 -18.271,40.68 -40.776,40.68Zm0,-2.969c20.864,0 37.807,-16.896 37.807,-37.711c0,-20.815 -16.943,-37.711 -37.807,-37.711c-20.864,0 -37.807,16.896 -37.807,37.711c0,20.815 16.943,37.711 37.807,37.711Z"/><ellipse cx="101.17" cy="78.348" rx="40.776" ry="40.68" style="fill:url(#_Radial5);"/><path d="M101.17,37.668c22.505,0 40.776,18.228 40.776,40.68c0,22.452 -18.271,40.68 -40.776,40.68c-22.505,0 -40.776,-18.228 -40.776,-40.68c0,-22.452 18.271,-40.68 40.776,-40.68Zm0,3.117c-20.782,0 -37.658,16.829 -37.658,37.563c0,20.734 16.876,37.563 37.658,37.563c20.782,0 37.658,-16.829 37.658,-37.563c0,-20.734 -16.876,-37.563 -37.658,-37.563Z"/><ellipse cx="734.213" cy="902.168" rx="40.776" ry="40.68" style="fill:url(#_Radial6);"/><path d="M734.213,942.848c-22.505,0 -40.776,-18.228 -40.776,-40.68c0,-22.452 18.271,-40.68 40.776,-40.68c22.505,0 40.776,18.228 40.776,40.68c0,22.452 -18.271,40.68 -40.776,40.68Zm0,-3.117c20.782,0 37.658,-16.829 37.658,-37.563c0,-20.734 -16.876,-37.563 -37.658,-37.563c-20.782,0 -37.658,16.829 -37.658,37.563c0,20.734 16.876,37.563 37.658,37.563Z"/><ellipse cx="205.97" cy="78.348" rx="27.091" ry="27.028" style="fill:#c8c5c5;"/><path d="M205.97,51.321c14.952,0 27.091,12.111 27.091,27.028c0,14.917 -12.139,27.028 -27.091,27.028c-14.952,0 -27.091,-12.111 -27.091,-27.028c0,-14.917 12.139,-27.028 27.091,-27.028Zm0,2.152c-13.763,0 -24.939,11.145 -24.939,24.875c0,13.73 11.176,24.875 24.939,24.875c13.763,0 24.939,-11.145 24.939,-24.875c0,-13.73 -11.176,-24.875 -24.939,-24.875Z"/><ellipse cx="629.413" cy="902.168" rx="27.091" ry="27.028" style="fill:#c8c5c5;"/><path d="M629.413,929.196c-14.952,0 -27.091,-12.111 -27.091,-27.028c0,-14.917 12.139,-27.028 27.091,-27.028c14.952,0 27.091,12.111 27.091,27.028c0,14.917 -12.139,27.028 -27.091,27.028Zm0,-2.152c13.763,0 24.939,-11.145 24.939,-24.875c0,-13.73 -11.176,-24.875 -24.939,-24.875c-13.763,0 -24.939,11.145 -24.939,24.875c0,13.73 11.176,24.875 24.939,24.875Z"/><path d="M826.886,207.379l0,546.461c0,6.763 -5.49,12.253 -12.253,12.253l-801.75,0c-6.763,0 -12.253,-5.49 -12.253,-12.253l0,-546.461c0,-6.763 5.49,-12.253 12.253,-12.253l801.75,0c6.763,0 12.253,5.49 12.253,12.253Zm-4.808,-0c-0,-4.109 -3.336,-7.445 -7.445,-7.445l-801.75,0c-4.109,0 -7.445,3.336 -7.445,7.445l0,546.461c0,4.109 3.336,7.445 7.445,7.445l801.75,0c4.109,0 7.445,-3.336 7.445,-7.445l-0,-546.461Z"/><path d="M675.14,345.911l0,59.649c0,3.122 -2.535,5.656 -5.656,5.656l-114.276,0c-3.122,0 -5.656,-2.535 -5.656,-5.656l0,-59.649c0,-3.122 2.535,-5.656 5.656,-5.656l114.276,0c3.122,0 5.656,2.535 5.656,5.656Z" style="fill:url(#_Radial7);"/><path d="M675.14,345.911l0,59.649c0,3.122 -2.535,5.656 -5.656,5.656l-114.276,0c-3.122,0 -5.656,-2.535 -5.656,-5.656l0,-59.649c0,-3.122 2.535,-5.656 5.656,-5.656l114.276,0c3.122,0 5.656,2.535 5.656,5.656Zm-4.167,-0c-0,-0.822 -0.668,-1.49 -1.49,-1.49l-114.276,0c-0.822,0 -1.49,0.668 -1.49,1.49l0,59.649c0,0.822 0.668,1.49 1.49,1.49l114.276,0c0.822,0 1.49,-0.668 1.49,-1.49l-0,-59.649Z"/><g transform="matrix(1,0,0,0.997662,0,-2.850691)"><g transform="matrix(69.575798,0,0,69.575798,633.954305,404.640424)"></g><text x="591.455px" y="404.64px" style="font-family:'ArialMT', 'Arial', sans-serif;font-size:69.576px;">T</text></g><g transform="matrix(1,0,0,0.997662,0,-1.568242)"><g transform="matrix(43.004281,0,0,43.004281,670.509513,479.878048)"></g><text x="558.169px" y="479.878px" style="font-family:'ArialMT', 'Arial', sans-serif;font-size:43.004px;">30mA</text></g><rect x="184.82" y="1.843" width="44.3" height="37.589" style="fill:#c8c5c5;"/><path d="M229.12,1.843l0,37.589l-44.3,0l0,-37.589l44.3,0Zm-2.152,2.152l-39.995,-0l0,33.284l39.995,0l0,-33.284Z" style="fill:#100;"/><rect x="606.263" y="941.085" width="44.3" height="37.589" style="fill:#c8c5c5;"/><path d="M606.263,978.674l0,-37.589l44.3,0l0,37.589l-44.3,0Zm2.152,-2.152l39.995,0l-0,-33.284l-39.995,-0l-0,33.284Z" style="fill:#100;"/><path d="M125.072,72.819l-18.317,0l0,-18.317l-11.171,0l0,18.317l-18.317,0l0,11.059l18.317,0l0,18.317l11.171,0l0,-18.317l18.317,0l0,-11.059Z" style="fill:#dedede;"/><path d="M125.072,72.819l0,11.059l-18.317,0l0,18.317l-11.171,0l0,-18.317l-18.317,0l0,-11.059l18.317,0l0,-18.317l11.171,0l0,18.317l18.317,0Zm-3.563,3.563l-18.317,0l0,-18.317l-4.045,-0l0,18.317l-18.317,0l-0,3.934l18.317,0l-0,18.317l4.045,0l0,-18.317l18.317,-0l0,-3.934Z"/><path d="M710.311,907.698l18.317,0l0,18.317l11.171,0l0,-18.317l18.317,0l0,-11.059l-18.317,0l0,-18.317l-11.171,0l0,18.317l-18.317,0l0,11.059Z" style="fill:#dedede;"/><path d="M710.311,907.698l0,-11.059l18.317,0l0,-18.317l11.171,0l0,18.317l18.317,-0l0,11.059l-18.317,0l0,18.317l-11.171,0l0,-18.317l-18.317,0Zm3.563,-3.563l18.317,-0l-0,18.317l4.045,0l0,-18.317l18.317,-0l0,-3.934l-18.317,0l0,-18.317l-4.045,-0l0,18.317l-18.317,0l-0,3.934Z"/><path d="M335.741,72.819l-18.317,0l0,-18.317l-11.171,0l0,18.317l-18.317,0l0,11.059l18.317,0l0,18.317l11.171,0l0,-18.317l18.317,0l0,-11.059Z" style="fill:#dedede;"/><path d="M335.741,72.819l0,11.059l-18.317,0l0,18.317l-11.171,0l0,-18.317l-18.317,0l0,-11.059l18.317,0l0,-18.317l11.171,0l0,18.317l18.317,0Zm-3.711,3.711l-18.317,-0l0,-18.317l-3.748,0l0,18.317l-18.317,0l0,3.637l18.317,0l-0,18.317l3.748,-0l0,-18.317l18.317,-0l-0,-3.637Z"/><path d="M499.642,907.698l18.317,0l0,18.317l11.171,0l0,-18.317l18.317,0l0,-11.059l-18.317,0l0,-18.317l-11.171,0l0,18.317l-18.317,0l0,11.059Z" style="fill:#dedede;"/><path d="M499.642,907.698l0,-11.059l18.317,0l0,-18.317l11.171,0l0,18.317l18.317,0l0,11.059l-18.317,0l0,18.317l-11.171,0l0,-18.317l-18.317,0Zm3.711,-3.711l18.317,0l-0,18.317l3.748,-0l0,-18.317l18.317,-0l-0,-3.637l-18.317,0l0,-18.317l-3.748,0l0,18.317l-18.317,0l0,3.637Z"/><rect x="605.351" y="1.359" width="44.3" height="37.589" style="fill:#c8c5c5;"/><path d="M649.651,1.359l0,37.589l-44.3,0l0,-37.589l44.3,0Zm-2.227,2.227l-39.846,0l-0,33.136l39.846,-0l0,-33.136Z" style="fill:#100;"/><rect x="186.732" y="941.568" width="44.3" height="37.589" style="fill:#c8c5c5;"/><path d="M186.732,979.157l0,-37.589l44.3,0l0,37.589l-44.3,0Zm2.227,-2.227l39.846,-0l0,-33.136l-39.846,0l-0,33.136Z" style="fill:#100;"/><ellipse cx="627.911" cy="78.44" rx="27.091" ry="27.028" style="fill:#c8c5c5;"/><path d="M627.911,51.412c14.952,0 27.091,12.111 27.091,27.028c0,14.917 -12.139,27.028 -27.091,27.028c-14.952,0 -27.091,-12.111 -27.091,-27.028c0,-14.917 12.139,-27.028 27.091,-27.028Zm0,2.227c-13.722,0 -24.864,11.112 -24.864,24.801c0,13.69 11.143,24.801 24.864,24.801c13.722,0 24.864,-11.112 24.864,-24.801c0,-13.69 -11.143,-24.801 -24.864,-24.801Z"/><ellipse cx="208.472" cy="903.077" rx="27.091" ry="27.028" style="fill:#c8c5c5;"/><path d="M208.472,930.105c-14.952,0 -27.091,-12.111 -27.091,-27.028c0,-14.917 12.139,-27.028 27.091,-27.028c14.952,0 27.091,12.111 27.091,27.028c0,14.917 -12.139,27.028 -27.091,27.028Zm0,-2.227c13.722,0 24.864,-11.112 24.864,-24.801c0,-13.69 -11.143,-24.801 -24.864,-24.801c-13.722,0 -24.864,11.112 -24.864,24.801c0,13.69 11.143,24.801 24.864,24.801Z"/><ellipse cx="732.779" cy="77.44" rx="40.776" ry="40.68" style="fill:url(#_Radial8);"/><path d="M732.779,36.76c22.505,0 40.776,18.228 40.776,40.68c0,22.452 -18.271,40.68 -40.776,40.68c-22.505,0 -40.776,-18.228 -40.776,-40.68c0,-22.452 18.271,-40.68 40.776,-40.68Zm0,3.117c-20.782,0 -37.658,16.829 -37.658,37.563c0,20.734 16.876,37.563 37.658,37.563c20.782,0 37.658,-16.829 37.658,-37.563c0,-20.734 -16.876,-37.563 -37.658,-37.563Z"/><ellipse cx="103.604" cy="903.077" rx="40.776" ry="40.68" style="fill:url(#_Radial9);"/><path d="M103.604,943.757c-22.505,0 -40.776,-18.228 -40.776,-40.68c0,-22.452 18.271,-40.68 40.776,-40.68c22.505,0 40.776,18.228 40.776,40.68c0,22.452 -18.271,40.68 -40.776,40.68Zm0,-3.117c20.782,0 37.658,-16.829 37.658,-37.563c0,-20.734 -16.876,-37.563 -37.658,-37.563c-20.782,0 -37.658,16.829 -37.658,37.563c0,20.734 16.876,37.563 37.658,37.563Z"/><ellipse cx="522.11" cy="77.44" rx="40.776" ry="40.68" style="fill:url(#_Radial10);"/><path d="M522.11,36.76c22.505,0 40.776,18.228 40.776,40.68c0,22.452 -18.271,40.68 -40.776,40.68c-22.505,0 -40.776,-18.228 -40.776,-40.68c0,-22.452 18.271,-40.68 40.776,-40.68Zm0,2.821c-20.946,0 -37.955,16.963 -37.955,37.86c0,20.897 17.009,37.86 37.955,37.86c20.946,0 37.955,-16.963 37.955,-37.86c0,-20.897 -17.009,-37.86 -37.955,-37.86Z"/><ellipse cx="314.272" cy="903.077" rx="40.776" ry="40.68" style="fill:url(#_Radial11);"/><path d="M314.272,943.757c-22.505,0 -40.776,-18.228 -40.776,-40.68c0,-22.452 18.271,-40.68 40.776,-40.68c22.505,0 40.776,18.228 40.776,40.68c0,22.452 -18.271,40.68 -40.776,40.68Zm0,-2.821c20.946,0 37.955,-16.963 37.955,-37.86c0,-20.897 -17.009,-37.86 -37.955,-37.86c-20.946,0 -37.955,16.963 -37.955,37.86c0,20.897 17.009,37.86 37.955,37.86Z"/><path d="M546.012,71.91l-18.317,0l0,-18.317l-11.171,0l0,18.317l-18.317,0l0,11.059l18.317,0l0,18.317l11.171,0l0,-18.317l18.317,0l0,-11.059Z" style="fill:#dedede;"/><path d="M546.012,71.91l0,11.059l-18.317,0l0,18.317l-11.171,0l0,-18.317l-18.317,0l0,-11.059l18.317,0l0,-18.317l11.171,0l0,18.317l18.317,0Zm-3.637,3.637l-18.317,-0l-0,-18.317l-3.897,-0l-0,18.317l-18.317,-0l-0,3.785l18.317,-0l0,18.317l3.897,0l-0,-18.317l18.317,0l0,-3.785Z"/><path d="M289.37,908.606l18.317,0l0,18.317l11.171,0l0,-18.317l18.317,0l0,-11.059l-18.317,0l0,-18.317l-11.171,0l0,18.317l-18.317,0l0,11.059Z" style="fill:#dedede;"/><path d="M289.37,908.606l0,-11.059l18.317,0l0,-18.317l11.171,0l0,18.317l18.317,0l0,11.059l-18.317,0l0,18.317l-11.171,0l0,-18.317l-18.317,0Zm3.637,-3.637l18.317,0l0,18.317l3.897,0l0,-18.317l18.317,0l0,-3.785l-18.317,0l-0,-18.317l-3.897,-0l-0,18.317l-18.317,-0l-0,3.785Z"/><path d="M756.681,71.91l-18.317,0l0,-18.317l-11.171,0l0,18.317l-18.317,0l0,11.059l18.317,0l0,18.317l11.171,0l0,-18.317l18.317,0l0,-11.059Z" style="fill:#dedede;"/><path d="M756.681,71.91l0,11.059l-18.317,0l0,18.317l-11.171,0l0,-18.317l-18.317,0l0,-11.059l18.317,0l0,-18.317l11.171,0l0,18.317l18.317,0Zm-3.563,3.563l-18.317,0l0,-18.317l-4.045,-0l0,18.317l-18.317,0l-0,3.934l18.317,-0l-0,18.317l4.045,0l0,-18.317l18.317,-0l0,-3.934Z" style="fill:#100;"/><path d="M79.702,908.606l18.317,0l0,18.317l11.171,0l0,-18.317l18.317,0l0,-11.059l-18.317,0l0,-18.317l-11.171,0l0,18.317l-18.317,0l0,11.059Z" style="fill:#dedede;"/><path d="M79.702,908.606l0,-11.059l18.317,0l0,-18.317l11.171,0l0,18.317l18.317,0l0,11.059l-18.317,0l0,18.317l-11.171,0l0,-18.317l-18.317,0Zm3.563,-3.563l18.317,-0l-0,18.317l4.045,0l0,-18.317l18.317,-0l0,-3.934l-18.317,0l0,-18.317l-4.045,-0l-0,18.317l-18.317,0l-0,3.934Z" style="fill:#100;"/></g></g><rect x="292.287" y="490" width="242.426" height="193.941" style="fill:none;"/><circle cx="340.772" cy="520.303" r="3.03" style="fill:#fff;stroke:#000;stroke-width:1.52px;stroke-miterlimit:4;"/><text x="328.651px" y="523.334px" style="font-family:'Arial-BoldMT', 'Arial', sans-serif;font-weight:700;font-size:8.485px;">1</text><text x="328.651px" y="514.243px" style="font-family:'Arial-BoldMT', 'Arial', sans-serif;font-weight:700;font-size:8.485px;">L1</text><path d="M340.772,523.334l0,27.273" style="fill:none;fill-rule:nonzero;stroke:#000;stroke-width:1.52px;stroke-linecap:round;stroke-linejoin:round;stroke-miterlimit:4;"/><circle cx="340.772" cy="550.607" r="1.818" style="fill:#fff;stroke:#000;stroke-width:1.52px;stroke-miterlimit:4;"/><path d="M340.772,574.849l-12.121,-24.243" style="fill:none;fill-rule:nonzero;stroke:#000;stroke-width:1.52px;stroke-linecap:round;stroke-linejoin:round;stroke-miterlimit:4;"/><circle cx="340.772" cy="574.849" r="1.515"/><path d="M340.772,574.849l0,87.88" style="fill:none;fill-rule:nonzero;stroke:#000;stroke-width:1.52px;stroke-linecap:round;stroke-linejoin:round;stroke-miterlimit:4;"/><circle cx="340.772" cy="665.759" r="3.03" style="fill:#fff;stroke:#000;stroke-width:1.52px;stroke-miterlimit:4;"/><text x="328.651px" y="668.789px" style="font-family:'Arial-BoldMT', 'Arial', sans-serif;font-weight:700;font-size:8.485px;">2</text><circle cx="377.136" cy="520.303" r="3.03" style="fill:#fff;stroke:#000;stroke-width:1.52px;stroke-miterlimit:4;"/><text x="365.015px" y="523.334px" style="font-family:'Arial-BoldMT', 'Arial', sans-serif;font-weight:700;font-size:8.485px;">3</text><text x="365.015px" y="514.243px" style="font-family:'Arial-BoldMT', 'Arial', sans-serif;font-weight:700;font-size:8.485px;">L2</text><path d="M377.136,523.334l0,27.273" style="fill:none;fill-rule:nonzero;stroke:#000;stroke-width:1.52px;stroke-linecap:round;stroke-linejoin:round;stroke-miterlimit:4;"/><circle cx="377.136" cy="550.607" r="1.818" style="fill:#fff;stroke:#000;stroke-width:1.52px;stroke-miterlimit:4;"/><path d="M377.136,574.849l-12.121,-24.243" style="fill:none;fill-rule:nonzero;stroke:#000;stroke-width:1.52px;stroke-linecap:round;stroke-linejoin:round;stroke-miterlimit:4;"/><circle cx="377.136" cy="574.849" r="1.515"/><path d="M377.136,574.849l0,87.88" style="fill:none;fill-rule:nonzero;stroke:#000;stroke-width:1.52px;stroke-linecap:round;stroke-linejoin:round;stroke-miterlimit:4;"/><circle cx="377.136" cy="665.759" r="3.03" style="fill:#fff;stroke:#000;stroke-width:1.52px;stroke-miterlimit:4;"/><text x="365.015px" y="668.789px" style="font-family:'Arial-BoldMT', 'Arial', sans-serif;font-weight:700;font-size:8.485px;">4</text><circle cx="413.5" cy="520.303" r="3.03" style="fill:#fff;stroke:#000;stroke-width:1.52px;stroke-miterlimit:4;"/><text x="401.379px" y="523.334px" style="font-family:'Arial-BoldMT', 'Arial', sans-serif;font-weight:700;font-size:8.485px;">5</text><text x="401.379px" y="514.243px" style="font-family:'Arial-BoldMT', 'Arial', sans-serif;font-weight:700;font-size:8.485px;">L3</text><path d="M413.5,523.334l0,27.273" style="fill:none;fill-rule:nonzero;stroke:#000;stroke-width:1.52px;stroke-linecap:round;stroke-linejoin:round;stroke-miterlimit:4;"/><circle cx="413.5" cy="550.607" r="1.818" style="fill:#fff;stroke:#000;stroke-width:1.52px;stroke-miterlimit:4;"/><path d="M413.5,574.849l-12.121,-24.243" style="fill:none;fill-rule:nonzero;stroke:#000;stroke-width:1.52px;stroke-linecap:round;stroke-linejoin:round;stroke-miterlimit:4;"/><circle cx="413.5" cy="574.849" r="1.515"/><path d="M413.5,574.849l0,87.88" style="fill:none;fill-rule:nonzero;stroke:#000;stroke-width:1.52px;stroke-linecap:round;stroke-linejoin:round;stroke-miterlimit:4;"/><circle cx="413.5" cy="665.759" r="3.03" style="fill:#fff;stroke:#000;stroke-width:1.52px;stroke-miterlimit:4;"/><text x="401.379px" y="668.789px" style="font-family:'Arial-BoldMT', 'Arial', sans-serif;font-weight:700;font-size:8.485px;">6</text><circle cx="449.864" cy="520.303" r="3.03" style="fill:#fff;stroke:#000;stroke-width:1.52px;stroke-miterlimit:4;"/><text x="461.985px" y="523.334px" style="font-family:'Arial-BoldMT', 'Arial', sans-serif;font-weight:700;font-size:8.485px;">7</text><text x="461.985px" y="514.243px" style="font-family:'Arial-BoldMT', 'Arial', sans-serif;font-weight:700;font-size:8.485px;">N</text><path d="M449.864,523.334l0,27.273" style="fill:none;fill-rule:nonzero;stroke:#000;stroke-width:1.52px;stroke-linecap:round;stroke-linejoin:round;stroke-miterlimit:4;"/><circle cx="449.864" cy="550.607" r="1.818" style="fill:#fff;stroke:#000;stroke-width:1.52px;stroke-miterlimit:4;"/><path d="M449.864,574.849l-12.121,-24.243" style="fill:none;fill-rule:nonzero;stroke:#000;stroke-width:1.52px;stroke-linecap:round;stroke-linejoin:round;stroke-miterlimit:4;"/><circle cx="449.864" cy="574.849" r="1.515"/><path d="M449.864,574.849l0,87.88" style="fill:none;fill-rule:nonzero;stroke:#000;stroke-width:1.52px;stroke-linecap:round;stroke-linejoin:round;stroke-miterlimit:4;"/><circle cx="449.864" cy="665.759" r="3.03" style="fill:#fff;stroke:#000;stroke-width:1.52px;stroke-miterlimit:4;"/><text x="461.985px" y="668.789px" style="font-family:'Arial-BoldMT', 'Arial', sans-serif;font-weight:700;font-size:8.485px;">8</text><path d="M334.711,562.728l109.092,0" style="fill:none;fill-rule:nonzero;stroke:#000;stroke-width:1.21px;stroke-miterlimit:4;stroke-dasharray:3.636,2.424;"/><ellipse cx="395.318" cy="611.213" rx="66.667" ry="12.121" style="fill:none;stroke:#000;stroke-width:1.52px;stroke-linecap:round;stroke-linejoin:round;stroke-miterlimit:4;"/><path d="M395.318,599.092l0,-36.364" style="fill:none;fill-rule:nonzero;stroke:#000;stroke-width:1.21px;stroke-miterlimit:4;stroke-dasharray:3.636,2.424;"/><path d="M392.288,567.576l6.061,0l-3.03,-4.849l-3.03,4.849Z" style="fill-rule:nonzero;"/><circle cx="413.5" cy="641.517" r="1.818"/><path d="M413.5,641.517l84.849,0" style="fill:none;fill-rule:nonzero;stroke:#000;stroke-width:1.52px;stroke-linecap:round;stroke-linejoin:round;stroke-miterlimit:4;"/><path d="M498.349,641.517l0,-39.394" style="fill:none;fill-rule:nonzero;stroke:#000;stroke-width:1.52px;stroke-linecap:round;stroke-linejoin:round;stroke-miterlimit:4;"/><circle cx="498.349" cy="599.092" r="2.424" style="fill:#fff;stroke:#000;stroke-width:1.52px;stroke-miterlimit:4;"/><path d="M489.258,590.001l18.182,0" style="fill:none;fill-rule:nonzero;stroke:#000;stroke-width:1.52px;stroke-linecap:round;stroke-linejoin:round;stroke-miterlimit:4;"/><path d="M498.349,590.001l0,-9.091" style="fill:none;fill-rule:nonzero;stroke:#000;stroke-width:1.52px;stroke-linecap:round;stroke-linejoin:round;stroke-miterlimit:4;"/><circle cx="498.349" cy="577.88" r="2.424" style="fill:#fff;stroke:#000;stroke-width:1.52px;stroke-miterlimit:4;"/><text x="507.44px" y="592.425px" style="font-family:'Arial-BoldMT', 'Arial', sans-serif;font-weight:700;font-size:8.485px;">T</text><path d="M498.349,574.849l0,-15.152" style="fill:none;fill-rule:nonzero;stroke:#000;stroke-width:1.52px;stroke-linecap:round;stroke-linejoin:round;stroke-miterlimit:4;"/><rect x="493.501" y="535.455" width="9.697" height="24.243" style="fill:#fff;stroke:#000;stroke-width:1.21px;stroke-miterlimit:4;"/><text x="507.44px" y="550.607px" style="font-family:'ArialMT', 'Arial', sans-serif;font-size:7.273px;">R</text><path d="M498.349,535.455l0,-6.061" style="fill:none;fill-rule:nonzero;stroke:#000;stroke-width:1.52px;stroke-linecap:round;stroke-linejoin:round;stroke-miterlimit:4;"/><path d="M498.349,529.394l-48.485,0" style="fill:none;fill-rule:nonzero;stroke:#000;stroke-width:1.52px;stroke-linecap:round;stroke-linejoin:round;stroke-miterlimit:4;"/><circle cx="449.864" cy="529.394" r="1.818"/><defs><linearGradient id="_Linear1" x1="0" y1="0" x2="1" y2="0" gradientUnits="userSpaceOnUse" gradientTransform="matrix(0,980.314961,-1908.32396,0,414.5,-0.15748)"><stop offset="0" style="stop-color:#fff;stop-opacity:1"/><stop offset="0.75" style="stop-color:#fff;stop-opacity:1"/><stop offset="0.8" style="stop-color:#9f9e9e;stop-opacity:1"/><stop offset="0.95" style="stop-color:#ececec;stop-opacity:1"/><stop offset="1" style="stop-color:#fff;stop-opacity:1"/></linearGradient><linearGradient id="_Linear2" x1="0" y1="0" x2="1" y2="0" gradientUnits="userSpaceOnUse" gradientTransform="matrix(0,189.496209,-189.940336,0,112.042084,476.024375)"><stop offset="0" style="stop-color:#fff;stop-opacity:1"/><stop offset="0" style="stop-color:#0D79F2;stop-opacity:1"/><stop offset="0.21" style="stop-color:#0D79F2;stop-opacity:1"/><stop offset="0.28" style="stop-color:#0D79F2;stop-opacity:1"/><stop offset="0.35" style="stop-color:#0D79F2;stop-opacity:1"/><stop offset="0.58" style="stop-color:#0D79F2;stop-opacity:1"/><stop offset="0.79" style="stop-color:#0D79F2;stop-opacity:1"/><stop offset="1" style="stop-color:#0D79F2;stop-opacity:1"/></linearGradient><radialGradient id="_Radial3" cx="0" cy="0" r="1" gradientUnits="userSpaceOnUse" gradientTransform="matrix(40.77567,0,0,40.680326,311.838597,78.348497)"><stop offset="0" style="stop-color:#fff;stop-opacity:1"/><stop offset="0.24" style="stop-color:#f3f3f3;stop-opacity:1"/><stop offset="0.24" style="stop-color:#f3f3f3;stop-opacity:1"/><stop offset="1" style="stop-color:#7a7a7a;stop-opacity:1"/><stop offset="1" style="stop-color:#6b6b6b;stop-opacity:1"/></radialGradient><radialGradient id="_Radial4" cx="0" cy="0" r="1" gradientUnits="userSpaceOnUse" gradientTransform="matrix(-40.77567,-0,0,-40.680326,523.544268,902.1681)"><stop offset="0" style="stop-color:#fff;stop-opacity:1"/><stop offset="0.24" style="stop-color:#f3f3f3;stop-opacity:1"/><stop offset="0.24" style="stop-color:#f3f3f3;stop-opacity:1"/><stop offset="1" style="stop-color:#7a7a7a;stop-opacity:1"/><stop offset="1" style="stop-color:#6b6b6b;stop-opacity:1"/></radialGradient><radialGradient id="_Radial5" cx="0" cy="0" r="1" gradientUnits="userSpaceOnUse" gradientTransform="matrix(40.77567,0,0,40.680326,101.169709,78.348497)"><stop offset="0" style="stop-color:#fff;stop-opacity:1"/><stop offset="0.24" style="stop-color:#f3f3f3;stop-opacity:1"/><stop offset="0.24" style="stop-color:#f3f3f3;stop-opacity:1"/><stop offset="1" style="stop-color:#7a7a7a;stop-opacity:1"/><stop offset="1" style="stop-color:#6b6b6b;stop-opacity:1"/></radialGradient><radialGradient id="_Radial6" cx="0" cy="0" r="1" gradientUnits="userSpaceOnUse" gradientTransform="matrix(-40.77567,-0,0,-40.680326,734.213155,902.1681)"><stop offset="0" style="stop-color:#fff;stop-opacity:1"/><stop offset="0.24" style="stop-color:#f3f3f3;stop-opacity:1"/><stop offset="0.24" style="stop-color:#f3f3f3;stop-opacity:1"/><stop offset="1" style="stop-color:#7a7a7a;stop-opacity:1"/><stop offset="1" style="stop-color:#6b6b6b;stop-opacity:1"/></radialGradient><radialGradient id="_Radial7" cx="0" cy="0" r="1" gradientUnits="userSpaceOnUse" gradientTransform="matrix(0,-89.51808,89.727886,0,612.345026,375.999925)"><stop offset="0" style="stop-color:#fff;stop-opacity:1"/><stop offset="0.09" style="stop-color:#abd1fb;stop-opacity:1"/><stop offset="1" style="stop-color:#0D79F2;stop-opacity:1"/></radialGradient><radialGradient id="_Radial8" cx="0" cy="0" r="1" gradientUnits="userSpaceOnUse" gradientTransform="matrix(40.77567,0,0,40.680326,732.779306,77.439892)"><stop offset="0" style="stop-color:#fff;stop-opacity:1"/><stop offset="0.24" style="stop-color:#f3f3f3;stop-opacity:1"/><stop offset="0.24" style="stop-color:#f3f3f3;stop-opacity:1"/><stop offset="1" style="stop-color:#7a7a7a;stop-opacity:1"/><stop offset="1" style="stop-color:#6b6b6b;stop-opacity:1"/></radialGradient><radialGradient id="_Radial9" cx="0" cy="0" r="1" gradientUnits="userSpaceOnUse" gradientTransform="matrix(-40.77567,-0,0,-40.680326,103.603558,903.076705)"><stop offset="0" style="stop-color:#fff;stop-opacity:1"/><stop offset="0.24" style="stop-color:#f3f3f3;stop-opacity:1"/><stop offset="0.24" style="stop-color:#f3f3f3;stop-opacity:1"/><stop offset="1" style="stop-color:#7a7a7a;stop-opacity:1"/><stop offset="1" style="stop-color:#6b6b6b;stop-opacity:1"/></radialGradient><radialGradient id="_Radial10" cx="0" cy="0" r="1" gradientUnits="userSpaceOnUse" gradientTransform="matrix(40.77567,0,0,40.680326,522.110418,77.439892)"><stop offset="0" style="stop-color:#fff;stop-opacity:1"/><stop offset="0.24" style="stop-color:#f3f3f3;stop-opacity:1"/><stop offset="0.24" style="stop-color:#f3f3f3;stop-opacity:1"/><stop offset="1" style="stop-color:#7a7a7a;stop-opacity:1"/><stop offset="1" style="stop-color:#6b6b6b;stop-opacity:1"/></radialGradient><radialGradient id="_Radial11" cx="0" cy="0" r="1" gradientUnits="userSpaceOnUse" gradientTransform="matrix(-40.77567,-0,0,-40.680326,314.272446,903.076705)"><stop offset="0" style="stop-color:#fff;stop-opacity:1"/><stop offset="0.24" style="stop-color:#f3f3f3;stop-opacity:1"/><stop offset="0.24" style="stop-color:#f3f3f3;stop-opacity:1"/><stop offset="1" style="stop-color:#7a7a7a;stop-opacity:1"/><stop offset="1" style="stop-color:#6b6b6b;stop-opacity:1"/></radialGradient></defs></svg>
