<svg width="465.16" height="1103" viewBox="-0.193 -0.157 413.386 980.315" version="1.1" xmlns="http://www.w3.org/2000/svg" xmlns:xlink="http://www.w3.org/1999/xlink" style="fill-rule:evenodd;clip-rule:evenodd;stroke-miterlimit:1.5;"><g><rect x="-0.193" y="-0.157" width="413.386" height="980.315" style="fill:url(#_Linear1);" /><path d="M413.193,-0.157l0,980.315l-413.386,0l0,-980.315l413.386,0Zm-5,5l-403.386,0l0,970.315l403.386,-0l0,-970.315Z" /><path d="M154.7,-0.157l0,105.584c0,19.824 -16.094,35.918 -35.918,35.918l-35.918,0c-19.824,0 -35.918,-16.094 -35.918,-35.918l0,-105.584l107.753,0Zm-2.152,2.152l-103.448,-0l0,103.431c0,18.636 15.13,33.765 33.765,33.765l35.918,0c18.636,0 33.765,-15.13 33.765,-33.765l0,-103.431Z" style="fill:#100;" /><path d="M364.981,-0.157l0,105.584c0,19.824 -16.094,35.918 -35.918,35.918l-35.918,0c-19.824,0 -35.918,-16.094 -35.918,-35.918l0,-105.584l107.753,0Zm-2.152,2.152l-103.448,-0l0,103.431c0,18.636 15.13,33.765 33.765,33.765l35.918,0c18.636,0 33.765,-15.13 33.765,-33.765l0,-103.431Z" style="fill:#100;" /><path d="M259.652,976.674l0,-105.584c0,-19.824 16.094,-35.918 35.918,-35.918l35.918,0c19.824,0 35.918,16.094 35.918,35.918l0,105.584l-107.753,0Zm2.152,-2.152l103.448,0l0,-103.431c0,-18.636 -15.13,-33.765 -33.765,-33.765l-35.918,0c-18.636,0 -33.765,15.13 -33.765,33.765l-0,103.431Z" style="fill:#100;" /><path d="M49.559,976.674l0,-105.584c0,-19.824 16.094,-35.918 35.918,-35.918l35.918,0c19.824,0 35.918,16.094 35.918,35.918l0,105.584l-107.753,0Zm2.152,-2.152l103.448,0l0,-103.431c0,-18.636 -15.13,-33.765 -33.765,-33.765l-35.918,0c-18.636,0 -33.765,15.13 -33.765,33.765l-0,103.431Z" style="fill:#100;" /><g transform="matrix(1,0,0,0.99918,-0,-0.585374)"><g transform="matrix(51.168945,0,0,51.168945,394.920185,180.181864)"></g><text x="357.968px" y="180.182px" style="font-family:'ArialMT', 'Arial', sans-serif;font-size:51.169px;">N</text></g><g transform="matrix(1,0,0,0.99918,0,-0.047478)"><g transform="matrix(51.168945,0,0,51.168945,392.47298,836.388976)"></g><text x="355.52px" y="836.389px" style="font-family:'ArialMT', 'Arial', sans-serif;font-size:51.169px;">N</text></g><path d="M199.884,466.406l0,137.951c0,3.927 -3.189,7.116 -7.116,7.116l-21.348,0l0,-152.183l21.348,0c3.927,0 7.116,3.189 7.116,7.116Zm-3.266,-0c0,-2.125 -1.725,-3.85 -3.85,-3.85l-18.082,-0l-0,145.651l18.082,0c2.125,0 3.85,-1.725 3.85,-3.85l0,-137.951Z" style="fill:#100;" /><path d="M51.937,459.29l0,152.183l-21.348,0c-3.927,0 -7.116,-3.189 -7.116,-7.116l0,-137.951c0,-3.927 3.189,-7.116 7.116,-7.116l21.348,0Zm-3.34,3.34l-18.008,0c-2.084,0 -3.776,1.692 -3.776,3.776l0,137.951c0,2.084 1.692,3.776 3.776,3.776l18.008,-0l-0,-145.503Z" style="fill:#100;" /><path d="M175.414,459.29l0,18.876l-127.471,0l0,-18.876l127.471,0Zm-3.34,3.34l-120.791,0l0,12.196l120.791,-0l-0,-12.196Z" style="fill:#100;" /><path d="M175.414,474.024l0,183.03c0,3.569 -2.897,6.466 -6.466,6.466l-114.539,0c-3.569,0 -6.466,-2.897 -6.466,-6.466l0,-183.03l127.471,0Z" style="fill:url(#_Linear2);" /><path d="M175.414,474.024l0,183.03c0,3.569 -2.897,6.466 -6.466,6.466l-114.539,0c-3.569,0 -6.466,-2.897 -6.466,-6.466l0,-183.03l127.471,0Zm-3.34,3.34l-120.791,0l0,179.69c0,1.725 1.401,3.126 3.126,3.126l114.539,0c1.725,0 3.126,-1.401 3.126,-3.126l-0,-179.69Z" /><path d="M47.943,568.737l127.471,0" style="fill:none;stroke:#100;stroke-width:2.52px;" /><path d="M47.943,632.963l127.471,0" style="fill:none;stroke:#100;stroke-width:2.3px;" /><g transform="matrix(1,0,0,0.99918,0,-0.445119)"><g transform="matrix(51.168945,0,0,51.168945,150.917576,538.566575)"></g><text x="74.164px" y="538.567px" style="font-family:'ArialMT', 'Arial', sans-serif;font-size:51.169px;">ON</text></g><g transform="matrix(1,0,0,0.99918,0,-0.464444)"><g transform="matrix(45.107744,0,0,45.107744,147.757818,382.174458)"></g><text x="67.498px" y="382.174px" style="font-family:'ArialMT', 'Arial', sans-serif;font-size:45.108px;">{{CURRENT}}</text></g><g transform="matrix(1,0,0,0.99918,0,-0.083905)"><g transform="matrix(25.618398,0,0,25.618398,219.292001,741.483975)"></g><text x="20.412px" y="741.484px" style="font-family:'ArialMT', 'Arial', sans-serif;font-size:25.618px;">RCD-40/30 <tspan x="155.208px 169.444px 182.253px 196.501px 202.205px " y="741.484px 741.484px 741.484px 741.484px 741.484px ">Typ A</tspan></text></g><g transform="matrix(1,0,0,0.99918,0,-0.230967)"><g transform="matrix(31.337211,0,0,31.337211,391.962144,745.265376)"></g><text x="268.266px" y="745.265px" style="font-family:'ArialMT', 'Arial', sans-serif;font-size:31.337px;">230V <tspan x="348.43px 369.331px " y="745.265px 745.265px ">AC</tspan></text></g><rect x="246.089" y="432.083" width="143.016" height="55.917" style="fill:#e8ff4a;" /><path d="M389.105,432.083l0,55.917l-143.016,0l0,-55.917l143.016,0Zm-4.167,4.167l-134.683,0l0,47.584l134.683,-0l0,-47.584Z" /><rect x="61.972" y="229.793" width="289.446" height="21.538" style="fill:#d97706;" /><path d="M351.418,229.793l0,21.538l-289.446,0l0,-21.538l289.446,0Zm-1.856,1.856l-285.735,0l0,17.827l285.735,-0l0,-17.827Z" /><path d="M389.105,335.858l0,76.284c0,3.568 -2.897,6.465 -6.465,6.465l-134.98,0c-3.568,0 -6.465,-2.897 -6.465,-6.465l0,-76.284c0,-3.568 2.897,-6.465 6.465,-6.465l134.98,0c3.568,0 6.465,2.897 6.465,6.465Zm-2.004,-0c-0,-2.462 -1.999,-4.461 -4.461,-4.461l-134.98,0c-2.462,0 -4.461,1.999 -4.461,4.461l0,76.284c0,2.462 1.999,4.461 4.461,4.461l134.98,0c2.462,0 4.461,-1.999 4.461,-4.461l-0,-76.284Z" /><ellipse id="N" cx="311.172" cy="76.348" rx="40.714" ry="40.68" style="fill:url(#_Radial3);" /><path d="M311.172,35.668c22.471,0 40.714,18.228 40.714,40.68c0,22.452 -18.243,40.68 -40.714,40.68c-22.471,0 -40.714,-18.228 -40.714,-40.68c0,-22.452 18.243,-40.68 40.714,-40.68Zm0,2.969c-20.831,0 -37.745,16.897 -37.745,37.711c0,20.814 16.914,37.711 37.745,37.711c20.831,0 37.745,-16.897 37.745,-37.711c0,-20.814 -16.914,-37.711 -37.745,-37.711Z" /><ellipse id="L" cx="100.823" cy="76.348" rx="40.714" ry="40.68" style="fill:url(#_Radial4);" /><path d="M100.823,35.668c22.471,0 40.714,18.228 40.714,40.68c0,22.452 -18.243,40.68 -40.714,40.68c-22.471,0 -40.714,-18.228 -40.714,-40.68c0,-22.452 18.243,-40.68 40.714,-40.68Zm0,3.117c-20.749,0 -37.596,16.831 -37.596,37.563c0,20.732 16.847,37.563 37.596,37.563c20.749,0 37.596,-16.831 37.596,-37.563c0,-20.732 -16.847,-37.563 -37.596,-37.563Z" /><ellipse cx="205.464" cy="76.348" rx="27.05" ry="27.028" style="fill:#c8c5c5;" /><path d="M205.464,49.321c14.929,0 27.05,12.111 27.05,27.028c0,14.917 -12.121,27.028 -27.05,27.028c-14.929,0 -27.05,-12.111 -27.05,-27.028c0,-14.917 12.121,-27.028 27.05,-27.028Zm0,2.152c-13.741,0 -24.898,11.146 -24.898,24.875c0,13.73 11.157,24.875 24.898,24.875c13.741,0 24.898,-11.146 24.898,-24.875c0,-13.73 -11.157,-24.875 -24.898,-24.875Z" /><path d="M413.193,205.379l0,546.461c0,6.763 -5.49,12.253 -12.253,12.253l-388.251,0c-6.763,0 -12.253,-5.49 -12.253,-12.253l0,-546.461c0,-6.763 5.49,-12.253 12.253,-12.253l388.251,0c6.763,0 12.253,5.49 12.253,12.253Zm-4.808,0c0,-4.109 -3.336,-7.445 -7.445,-7.445l-388.251,0c-4.109,0 -7.445,3.336 -7.445,7.445l0,546.461c0,4.109 3.336,7.445 7.445,7.445l388.251,0c4.109,0 7.445,-3.336 7.445,-7.445l0,-546.461Z" /><path d="M377.372,343.911l0,59.649c0,3.122 -2.535,5.656 -5.656,5.656l-114.085,0c-3.122,0 -5.656,-2.535 -5.656,-5.656l0,-59.649c0,-3.122 2.535,-5.656 5.656,-5.656l114.085,0c3.122,0 5.656,2.535 5.656,5.656Z" style="fill:url(#_Radial5);" /><path d="M377.372,343.911l0,59.649c0,3.122 -2.535,5.656 -5.656,5.656l-114.085,0c-3.122,0 -5.656,-2.535 -5.656,-5.656l0,-59.649c0,-3.122 2.535,-5.656 5.656,-5.656l114.085,0c3.122,0 5.656,2.535 5.656,5.656Zm-4.167,0c0,-0.822 -0.668,-1.49 -1.49,-1.49l-114.085,0c-0.822,0 -1.49,0.668 -1.49,1.49l0,59.649c0,0.822 0.668,1.49 1.49,1.49l114.085,0c0.822,0 1.49,-0.668 1.49,-1.49l0,-59.649Z" /><g transform="matrix(1,0,0,0.99918,0,-1.000987)"><g transform="matrix(69.470057,0,0,69.470057,336.249292,400.172593)"></g><text x="293.814px" y="400.173px" style="font-family:'ArialMT', 'Arial', sans-serif;font-size:69.47px;">T</text></g><g transform="matrix(1,0,0,0.99918,0,-0.551408)"><g transform="matrix(42.938923,0,0,42.938923,372.748943,476.129424)"></g><text x="260.579px" y="476.129px" style="font-family:'ArialMT', 'Arial', sans-serif;font-size:42.939px;">30mA</text></g><rect x="184.346" y="-0.157" width="44.233" height="37.589" style="fill:#c8c5c5;" /><path d="M228.579,-0.157l0,37.589l-44.233,0l0,-37.589l44.233,0Zm-2.152,2.152l-39.928,-0l-0,33.284l39.928,0l-0,-33.284Z" style="fill:#100;" /><path d="M124.689,70.819l-18.317,0l0,-18.317l-11.098,0l0,18.317l-18.317,0l0,11.059l18.317,0l0,18.317l11.098,0l0,-18.317l18.317,0l0,-11.059Z" style="fill:#dedede;" /><path d="M124.689,70.819l0,11.059l-18.317,0l0,18.317l-11.098,0l0,-18.317l-18.317,0l0,-11.059l18.317,0l0,-18.317l11.098,0l0,18.317l18.317,0Zm-3.563,3.563l-18.317,0l0,-18.317l-3.973,-0l0,18.317l-18.317,0l-0,3.934l18.317,0l-0,18.317l3.973,0l-0,-18.317l18.317,-0l0,-3.934Z" /><path d="M335.037,70.819l-18.317,0l0,-18.317l-11.098,0l0,18.317l-18.317,0l0,11.059l18.317,0l0,18.317l11.098,0l0,-18.317l18.317,0l0,-11.059Z" style="fill:#dedede;" /><path d="M335.037,70.819l0,11.059l-18.317,0l0,18.317l-11.098,0l0,-18.317l-18.317,0l0,-11.059l18.317,0l0,-18.317l11.098,0l0,18.317l18.317,0Zm-3.711,3.711l-18.317,-0l-0,-18.317l-3.676,0l-0,18.317l-18.317,0l0,3.637l18.317,0l0,18.317l3.676,-0l0,-18.317l18.317,-0l-0,-3.637Z" /><rect x="186.256" y="939.568" width="44.233" height="37.589" style="fill:#c8c5c5;" /><path d="M186.256,977.157l0,-37.589l44.233,0l0,37.589l-44.233,0Zm2.227,-2.227l39.779,-0l0,-33.136l-39.779,0l-0,33.136Z" style="fill:#100;" /><ellipse cx="207.962" cy="901.077" rx="27.05" ry="27.028" style="fill:#c8c5c5;" /><path d="M207.962,928.105c-14.929,0 -27.05,-12.111 -27.05,-27.028c0,-14.917 12.121,-27.028 27.05,-27.028c14.929,0 27.05,12.111 27.05,27.028c0,14.917 -12.121,27.028 -27.05,27.028Zm0,-2.227c13.7,0 24.823,-11.113 24.823,-24.801c0,-13.689 -11.123,-24.801 -24.823,-24.801c-13.7,0 -24.823,11.113 -24.823,24.801c0,13.689 11.123,24.801 24.823,24.801Z" /><ellipse id="L" cx="103.253" cy="901.077" rx="40.714" ry="40.68" style="fill:url(#_Radial6);" /><path d="M103.253,941.757c-22.471,0 -40.714,-18.228 -40.714,-40.68c0,-22.452 18.243,-40.68 40.714,-40.68c22.471,0 40.714,18.228 40.714,40.68c0,22.452 -18.243,40.68 -40.714,40.68Zm0,-3.117c20.749,0 37.596,-16.831 37.596,-37.563c0,-20.732 -16.847,-37.563 -37.596,-37.563c-20.749,0 -37.596,16.831 -37.596,37.563c0,20.732 16.847,37.563 37.596,37.563Z" /><ellipse id="N" cx="313.602" cy="901.077" rx="40.714" ry="40.68" style="fill:url(#_Radial7);" /><path d="M313.602,941.757c-22.471,0 -40.714,-18.228 -40.714,-40.68c0,-22.452 18.243,-40.68 40.714,-40.68c22.471,0 40.714,18.228 40.714,40.68c0,22.452 -18.243,40.68 -40.714,40.68Zm0,-2.821c20.913,0 37.893,-16.964 37.893,-37.86c0,-20.896 -16.98,-37.86 -37.893,-37.86c-20.913,0 -37.893,16.964 -37.893,37.86c0,20.896 16.98,37.86 37.893,37.86Z" /><path d="M288.738,906.606l18.317,0l0,18.317l11.098,0l0,-18.317l18.317,0l0,-11.059l-18.317,0l0,-18.317l-11.098,0l0,18.317l-18.317,0l0,11.059Z" style="fill:#dedede;" /><path d="M288.738,906.606l0,-11.059l18.317,0l0,-18.317l11.098,0l0,18.317l18.317,0l0,11.059l-18.317,0l0,18.317l-11.098,0l0,-18.317l-18.317,0Zm3.637,-3.637l18.317,0l-0,18.317l3.824,0l0,-18.317l18.317,0l0,-3.785l-18.317,-0l0,-18.317l-3.824,-0l0,18.317l-18.317,-0l-0,3.785Z" /><path d="M79.388,906.606l18.317,0l0,18.317l11.098,0l0,-18.317l18.317,0l0,-11.059l-18.317,0l0,-18.317l-11.098,0l0,18.317l-18.317,0l0,11.059Z" style="fill:#dedede;" /><path d="M79.388,906.606l0,-11.059l18.317,0l0,-18.317l11.098,0l0,18.317l18.317,0l0,11.059l-18.317,0l0,18.317l-11.098,0l0,-18.317l-18.317,0Zm3.563,-3.563l18.317,-0l-0,18.317l3.973,0l0,-18.317l18.317,-0l0,-3.934l-18.317,-0l0,-18.317l-3.973,-0l0,18.317l-18.317,0l-0,3.934Z" style="fill:#100;" /><g><g transform="matrix(1,0,0,0.997662,0,-0.04541)"><g transform="matrix(14.796828,0,0,14.796828,240.953102,575.998943)"></g><text x="231.915px" y="575.999px" style="font-family:'ArialMT', 'Arial', sans-serif;font-size:14.797px;">T</text></g><path d="M277.66,561.643l7.086,19.018l0,80.742" style="fill:none;stroke:#100;stroke-width:4.16px;" /><path d="M317.86,561.643l7.086,19.018l0,80.742" style="fill:none;stroke:#100;stroke-width:4.16px;" /><g transform="matrix(1,0,0,0.997662,0,0.925117)"><g transform="matrix(8.233311,0,0,8.233311,281.41742,637.267015)"></g><text x="276.838px" y="637.267px" style="font-family:'ArialMT', 'Arial', sans-serif;font-size:8.233px;">2</text></g><g transform="matrix(1,0,0,0.997662,0,0.925117)"><g transform="matrix(8.233311,0,0,8.233311,332.485264,637.267015)"></g><text x="327.906px" y="637.267px" style="font-family:'ArialMT', 'Arial', sans-serif;font-size:8.233px;">4</text></g><g transform="matrix(1,0,0,0.997662,0,0.81897)"><g transform="matrix(8.09041,0,0,8.09041,334.262757,556.654263)"></g><text x="329.763px" y="556.654px" style="font-family:'ArialMT', 'Arial', sans-serif;font-size:8.09px;">3</text></g><g transform="matrix(1,0,0,0.997662,0,0.761076)"><g transform="matrix(8.267008,0,0,8.267008,335.008484,528.688762)"></g><text x="329.038px" y="528.689px" style="font-family:'ArialMT', 'Arial', sans-serif;font-size:8.267px;">N</text></g><g transform="matrix(1,0,0,0.997662,0,1.073469)"><g transform="matrix(8.267008,0,0,8.267008,335.008484,662.289926)"></g><text x="329.038px" y="662.29px" style="font-family:'ArialMT', 'Arial', sans-serif;font-size:8.267px;">N</text></g><g transform="matrix(1,0,0,0.997662,0,0.766331)"><g transform="matrix(8.233311,0,0,8.233311,281.632178,528.683495)"></g><text x="272.474px" y="528.683px" style="font-family:'ArialMT', 'Arial', sans-serif;font-size:8.233px;">L1</text></g><g transform="matrix(1,0,0,0.997662,0,1.078724)"><g transform="matrix(8.233311,0,0,8.233311,281.632178,662.284658)"></g><text x="272.474px" y="662.285px" style="font-family:'ArialMT', 'Arial', sans-serif;font-size:8.233px;">L1</text></g><path d="M348.094,609.701l0,7.829c0,2.161 -1.754,3.915 -3.915,3.915l-78.009,0c-2.161,0 -3.915,-1.754 -3.915,-3.915l0,-7.829c0,-2.161 1.754,-3.915 3.915,-3.915l78.009,0c2.161,0 3.915,1.754 3.915,3.915Zm-1.93,0c0,-1.095 -0.889,-1.985 -1.985,-1.985l-78.009,0c-1.095,0 -1.985,0.889 -1.985,1.985l0,7.829c0,1.095 0.889,1.985 1.985,1.985l78.009,0c1.095,0 1.985,-0.889 1.985,-1.985l0,-7.829Z" style="fill:#100;" /><path d="M364.322,562.653l0,17.367l-17.794,0l0,-17.367l17.794,0Zm-0.965,0.965l-15.864,0l0,15.437l15.864,-0l-0,-15.437Z" style="fill:#100;" /><path d="M261.117,571.479l3.274,0" style="fill:none;stroke:#100;stroke-width:0.96px;" /><path d="M266.526,571.622l7.118,0" style="fill:none;stroke:#100;stroke-width:0.96px;" /><path d="M275.922,571.764l4.555,0" style="fill:none;stroke:#100;stroke-width:0.96px;" /><path d="M284.605,571.479l6.406,0" style="fill:none;stroke:#100;stroke-width:0.96px;" /><path d="M294,571.622l6.121,0" style="fill:none;stroke:#100;stroke-width:0.96px;" /><path d="M302.257,571.764l7.118,0" style="fill:none;stroke:#100;stroke-width:0.96px;" /><path d="M312.079,571.479l6.263,0" style="fill:none;stroke:#100;stroke-width:0.96px;" /><path d="M323.752,571.479l4.128,0" style="fill:none;stroke:#100;stroke-width:0.96px;" /><path d="M330.016,571.764l6.691,0" style="fill:none;stroke:#100;stroke-width:0.96px;" /><path d="M339.126,571.764l5.836,0" style="fill:none;stroke:#100;stroke-width:0.96px;" /><path d="M365.604,571.479l4.982,0" style="fill:none;stroke:#100;stroke-width:0.96px;" /><path d="M373.148,571.764l4.84,0" style="fill:none;stroke:#100;stroke-width:0.96px;" /><path d="M378.131,565.643l0,12.385" style="fill:none;stroke:#100;stroke-width:0.96px;" /><path d="M355.212,567.351l0,9.68" style="fill:none;stroke:#100;stroke-width:0.96px;" /><path d="M349.945,571.479l11.958,0" style="fill:none;stroke:#100;stroke-width:0.96px;" /><path d="M354.927,580.874l0,3.844" style="fill:none;stroke:#100;stroke-width:0.96px;" /><path d="M355.07,586.996l0,4.413" style="fill:none;stroke:#100;stroke-width:0.96px;" /><path d="M360.621,591.408l0,17.652l-10.676,0l0,-17.652l10.676,0Zm-0.965,0.965l-8.747,0l-0,15.722l8.747,-0l-0,-15.722Z" style="fill:#100;" /><path d="M369.305,597.672l0,28.613l-36.3,0l0,-28.613l36.3,0Zm-0.965,0.965l-34.37,0l0,26.683l34.37,-0l0,-26.683Z" style="fill:#100;" /><path d="M253.999,602.512l0,14.378l-6.263,0l0,-14.378l6.263,0Zm-0.965,0.965l-4.334,-0l-0,12.448l4.334,0l-0,-12.448Z" style="fill:#100;" /><g transform="matrix(1,0,0,0.997662,-0,0.625863)"><g transform="matrix(11.725452,0,0,11.725452,245.463369,584.747599)"></g><text x="237.643px" y="584.748px" style="font-family:'ArialMT', 'Arial', sans-serif;font-size:11.725px;">E</text></g><path d="M247.736,572.125l3.132,13.666l0,16.721" style="fill:none;stroke:#100;stroke-width:0.96px;" /><path d="M284.578,522.31l0,39.202" style="fill:none;stroke:#100;stroke-width:4.81px;" /><path d="M325.211,522.31l0,39.202" style="fill:none;stroke:#100;stroke-width:4.81px;" /><path d="M284.578,560.604c1.415,0 2.564,1.204 2.564,2.688c0,1.483 -1.149,2.688 -2.564,2.688c-1.415,0 -2.564,-1.204 -2.564,-2.688c0,-1.483 1.149,-2.688 2.564,-2.688Zm0,4.808c1.176,0 2.243,-0.888 2.243,-2.12c0,-1.232 -1.067,-2.12 -2.243,-2.12c-1.176,0 -2.243,0.888 -2.243,2.12c0,1.232 1.067,2.12 2.243,2.12Z" style="fill:#100;" /><path d="M325.211,560.604c1.415,0 2.564,1.204 2.564,2.688c0,1.483 -1.149,2.688 -2.564,2.688c-1.415,0 -2.564,-1.204 -2.564,-2.688c0,-1.483 1.149,-2.688 2.564,-2.688Zm0,4.808c1.176,0 2.243,-0.888 2.243,-2.12c0,-1.232 -1.067,-2.12 -2.243,-2.12c-1.176,0 -2.243,0.888 -2.243,2.12c0,1.232 1.067,2.12 2.243,2.12Z" style="fill:#100;" /><g transform="matrix(1,0,0,0.997662,0,0.807038)"><g transform="matrix(8.233311,0,0,8.233311,281.632178,556.666222)"></g><text x="277.053px" y="556.666px" style="font-family:'ArialMT', 'Arial', sans-serif;font-size:8.233px;">1</text></g><path d="M250.868,616.89l0,9.395l30.322,0" style="fill:none;stroke:#100;stroke-width:0.96px;" /><path d="M259.211,564.04l4.555,15.78l-0.228,7.499l34.392,0" style="fill:none;stroke:#100;stroke-width:0.96px;" /><path d="M250.868,571.1l0,-14.349l12.898,-0.114l0.114,6.491" style="fill:none;stroke:#100;stroke-width:0.96px;" /></g></g><defs><linearGradient id="_Linear1" x1="0" y1="0" x2="1" y2="0" gradientUnits="userSpaceOnUse" gradientTransform="matrix(0,980.314961,-954.16198,0,206.5,-0.15748)"><stop offset="0" style="stop-color:#fff;stop-opacity:1" /><stop offset="0.75" style="stop-color:#fff;stop-opacity:1" /><stop offset="0.8" style="stop-color:#9f9e9e;stop-opacity:1" /><stop offset="0.95" style="stop-color:#ececec;stop-opacity:1" /><stop offset="1" style="stop-color:#fff;stop-opacity:1" /></linearGradient><linearGradient id="_Linear2" x1="0" y1="0" x2="1" y2="0" gradientUnits="userSpaceOnUse" gradientTransform="matrix(0,189.496209,-189.651667,0,111.67889,474.024375)"><stop offset="0" style="stop-color:#fff;stop-opacity:1" /><stop offset="0" style="stop-color:#ea8c21;stop-opacity:1" /><stop offset="0.21" style="stop-color:#f0a955;stop-opacity:1" /><stop offset="0.28" style="stop-color:#fde8ce;stop-opacity:1" /><stop offset="0.35" style="stop-color:#f0a854;stop-opacity:1" /><stop offset="0.58" style="stop-color:#e9891c;stop-opacity:1" /><stop offset="0.79" style="stop-color:#dc7d13;stop-opacity:1" /><stop offset="1" style="stop-color:#c86a0b;stop-opacity:1" /></linearGradient><radialGradient id="_Radial3" cx="0" cy="0" r="1" gradientUnits="userSpaceOnUse" gradientTransform="matrix(40.713699,0,0,40.680326,311.171754,76.348497)"><stop offset="0" style="stop-color:#fff;stop-opacity:1" /><stop offset="0.24" style="stop-color:#f3f3f3;stop-opacity:1" /><stop offset="0.24" style="stop-color:#f3f3f3;stop-opacity:1" /><stop offset="1" style="stop-color:#7a7a7a;stop-opacity:1" /><stop offset="1" style="stop-color:#6b6b6b;stop-opacity:1" /></radialGradient><radialGradient id="_Radial4" cx="0" cy="0" r="1" gradientUnits="userSpaceOnUse" gradientTransform="matrix(40.713699,0,0,40.680326,100.823039,76.348497)"><stop offset="0" style="stop-color:#fff;stop-opacity:1" /><stop offset="0.24" style="stop-color:#f3f3f3;stop-opacity:1" /><stop offset="0.24" style="stop-color:#f3f3f3;stop-opacity:1" /><stop offset="1" style="stop-color:#7a7a7a;stop-opacity:1" /><stop offset="1" style="stop-color:#6b6b6b;stop-opacity:1" /></radialGradient><radialGradient id="_Radial5" cx="0" cy="0" r="1" gradientUnits="userSpaceOnUse" gradientTransform="matrix(0,-89.51808,89.591518,0,314.672854,373.999925)"><stop offset="0" style="stop-color:#fff;stop-opacity:1" /><stop offset="0.09" style="stop-color:#abd1fb;stop-opacity:1" /><stop offset="1" style="stop-color:#d97706;stop-opacity:1" /></radialGradient><radialGradient id="_Radial6" cx="0" cy="0" r="1" gradientUnits="userSpaceOnUse" gradientTransform="matrix(-40.713699,-0,0,-40.680326,103.253189,901.076705)"><stop offset="0" style="stop-color:#fff;stop-opacity:1" /><stop offset="0.24" style="stop-color:#f3f3f3;stop-opacity:1" /><stop offset="0.24" style="stop-color:#f3f3f3;stop-opacity:1" /><stop offset="1" style="stop-color:#7a7a7a;stop-opacity:1" /><stop offset="1" style="stop-color:#6b6b6b;stop-opacity:1" /></radialGradient><radialGradient id="_Radial7" cx="0" cy="0" r="1" gradientUnits="userSpaceOnUse" gradientTransform="matrix(-40.713699,-0,0,-40.680326,313.601905,901.076705)"><stop offset="0" style="stop-color:#fff;stop-opacity:1" /><stop offset="0.24" style="stop-color:#f3f3f3;stop-opacity:1" /><stop offset="0.24" style="stop-color:#f3f3f3;stop-opacity:1" /><stop offset="1" style="stop-color:#7a7a7a;stop-opacity:1" /><stop offset="1" style="stop-color:#6b6b6b;stop-opacity:1" /></radialGradient></defs></svg>
