<?xml version="1.0" encoding="UTF-8" standalone="no"?><!DOCTYPE svg PUBLIC "-//W3C//DTD SVG 1.1//EN" "http://www.w3.org/Graphics/SVG/1.1/DTD/svg11.dtd"><svg width="100%" height="100%" viewBox="0 0 213 986" version="1.1" xmlns="http://www.w3.org/2000/svg" xmlns:xlink="http://www.w3.org/1999/xlink" xml:space="preserve" xmlns:serif="http://www.serif.com/" style="fill-rule:evenodd;clip-rule:evenodd;stroke-linejoin:round;stroke-miterlimit:1.5;"><defs><linearGradient id="_Linear1" x1="0" y1="0" x2="1" y2="0" gradientUnits="userSpaceOnUse" gradientTransform="matrix(0,980.314961,-314.96063,0,106.5,2.84252)"><stop offset="0" style="stop-color:#fff;stop-opacity:1"/><stop offset="0.31" style="stop-color:#f5f5f5;stop-opacity:1"/><stop offset="0.62" style="stop-color:#d7d7d7;stop-opacity:1"/><stop offset="0.71" style="stop-color:#c0c0c0;stop-opacity:1"/><stop offset="0.8" style="stop-color:#b8b8b8;stop-opacity:1"/><stop offset="0.91" style="stop-color:#e9e9e9;stop-opacity:1"/><stop offset="1" style="stop-color:#fff;stop-opacity:1"/></linearGradient><linearGradient id="_Linear2" x1="0" y1="0" x2="1" y2="0" gradientUnits="userSpaceOnUse" gradientTransform="matrix(0,575.914742,-155.061687,0,106.5,205.042629)"><stop offset="0" style="stop-color:#f2f2f2;stop-opacity:1"/><stop offset="0.62" style="stop-color:#ececec;stop-opacity:1"/><stop offset="0.96" style="stop-color:#c8c8c8;stop-opacity:1"/><stop offset="1" style="stop-color:#a8a8a8;stop-opacity:1"/></linearGradient><radialGradient id="_Radial3" cx="0" cy="0" r="1" gradientUnits="userSpaceOnUse" gradientTransform="matrix(25.68429,0,0,25.68429,54.478697,51.622764)"><stop offset="0" style="stop-color:#fff;stop-opacity:1"/><stop offset="0.43" style="stop-color:#c0c0c0;stop-opacity:0.89"/><stop offset="1" style="stop-color:#323232;stop-opacity:0.65"/><stop offset="1" style="stop-color:#1a1a1a;stop-opacity:1"/></radialGradient><radialGradient id="_Radial4" cx="0" cy="0" r="1" gradientUnits="userSpaceOnUse" gradientTransform="matrix(21.882594,0,0,21.634627,54.478697,51.622764)"><stop offset="0" style="stop-color:#fff;stop-opacity:1"/><stop offset="0.38" style="stop-color:#dbdbdb;stop-opacity:0.94"/><stop offset="0.87" style="stop-color:#888;stop-opacity:0.8"/><stop offset="1" style="stop-color:#323232;stop-opacity:0.65"/><stop offset="1" style="stop-color:#1a1a1a;stop-opacity:1"/></radialGradient><radialGradient id="_Radial5" cx="0" cy="0" r="1" gradientUnits="userSpaceOnUse" gradientTransform="matrix(18.147785,18.175277,-18.175277,18.147785,157.799982,51.622764)"><stop offset="0" style="stop-color:#fff;stop-opacity:1"/><stop offset="0.43" style="stop-color:#c0c0c0;stop-opacity:0.89"/><stop offset="1" style="stop-color:#323232;stop-opacity:0.65"/><stop offset="1" style="stop-color:#1a1a1a;stop-opacity:1"/></radialGradient><radialGradient id="_Radial6" cx="0" cy="0" r="1" gradientUnits="userSpaceOnUse" gradientTransform="matrix(15.461615,15.485037,-15.309566,15.286409,157.799982,51.622764)"><stop offset="0" style="stop-color:#fff;stop-opacity:1"/><stop offset="0.38" style="stop-color:#dbdbdb;stop-opacity:0.94"/><stop offset="0.87" style="stop-color:#888;stop-opacity:0.8"/><stop offset="1" style="stop-color:#323232;stop-opacity:0.65"/><stop offset="1" style="stop-color:#1a1a1a;stop-opacity:1"/></radialGradient><radialGradient id="_Radial7" cx="0" cy="0" r="1" gradientUnits="userSpaceOnUse" gradientTransform="matrix(18.147785,18.175277,-18.175277,18.147785,157.799982,152.488801)"><stop offset="0" style="stop-color:#fff;stop-opacity:1"/><stop offset="0.43" style="stop-color:#c0c0c0;stop-opacity:0.89"/><stop offset="1" style="stop-color:#323232;stop-opacity:0.65"/><stop offset="1" style="stop-color:#1a1a1a;stop-opacity:1"/></radialGradient><radialGradient id="_Radial8" cx="0" cy="0" r="1" gradientUnits="userSpaceOnUse" gradientTransform="matrix(15.461615,15.485037,-15.309566,15.286409,157.799982,152.488801)"><stop offset="0" style="stop-color:#fff;stop-opacity:1"/><stop offset="0.38" style="stop-color:#dbdbdb;stop-opacity:0.94"/><stop offset="0.87" style="stop-color:#888;stop-opacity:0.8"/><stop offset="1" style="stop-color:#323232;stop-opacity:0.65"/><stop offset="1" style="stop-color:#1a1a1a;stop-opacity:1"/></radialGradient><radialGradient id="_Radial9" cx="0" cy="0" r="1" gradientUnits="userSpaceOnUse" gradientTransform="matrix(18.147785,18.175277,-18.175277,18.147785,54.680219,152.563662)"><stop offset="0" style="stop-color:#fff;stop-opacity:1"/><stop offset="0.43" style="stop-color:#c0c0c0;stop-opacity:0.89"/><stop offset="1" style="stop-color:#323232;stop-opacity:0.65"/><stop offset="1" style="stop-color:#1a1a1a;stop-opacity:1"/></radialGradient><radialGradient id="_Radial10" cx="0" cy="0" r="1" gradientUnits="userSpaceOnUse" gradientTransform="matrix(15.461615,15.485037,-15.309566,15.286409,54.680219,152.563662)"><stop offset="0" style="stop-color:#fff;stop-opacity:1"/><stop offset="0.38" style="stop-color:#dbdbdb;stop-opacity:0.94"/><stop offset="0.87" style="stop-color:#888;stop-opacity:0.8"/><stop offset="1" style="stop-color:#323232;stop-opacity:0.65"/><stop offset="1" style="stop-color:#1a1a1a;stop-opacity:1"/></radialGradient><radialGradient id="_Radial11" cx="0" cy="0" r="1" gradientUnits="userSpaceOnUse" gradientTransform="matrix(25.68429,0,0,25.68429,54.839358,833.008711)"><stop offset="0" style="stop-color:#fff;stop-opacity:1"/><stop offset="0.43" style="stop-color:#c0c0c0;stop-opacity:0.89"/><stop offset="1" style="stop-color:#323232;stop-opacity:0.65"/><stop offset="1" style="stop-color:#1a1a1a;stop-opacity:1"/></radialGradient><radialGradient id="_Radial12" cx="0" cy="0" r="1" gradientUnits="userSpaceOnUse" gradientTransform="matrix(21.882594,0,0,21.634627,54.839358,833.008711)"><stop offset="0" style="stop-color:#fff;stop-opacity:1"/><stop offset="0.43" style="stop-color:#c0c0c0;stop-opacity:0.89"/><stop offset="1" style="stop-color:#323232;stop-opacity:0.65"/><stop offset="1" style="stop-color:#1a1a1a;stop-opacity:1"/></radialGradient><radialGradient id="_Radial13" cx="0" cy="0" r="1" gradientUnits="userSpaceOnUse" gradientTransform="matrix(18.147785,18.175277,-18.175277,18.147785,158.160642,833.008711)"><stop offset="0" style="stop-color:#fff;stop-opacity:1"/><stop offset="0.43" style="stop-color:#c0c0c0;stop-opacity:0.89"/><stop offset="1" style="stop-color:#323232;stop-opacity:0.65"/><stop offset="1" style="stop-color:#1a1a1a;stop-opacity:1"/></radialGradient><radialGradient id="_Radial14" cx="0" cy="0" r="1" gradientUnits="userSpaceOnUse" gradientTransform="matrix(15.461615,15.485037,-15.309566,15.286409,158.160642,833.008711)"><stop offset="0" style="stop-color:#fff;stop-opacity:1"/><stop offset="0.43" style="stop-color:#c0c0c0;stop-opacity:0.89"/><stop offset="1" style="stop-color:#323232;stop-opacity:0.65"/><stop offset="1" style="stop-color:#1a1a1a;stop-opacity:1"/></radialGradient><radialGradient id="_Radial15" cx="0" cy="0" r="1" gradientUnits="userSpaceOnUse" gradientTransform="matrix(18.147785,18.175277,-18.175277,18.147785,158.160642,933.874748)"><stop offset="0" style="stop-color:#fff;stop-opacity:1"/><stop offset="0.43" style="stop-color:#c0c0c0;stop-opacity:0.89"/><stop offset="1" style="stop-color:#323232;stop-opacity:0.65"/><stop offset="1" style="stop-color:#1a1a1a;stop-opacity:1"/></radialGradient><radialGradient id="_Radial16" cx="0" cy="0" r="1" gradientUnits="userSpaceOnUse" gradientTransform="matrix(15.461615,15.485037,-15.309566,15.286409,158.160642,933.874748)"><stop offset="0" style="stop-color:#fff;stop-opacity:1"/><stop offset="0.43" style="stop-color:#c0c0c0;stop-opacity:0.89"/><stop offset="1" style="stop-color:#323232;stop-opacity:0.65"/><stop offset="1" style="stop-color:#1a1a1a;stop-opacity:1"/></radialGradient><radialGradient id="_Radial17" cx="0" cy="0" r="1" gradientUnits="userSpaceOnUse" gradientTransform="matrix(18.147785,18.175277,-18.175277,18.147785,55.04088,933.949609)"><stop offset="0" style="stop-color:#fff;stop-opacity:1"/><stop offset="0.43" style="stop-color:#c0c0c0;stop-opacity:0.89"/><stop offset="1" style="stop-color:#323232;stop-opacity:0.65"/><stop offset="1" style="stop-color:#1a1a1a;stop-opacity:1"/></radialGradient><radialGradient id="_Radial18" cx="0" cy="0" r="1" gradientUnits="userSpaceOnUse" gradientTransform="matrix(15.461615,15.485037,-15.309566,15.286409,55.04088,933.949609)"><stop offset="0" style="stop-color:#fff;stop-opacity:1"/><stop offset="0.43" style="stop-color:#c0c0c0;stop-opacity:0.89"/><stop offset="1" style="stop-color:#323232;stop-opacity:0.65"/><stop offset="1" style="stop-color:#1a1a1a;stop-opacity:1"/></radialGradient></defs><g><rect x="0" y="0" width="213" height="986" rx="3" ry="3" fill="url(#_Linear1)" stroke="#000" stroke-width="4.01px"/><path d="M209.846,208.038l0,569.924c0,1.653 -1.342,2.996 -2.996,2.996l-200.702,0c-1.653,0 -2.996,-1.342 -2.996,-2.996l0,-569.924c0,-1.653 1.342,-2.996 2.996,-2.996l200.702,0c1.653,0 2.996,1.342 2.996,2.996Z" style="fill:url(#_Linear2);stroke:#000;stroke-width:4.01px;stroke-linecap:round;"/><g transform="matrix(23.328517,0,0,23.328517,39.008207,357.194453)"></g><text x="13.06px" y="357.194px" style="font-family:'ArialMT', 'Arial', sans-serif;font-size:23.329px;">L1</text><g transform="matrix(23.328517,0,0,23.328517,197.74565,126.879372)"></g><text x="171.797px" y="126.879px" style="font-family:'ArialMT', 'Arial', sans-serif;font-size:23.329px;">L1</text><g transform="matrix(23.328517,0,0,23.328517,40.853845,127.428751)"></g><text x="14.905px" y="127.429px" style="font-family:'ArialMT', 'Arial', sans-serif;font-size:23.329px;">L1</text><g transform="matrix(23.328517,0,0,23.328517,39.008207,539.083088)"></g><text x="13.06px" y="539.083px" style="font-family:'ArialMT', 'Arial', sans-serif;font-size:23.329px;">L2</text><g transform="matrix(23.328517,0,0,23.328517,194.692895,905.021883)"></g><text x="168.744px" y="905.022px" style="font-family:'ArialMT', 'Arial', sans-serif;font-size:23.329px;">L2</text><g transform="matrix(23.328517,0,0,23.328517,37.80109,905.021883)"></g><text x="11.853px" y="905.022px" style="font-family:'ArialMT', 'Arial', sans-serif;font-size:23.329px;">L2</text><g transform="matrix(23.328517,0,0,23.328517,39.008207,714.165409)"></g><text x="13.06px" y="714.165px" style="font-family:'ArialMT', 'Arial', sans-serif;font-size:23.329px;">L3</text><g transform="matrix(23.328517,0,0,23.328517,197.74565,806.724743)"></g><text x="171.797px" y="806.725px" style="font-family:'ArialMT', 'Arial', sans-serif;font-size:23.329px;">L3</text><g transform="matrix(23.328517,0,0,23.328517,40.853845,806.724743)"></g><text x="14.905px" y="806.725px" style="font-family:'ArialMT', 'Arial', sans-serif;font-size:23.329px;">L3</text><path d="M106.5,205.043l0,575.915" style="fill:none;stroke:#000;stroke-width:0.82px;stroke-linecap:round;"/><circle cx="106.5" cy="308.687" r="61.796" style="fill:#262626;stroke:#000;stroke-width:3.12px;stroke-linecap:square;"/><circle cx="106.5" cy="493" r="61.796" style="fill:#262626;stroke:#000;stroke-width:3.12px;stroke-linecap:square;"/><circle cx="106.5" cy="677.982" r="61.796" style="fill:#262626;stroke:#000;stroke-width:3.12px;stroke-linecap:square;"/><path d="M3.154,101.268l206.693,0" style="fill:none;stroke:#000;stroke-width:0.96px;stroke-linecap:round;"/><path d="M3.154,877.77l206.693,0" style="fill:none;stroke:#000;stroke-width:0.96px;stroke-linecap:round;"/><path d="M143.333,290.33l-54.264,54.264l-14.359,-14.359l54.264,-54.264l14.359,14.359Z" style="fill:#0d0d0d;stroke:#000;stroke-width:4.01px;stroke-linecap:round;"/><rect x="96.346" y="454.63" width="20.307" height="76.741" style="fill:#0d0d0d;stroke:#000;stroke-width:4.01px;stroke-linecap:round;"/><path d="M86.26,644.174l54.264,54.264l-14.359,14.359l-54.264,-54.264l14.359,-14.359Z" style="fill:#0d0d0d;stroke:#000;stroke-width:4.01px;stroke-linecap:round;"/><circle cx="44.704" cy="391.258" r="20.775" style="fill:#e61a1a;stroke:#000;stroke-width:2.3px;stroke-linecap:round;"/><circle cx="44.704" cy="573.462" r="20.775" style="fill:#e5f20d;stroke:#000;stroke-width:2.52px;stroke-linecap:round;"/><circle cx="44.704" cy="746.549" r="20.775" style="fill:#26d93b;stroke:#000;stroke-width:2.38px;stroke-linecap:round;"/><g transform="matrix(25,0,0,25,195.420378,258.870912)"></g><text x="166.246px" y="258.871px" style="font-family:'ArialMT', 'Arial', sans-serif;font-size:25px;">F1</text><g transform="matrix(25,0,0,25,195.420378,440.188021)"></g><text x="166.246px" y="440.188px" style="font-family:'ArialMT', 'Arial', sans-serif;font-size:25px;">F2</text><g transform="matrix(25,0,0,25,195.420378,625.169968)"></g><text x="166.246px" y="625.17px" style="font-family:'ArialMT', 'Arial', sans-serif;font-size:25px;">F3</text><path d="M106.5,2.843l-0,202.2" style="fill:none;stroke:#000;stroke-width:0.96px;stroke-linecap:round;"/><path d="M106.5,780.957l0,202.2" style="fill:none;stroke:#000;stroke-width:0.89px;stroke-linecap:round;"/><g><g><circle cx="54.479" cy="51.623" r="25.684" style="fill:url(#_Radial3);stroke:#000;stroke-width:1.63px;stroke-linecap:round;"/><ellipse cx="54.479" cy="51.623" rx="21.883" ry="21.635" style="fill:url(#_Radial4);stroke:#000;stroke-width:0.89px;stroke-linecap:round;"/><g><path d="M42.42,39.564l24.117,24.117" style="fill:none;stroke:#000;stroke-width:3.93px;"/></g></g><g><path d="M175.975,33.475c10.016,10.031 10.004,26.307 -0.027,36.323c-10.031,10.016 -26.307,10.004 -36.323,-0.027c-10.016,-10.031 -10.004,-26.307 0.027,-36.323c10.031,-10.016 26.307,-10.004 36.323,0.027Z" style="fill:url(#_Radial5);stroke:#000;stroke-width:1.63px;stroke-linecap:round;"/><path d="M173.11,36.336c8.533,8.546 8.602,22.335 0.152,30.771c-8.45,8.437 -22.238,8.348 -30.771,-0.199c-8.533,-8.546 -8.602,-22.335 -0.152,-30.771c8.45,-8.437 22.238,-8.348 30.771,0.199Z" style="fill:url(#_Radial6);stroke:#000;stroke-width:0.89px;stroke-linecap:round;"/><g><path d="M149.079,66.277l17.442,-29.309" style="fill:none;stroke:#000;stroke-width:3.93px;stroke-linejoin:bevel;"/></g></g><g><path d="M175.975,134.341c10.016,10.031 10.004,26.307 -0.027,36.323c-10.031,10.016 -26.307,10.004 -36.323,-0.027c-10.016,-10.031 -10.004,-26.307 0.027,-36.323c10.031,-10.016 26.307,-10.004 36.323,0.027Z" style="fill:url(#_Radial7);stroke:#000;stroke-width:1.63px;stroke-linecap:round;"/><path d="M173.11,137.202c8.533,8.546 8.602,22.335 0.152,30.771c-8.45,8.437 -22.238,8.348 -30.771,-0.199c-8.533,-8.546 -8.602,-22.335 -0.152,-30.771c8.45,-8.437 22.238,-8.348 30.771,0.199Z" style="fill:url(#_Radial8);stroke:#000;stroke-width:0.89px;stroke-linecap:round;"/><g><path d="M147.005,139.288l21.59,26.403" style="fill:none;stroke:#000;stroke-width:3.93px;stroke-linejoin:bevel;"/></g></g><g><path d="M72.855,134.416c10.016,10.031 10.004,26.307 -0.027,36.323c-10.031,10.016 -26.307,10.004 -36.323,-0.027c-10.016,-10.031 -10.004,-26.307 0.027,-36.323c10.031,-10.016 26.307,-10.004 36.323,0.027Z" style="fill:url(#_Radial9);stroke:#000;stroke-width:1.63px;stroke-linecap:round;"/><path d="M69.99,137.277c8.533,8.546 8.602,22.335 0.152,30.771c-8.45,8.437 -22.238,8.348 -30.771,-0.199c-8.533,-8.546 -8.602,-22.335 -0.152,-30.771c8.45,-8.437 22.238,-8.348 30.771,0.199Z" style="fill:url(#_Radial10);stroke:#000;stroke-width:0.89px;stroke-linecap:round;"/><g><path d="M43.652,165.571l22.057,-26.014" style="fill:none;stroke:#000;stroke-width:3.93px;stroke-linejoin:bevel;"/></g></g></g><g><circle cx="54.839" cy="833.009" r="25.684" style="fill:url(#_Radial11);stroke:#000;stroke-width:1.63px;stroke-linecap:round;"/><ellipse cx="54.839" cy="833.009" rx="21.883" ry="21.635" style="fill:url(#_Radial12);stroke:#000;stroke-width:0.89px;stroke-linecap:round;"/><g><path d="M42.781,820.95l24.117,24.117" style="fill:none;stroke:#000;stroke-width:3.93px;"/></g></g><g><path d="M176.336,814.861c10.016,10.031 10.004,26.307 -0.027,36.323c-10.031,10.016 -26.307,10.004 -36.323,-0.027c-10.016,-10.031 -10.004,-26.307 0.027,-36.323c10.031,-10.016 26.307,-10.004 36.323,0.027Z" style="fill:url(#_Radial13);stroke:#000;stroke-width:1.63px;stroke-linecap:round;"/><path d="M173.47,817.722c8.533,8.546 8.602,22.335 0.152,30.771c-8.45,8.437 -22.238,8.348 -30.771,-0.199c-8.533,-8.546 -8.602,-22.335 -0.152,-30.771c8.45,-8.437 22.238,-8.348 30.771,0.199Z" style="fill:url(#_Radial14);stroke:#000;stroke-width:0.89px;stroke-linecap:round;"/><g><path d="M149.44,847.663l17.442,-29.309" style="fill:none;stroke:#000;stroke-width:3.93px;stroke-linejoin:bevel;"/></g></g><g><path d="M176.336,915.727c10.016,10.031 10.004,26.307 -0.027,36.323c-10.031,10.016 -26.307,10.004 -36.323,-0.027c-10.016,-10.031 -10.004,-26.307 0.027,-36.323c10.031,-10.016 26.307,-10.004 36.323,0.027Z" style="fill:url(#_Radial15);stroke:#000;stroke-width:1.63px;stroke-linecap:round;"/><path d="M173.47,918.588c8.533,8.546 8.602,22.335 0.152,30.771c-8.45,8.437 -22.238,8.348 -30.771,-0.199c-8.533,-8.546 -8.602,-22.335 -0.152,-30.771c8.45,-8.437 22.238,-8.348 30.771,0.199Z" style="fill:url(#_Radial16);stroke:#000;stroke-width:0.89px;stroke-linecap:round;"/><g><path d="M147.366,920.673l21.59,26.403" style="fill:none;stroke:#000;stroke-width:3.93px;stroke-linejoin:bevel;"/></g></g><g><path d="M73.216,915.802c10.016,10.031 10.004,26.307 -0.027,36.323c-10.031,10.016 -26.307,10.004 -36.323,-0.027c-10.016,-10.031 -10.004,-26.307 0.027,-36.323c10.031,-10.016 26.307,-10.004 36.323,0.027Z" style="fill:url(#_Radial17);stroke:#000;stroke-width:1.63px;stroke-linecap:round;"/><path d="M70.35,918.663c8.533,8.546 8.602,22.335 0.152,30.771c-8.45,8.437 -22.238,8.348 -30.771,-0.199c-8.533,-8.546 -8.602,-22.335 -0.152,-30.771c8.45,-8.437 22.238,-8.348 30.771,0.199Z" style="fill:url(#_Radial18);stroke:#000;stroke-width:0.89px;stroke-linecap:round;"/><g><path d="M44.012,946.957l22.057,-26.014" style="fill:none;stroke:#000;stroke-width:3.93px;stroke-linejoin:bevel;"/></g></g><g transform="matrix(17.826354,0,0,17.826354,95.52178,802.430596)"></g><text x="70.741px" y="802.431px" style="font-family:'ArialMT', 'Arial', sans-serif;font-size:17.826px;">out</text><g transform="matrix(17.826354,0,0,17.826354,95.52178,123.134604)"></g><text x="70.741px" y="123.135px" style="font-family:'ArialMT', 'Arial', sans-serif;font-size:17.826px;">out</text><g transform="matrix(17.826354,0,0,17.826354,95.52178,902.770358)"></g><text x="70.741px" y="902.77px" style="font-family:'ArialMT', 'Arial', sans-serif;font-size:17.826px;">out</text><g transform="matrix(25,0,0,25,28.643248,31.182767)"></g><text x="10.589px" y="31.183px" style="font-family:'ArialMT', 'Arial', sans-serif;font-size:25px;">N</text><g transform="matrix(25,0,0,25,202.33929,26.991709)"></g><text x="184.285px" y="26.992px" style="font-family:'ArialMT', 'Arial', sans-serif;font-size:25px;">N</text></g></svg>