<svg width="100%" height="100%" viewBox="0 0 208 945" version="1.1" xmlns="http://www.w3.org/2000/svg" xmlns:xlink="http://www.w3.org/1999/xlink" style="fill-rule:evenodd;clip-rule:evenodd;stroke-linecap:round;stroke-linejoin:round;stroke-miterlimit:1.5;"><g><path d="M207.346,3.055l0,938.891c0,1.653 -1.342,2.996 -2.996,2.996l-200.702,0c-1.653,0 -2.996,-1.342 -2.996,-2.996l0,-938.891c0,-1.653 1.342,-2.996 2.996,-2.996l200.702,0c1.653,0 2.996,1.342 2.996,2.996Z" style="fill:url(#_Linear1);stroke:#000;stroke-width:3.64px;"/><g transform="matrix(50,0,0,50,171.363551,900.711861)"></g><text x="143.556px" y="900.712px" style="font-family:'ArialMT', 'Arial', sans-serif;font-size:50px;">2</text><path d="M207.346,242.903l0,459.194c0,1.653 -1.342,2.996 -2.996,2.996l-200.702,0c-1.653,0 -2.996,-1.342 -2.996,-2.996l0,-459.194c0,-1.653 1.342,-2.996 2.996,-2.996l200.702,0c1.653,0 2.996,1.342 2.996,2.996Z" style="fill:url(#_Linear2);stroke:#000;stroke-width:2.75px;stroke-linejoin:miter;"/><path d="M124.172,562.44l-37.244,14.09l0,-28.18l37.244,14.09Z" style="fill:#b91a1a;stroke:#000;stroke-width:0.96px;"/><path d="M22.711,536.477l158.465,0" style="fill:#ccc;stroke:#b3b3b3;stroke-width:4.16px;stroke-linecap:square;stroke-linejoin:miter;"/><path d="M17.115,403.429l174.457,0" style="fill:none;stroke:#000;stroke-width:1.78px;"/><path d="M16.428,412.847l175.144,0" style="fill:none;stroke:#000;stroke-width:1.78px;"/><path d="M185.68,417.225l0,118.955l-8.733,-5.221l-1.468,-21.782l-3.145,-7.534" style="fill:none;stroke:#000;stroke-width:1.78px;"/><path d="M22.711,415.796l0,120.384l9.008,-5.733l2.457,-21.595l4.914,-7.625" style="fill:none;stroke:#000;stroke-width:1.78px;"/><path d="M17.228,368.47l174.345,0l0,45.586l-19.194,9.597l0,77.575l-133.558,0l0,-77.575l-22.393,-11.196l0.8,-43.986" style="fill:url(#_Linear3);stroke:#000;stroke-width:1.78px;"/><path d="M39.089,434.849l133.245,0" style="fill:none;stroke:#000;stroke-width:1.78px;"/><path d="M17.115,381.46l174.457,0" style="fill:none;stroke:#000;stroke-width:1.78px;"/><g transform="matrix(38.468444,0,0,38.468444,147.1295,677.151614)"></g><text x="57.288px" y="677.152px" style="font-family:'ArialMT', 'Arial', sans-serif;font-size:38.468px;">100A</text><circle cx="103.725" cy="122.011" r="46.005" style="fill:url(#_Radial4);stroke:#000;stroke-width:3.12px;stroke-linecap:square;"/><path d="M129.008,115.56l0,12.901l-19.42,0l0,19.42l-11.725,0l0,-19.42l-19.42,0l0,-12.901l19.42,0l0,-19.42l11.725,0l0,19.42l19.42,0Z" style="fill:#fff;stroke:#000;stroke-width:3.12px;stroke-linecap:square;"/><circle cx="104.275" cy="818.769" r="46.005" style="fill:url(#_Radial5);stroke:#000;stroke-width:3.12px;stroke-linecap:square;"/><path d="M129.558,812.319l0,12.901l-19.42,0l0,19.42l-11.725,0l0,-19.42l-19.42,0l0,-12.901l19.42,0l0,-19.42l11.725,0l0,19.42l19.42,0Z" style="fill:#fff;stroke:#000;stroke-width:3.12px;stroke-linecap:square;"/><g transform="matrix(50,0,0,50,172.66775,80.225639)"></g><text x="144.86px" y="80.226px" style="font-family:'ArialMT', 'Arial', sans-serif;font-size:50px;">1</text></g><defs><linearGradient id="_Linear1" x1="0" y1="0" x2="1" y2="0" gradientUnits="userSpaceOnUse" gradientTransform="matrix(0,944.88189,-314.96063,0,104,0.059055)"><stop offset="0" style="stop-color:#fff;stop-opacity:1"/><stop offset="0.31" style="stop-color:#f5f5f5;stop-opacity:1"/><stop offset="0.62" style="stop-color:#d7d7d7;stop-opacity:1"/><stop offset="0.71" style="stop-color:#c0c0c0;stop-opacity:1"/><stop offset="0.8" style="stop-color:#b8b8b8;stop-opacity:1"/><stop offset="0.91" style="stop-color:#e9e9e9;stop-opacity:1"/><stop offset="1" style="stop-color:#fff;stop-opacity:1"/></linearGradient><linearGradient id="_Linear2" x1="0" y1="0" x2="1" y2="0" gradientUnits="userSpaceOnUse" gradientTransform="matrix(0,465.18506,-155.061687,0,104,239.90747)"><stop offset="0" style="stop-color:#f2f2f2;stop-opacity:1"/><stop offset="0.62" style="stop-color:#ececec;stop-opacity:1"/><stop offset="0.96" style="stop-color:#c8c8c8;stop-opacity:1"/><stop offset="1" style="stop-color:#a8a8a8;stop-opacity:1"/></linearGradient><linearGradient id="_Linear3" x1="0" y1="0" x2="1" y2="0" gradientUnits="userSpaceOnUse" gradientTransform="matrix(0,132.757835,-132.757835,0,104,368.470264)"><stop offset="0" style="stop-color:#262626;stop-opacity:1"/><stop offset="0.44" style="stop-color:#2d2d2d;stop-opacity:1"/><stop offset="0.8" style="stop-color:#373737;stop-opacity:1"/><stop offset="1" style="stop-color:#414141;stop-opacity:1"/><stop offset="1" style="stop-color:#6b6b6b;stop-opacity:1"/></linearGradient><radialGradient id="_Radial4" cx="0" cy="0" r="1" gradientUnits="userSpaceOnUse" gradientTransform="matrix(46.005109,0,0,46.005109,103.72493,122.010959)"><stop offset="0" style="stop-color:#fff;stop-opacity:1"/><stop offset="0.43" style="stop-color:#c0c0c0;stop-opacity:0.89"/><stop offset="1" style="stop-color:#323232;stop-opacity:0.65"/><stop offset="1" style="stop-color:#1a1a1a;stop-opacity:1"/></radialGradient><radialGradient id="_Radial5" cx="0" cy="0" r="1" gradientUnits="userSpaceOnUse" gradientTransform="matrix(46.005109,0,0,46.005109,104.27507,818.769252)"><stop offset="0" style="stop-color:#fff;stop-opacity:1"/><stop offset="0.43" style="stop-color:#c0c0c0;stop-opacity:0.89"/><stop offset="1" style="stop-color:#323232;stop-opacity:0.65"/><stop offset="1" style="stop-color:#1a1a1a;stop-opacity:1"/></radialGradient></defs></svg>