<svg width="100%" height="100%" viewBox="0 0 620 945" version="1.1" xmlns="http://www.w3.org/2000/svg" xmlns:xlink="http://www.w3.org/1999/xlink" style="fill-rule:evenodd;clip-rule:evenodd;stroke-linecap:round;stroke-linejoin:round;stroke-miterlimit:1.5;"><g><rect x="0" y="0" width="620" height="945" rx="9" ry="9" style="fill:url(#_Linear1);stroke:#000;stroke-width:3.64px;"/><g transform="matrix(50,0,0,50,588.939343,899.955025)"></g><text x="561.132px" y="899.955px" style="font-family:'ArialMT', 'Arial', sans-serif;font-size:50px;">6</text><g transform="matrix(50,0,0,50,588.74403,75.395499)"></g><text x="560.936px" y="75.395px" style="font-family:'ArialMT', 'Arial', sans-serif;font-size:50px;">5</text><g transform="matrix(50,0,0,50,383.655332,69.198934)"></g><text x="355.848px" y="69.199px" style="font-family:'ArialMT', 'Arial', sans-serif;font-size:50px;">3</text><g transform="matrix(50,0,0,50,177.262434,900.711861)"></g><text x="149.455px" y="900.712px" style="font-family:'ArialMT', 'Arial', sans-serif;font-size:50px;">2</text><path d="M620.039,246.649l0,451.701c0,3.721 -3.021,6.742 -6.742,6.742l-606.595,0c-3.721,0 -6.742,-3.021 -6.742,-6.742l0,-451.701c0,-3.721 3.021,-6.742 6.742,-6.742l606.595,0c3.721,0 6.742,3.021 6.742,6.742Z" style="fill:url(#_Linear2);stroke:#000;stroke-width:2.75px;stroke-linejoin:miter;"/><path d="M527.508,538.631l-37.244,14.09l0,-28.18l37.244,14.09Z" style="fill:#b91a1a;stroke:#000;stroke-width:0.96px;"/><path d="M329.13,538.631l-37.244,14.09l0,-28.18l37.244,14.09Z" style="fill:#b91a1a;stroke:#000;stroke-width:0.96px;"/><path d="M131.811,538.631l-37.244,14.09l0,-28.18l37.244,14.09Z" style="fill:#b91a1a;stroke:#000;stroke-width:0.96px;"/><path d="M30.349,512.668l560.217,0" style="fill:#ccc;stroke:#b3b3b3;stroke-width:4.16px;stroke-linecap:square;stroke-linejoin:miter;"/><g><path d="M24.753,379.621l174.457,0" style="fill:none;stroke:#000;stroke-width:1.78px;"/><path d="M24.066,389.039l175.144,0" style="fill:none;stroke:#000;stroke-width:1.78px;"/><path d="M193.318,393.416l0,118.955l-8.733,-5.221l-1.468,-21.782l-3.145,-7.534" style="fill:none;stroke:#000;stroke-width:1.78px;"/><path d="M30.349,391.987l0,120.384l9.008,-5.733l2.457,-21.595l4.914,-7.625" style="fill:none;stroke:#000;stroke-width:1.78px;"/><path d="M24.866,344.662l174.345,0l0,45.586l-19.194,9.597l0,77.575l-133.558,0l0,-77.575l-22.393,-11.196l0.8,-43.986" style="fill:url(#_Linear3);stroke:#000;stroke-width:1.78px;"/><path d="M46.728,411.041l133.245,0" style="fill:none;stroke:#000;stroke-width:1.78px;"/><path d="M24.753,357.651l174.457,0" style="fill:none;stroke:#000;stroke-width:1.78px;"/></g><g><path d="M223.115,379.621l174.457,0" style="fill:none;stroke:#000;stroke-width:2.08px;"/><path d="M222.428,389.039l175.144,0" style="fill:none;stroke:#000;stroke-width:2.08px;"/><path d="M391.68,393.416l0,118.955l-8.733,-5.221l-1.468,-21.782l-3.145,-7.534" style="fill:none;stroke:#000;stroke-width:2.08px;"/><path d="M228.711,391.987l0,120.384l9.008,-5.733l2.457,-21.595l4.914,-7.625" style="fill:none;stroke:#000;stroke-width:2.08px;"/><path d="M223.228,344.662l174.345,0l0,45.586l-19.194,9.597l0,77.575l-133.558,0l0,-77.575l-22.393,-11.196l0.8,-43.986" style="fill:url(#_Linear4);stroke:#000;stroke-width:2.08px;"/><path d="M245.089,411.041l133.245,0" style="fill:none;stroke:#000;stroke-width:2.08px;"/><path d="M223.115,357.651l174.457,0" style="fill:none;stroke:#000;stroke-width:2.08px;"/></g><g><path d="M422.001,379.621l174.457,0" style="fill:none;stroke:#000;stroke-width:2px;"/><path d="M421.314,389.039l175.144,0" style="fill:none;stroke:#000;stroke-width:2px;"/><path d="M590.566,393.416l0,118.955l-8.733,-5.221l-1.468,-21.782l-3.145,-7.534" style="fill:none;stroke:#000;stroke-width:2px;"/><path d="M427.597,391.987l0,120.384l9.008,-5.733l2.457,-21.595l4.914,-7.625" style="fill:none;stroke:#000;stroke-width:2px;"/><path d="M422.114,344.662l174.345,0l0,45.586l-19.194,9.597l0,77.575l-133.558,0l0,-77.575l-22.393,-11.196l0.8,-43.986" style="fill:url(#_Linear5);stroke:#000;stroke-width:2px;"/><path d="M443.975,411.041l133.245,0" style="fill:none;stroke:#000;stroke-width:2px;"/><path d="M422.001,357.651l174.457,0" style="fill:none;stroke:#000;stroke-width:2px;"/></g><path d="M210.878,239.907l0,465.185" style="fill:none;stroke:#000;stroke-width:0.59px;"/><path d="M409.936,239.907l0,465.185" style="fill:none;stroke:#000;stroke-width:0.59px;"/><path d="M210.878,239.907l0,-239.848" style="fill:none;stroke:#000;stroke-width:0.96px;"/><path d="M409.936,239.907l0,-239.848" style="fill:none;stroke:#000;stroke-width:1.34px;"/><path d="M210.878,705.093l0,239.848" style="fill:none;stroke:#000;stroke-width:0.96px;"/><path d="M409.936,705.093l0,239.848" style="fill:none;stroke:#000;stroke-width:0.96px;"/><g transform="matrix(38.468444,0,0,38.468444,154.436586,677.151614)"></g><text x="64.595px" y="677.152px" style="font-family:'ArialMT', 'Arial', sans-serif;font-size:38.468px;">{{LABEL}}</text><g transform="matrix(0.960425,0,0,1,-39.155987,-0)"><g transform="matrix(38.779922,0,0,38.779922,408.732795,677.375489)"></g><text x="318.164px" y="677.375px" style="font-family:'ArialMT', 'Arial', sans-serif;font-size:38.78px;">400V</text></g><g><circle cx="110.602" cy="122.011" r="46.005" style="fill:url(#_Radial6);stroke:#000;stroke-width:3.12px;stroke-linecap:square;"/><path d="M135.885,115.56l0,12.901l-19.42,0l0,19.42l-11.725,0l0,-19.42l-19.42,0l0,-12.901l19.42,0l0,-19.42l11.725,0l0,19.42l19.42,0Z" style="fill:#fff;stroke:#000;stroke-width:3.12px;stroke-linecap:square;"/></g><g><circle cx="111.152" cy="818.769" r="46.005" style="fill:url(#_Radial7);stroke:#000;stroke-width:3.12px;stroke-linecap:square;"/><path d="M136.435,812.319l0,12.901l-19.42,0l0,19.42l-11.725,0l0,-19.42l-19.42,0l0,-12.901l19.42,0l0,-19.42l11.725,0l0,19.42l19.42,0Z" style="fill:#fff;stroke:#000;stroke-width:3.12px;stroke-linecap:square;"/></g><g><circle cx="310" cy="122.011" r="46.005" style="fill:url(#_Radial8);stroke:#000;stroke-width:3.12px;stroke-linecap:square;"/><path d="M335.283,115.56l0,12.901l-19.42,0l0,19.42l-11.725,0l0,-19.42l-19.42,0l0,-12.901l19.42,0l0,-19.42l11.725,0l0,19.42l19.42,0Z" style="fill:#fff;stroke:#000;stroke-width:3.12px;stroke-linecap:square;"/></g><g><circle cx="310.55" cy="818.769" r="46.005" style="fill:url(#_Radial9);stroke:#000;stroke-width:3.12px;stroke-linecap:square;"/><path d="M335.833,812.319l0,12.901l-19.42,0l0,19.42l-11.725,0l0,-19.42l-19.42,0l0,-12.901l19.42,0l0,-19.42l11.725,0l0,19.42l19.42,0Z" style="fill:#fff;stroke:#000;stroke-width:3.12px;stroke-linecap:square;"/></g><g><circle cx="508.298" cy="122.011" r="46.005" style="fill:url(#_Radial10);stroke:#000;stroke-width:3.12px;stroke-linecap:square;"/><path d="M533.58,115.56l0,12.901l-19.42,0l0,19.42l-11.725,0l0,-19.42l-19.42,0l0,-12.901l19.42,0l0,-19.42l11.725,0l0,19.42l19.42,0Z" style="fill:#fff;stroke:#000;stroke-width:3.12px;stroke-linecap:square;"/></g><g><circle cx="508.848" cy="818.769" r="46.005" style="fill:url(#_Radial11);stroke:#000;stroke-width:3.12px;stroke-linecap:square;"/><path d="M534.131,812.319l0,12.901l-19.42,0l0,19.42l-11.725,0l0,-19.42l-19.42,0l0,-12.901l19.42,0l0,-19.42l11.725,0l0,19.42l19.42,0Z" style="fill:#fff;stroke:#000;stroke-width:3.12px;stroke-linecap:square;"/></g><g transform="matrix(50,0,0,50,178.566633,69.198934)"></g><text x="150.759px" y="69.199px" style="font-family:'ArialMT', 'Arial', sans-serif;font-size:50px;">1</text><g transform="matrix(50,0,0,50,383.801816,900.565377)"></g><text x="355.994px" y="900.565px" style="font-family:'ArialMT', 'Arial', sans-serif;font-size:50px;">4</text></g><defs><linearGradient id="_Linear1" x1="0" y1="0" x2="1" y2="0" gradientUnits="userSpaceOnUse" gradientTransform="matrix(0,944.88189,-944.88189,0,310,0.059055)"><stop offset="0" style="stop-color:#fff;stop-opacity:1"/><stop offset="0.31" style="stop-color:#f5f5f5;stop-opacity:1"/><stop offset="0.62" style="stop-color:#d7d7d7;stop-opacity:1"/><stop offset="0.71" style="stop-color:#c0c0c0;stop-opacity:1"/><stop offset="0.8" style="stop-color:#b8b8b8;stop-opacity:1"/><stop offset="0.91" style="stop-color:#e9e9e9;stop-opacity:1"/><stop offset="1" style="stop-color:#fff;stop-opacity:1"/></linearGradient><linearGradient id="_Linear2" x1="0" y1="0" x2="1" y2="0" gradientUnits="userSpaceOnUse" gradientTransform="matrix(0,465.18506,-465.18506,0,310,239.90747)"><stop offset="0" style="stop-color:#f2f2f2;stop-opacity:1"/><stop offset="0.62" style="stop-color:#ececec;stop-opacity:1"/><stop offset="0.96" style="stop-color:#c8c8c8;stop-opacity:1"/><stop offset="1" style="stop-color:#a8a8a8;stop-opacity:1"/></linearGradient><linearGradient id="_Linear3" x1="0" y1="0" x2="1" y2="0" gradientUnits="userSpaceOnUse" gradientTransform="matrix(0,132.757835,-132.757835,0,111.638564,344.66164)"><stop offset="0" style="stop-color:#262626;stop-opacity:1"/><stop offset="0.44" style="stop-color:#2d2d2d;stop-opacity:1"/><stop offset="0.8" style="stop-color:#373737;stop-opacity:1"/><stop offset="1" style="stop-color:#414141;stop-opacity:1"/><stop offset="1" style="stop-color:#6b6b6b;stop-opacity:1"/></linearGradient><linearGradient id="_Linear4" x1="0" y1="0" x2="1" y2="0" gradientUnits="userSpaceOnUse" gradientTransform="matrix(0.343488,132.757835,-132.757835,0.343488,310,344.66164)"><stop offset="0" style="stop-color:#262626;stop-opacity:1"/><stop offset="0.44" style="stop-color:#2d2d2d;stop-opacity:1"/><stop offset="0.8" style="stop-color:#373737;stop-opacity:1"/><stop offset="1" style="stop-color:#414141;stop-opacity:1"/><stop offset="1" style="stop-color:#6b6b6b;stop-opacity:1"/></linearGradient><linearGradient id="_Linear5" x1="0" y1="0" x2="1" y2="0" gradientUnits="userSpaceOnUse" gradientTransform="matrix(0,132.757835,-132.757835,0,508.886054,344.66164)"><stop offset="0" style="stop-color:#262626;stop-opacity:1"/><stop offset="0.44" style="stop-color:#2d2d2d;stop-opacity:1"/><stop offset="0.81" style="stop-color:#373737;stop-opacity:1"/><stop offset="1" style="stop-color:#414141;stop-opacity:1"/><stop offset="1" style="stop-color:#6b6b6b;stop-opacity:1"/></linearGradient><radialGradient id="_Radial6" cx="0" cy="0" r="1" gradientUnits="userSpaceOnUse" gradientTransform="matrix(46.005109,0,0,46.005109,110.602027,122.010959)"><stop offset="0" style="stop-color:#fff;stop-opacity:1"/><stop offset="0.43" style="stop-color:#c0c0c0;stop-opacity:0.89"/><stop offset="1" style="stop-color:#323232;stop-opacity:0.65"/><stop offset="1" style="stop-color:#1a1a1a;stop-opacity:1"/></radialGradient><radialGradient id="_Radial7" cx="0" cy="0" r="1" gradientUnits="userSpaceOnUse" gradientTransform="matrix(46.005109,0,0,46.005109,111.152167,818.769252)"><stop offset="0" style="stop-color:#fff;stop-opacity:1"/><stop offset="0.43" style="stop-color:#c0c0c0;stop-opacity:0.89"/><stop offset="1" style="stop-color:#323232;stop-opacity:0.65"/><stop offset="1" style="stop-color:#1a1a1a;stop-opacity:1"/></radialGradient><radialGradient id="_Radial8" cx="0" cy="0" r="1" gradientUnits="userSpaceOnUse" gradientTransform="matrix(46.005109,0,0,46.005109,310,122.010959)"><stop offset="0" style="stop-color:#fff;stop-opacity:1"/><stop offset="0.43" style="stop-color:#c0c0c0;stop-opacity:0.89"/><stop offset="1" style="stop-color:#323232;stop-opacity:0.65"/><stop offset="1" style="stop-color:#1a1a1a;stop-opacity:1"/></radialGradient><radialGradient id="_Radial9" cx="0" cy="0" r="1" gradientUnits="userSpaceOnUse" gradientTransform="matrix(46.005109,0,0,46.005109,310.55014,818.769252)"><stop offset="0" style="stop-color:#fff;stop-opacity:1"/><stop offset="0.43" style="stop-color:#c0c0c0;stop-opacity:0.89"/><stop offset="1" style="stop-color:#323232;stop-opacity:0.65"/><stop offset="1" style="stop-color:#1a1a1a;stop-opacity:1"/></radialGradient><radialGradient id="_Radial10" cx="0" cy="0" r="1" gradientUnits="userSpaceOnUse" gradientTransform="matrix(46.005109,0,0,46.005109,508.297694,122.010959)"><stop offset="0" style="stop-color:#fff;stop-opacity:1"/><stop offset="0.43" style="stop-color:#c0c0c0;stop-opacity:0.89"/><stop offset="1" style="stop-color:#323232;stop-opacity:0.65"/><stop offset="1" style="stop-color:#1a1a1a;stop-opacity:1"/></radialGradient><radialGradient id="_Radial11" cx="0" cy="0" r="1" gradientUnits="userSpaceOnUse" gradientTransform="matrix(46.005109,0,0,46.005109,508.847833,818.769252)"><stop offset="0" style="stop-color:#fff;stop-opacity:1"/><stop offset="0.43" style="stop-color:#c0c0c0;stop-opacity:0.89"/><stop offset="1" style="stop-color:#323232;stop-opacity:0.65"/><stop offset="1" style="stop-color:#1a1a1a;stop-opacity:1"/></radialGradient></defs></svg>